M48
; DRILL file {KiCad (5.1.9-0-10_14)} date Monday, April 26, 2021 at 12:20:29 AM
; FORMAT={-:-/ absolute / inch / decimal}
; #@! TF.CreationDate,2021-04-26T00:20:29-04:00
; #@! TF.GenerationSoftware,Kicad,Pcbnew,(5.1.9-0-10_14)
; #@! TF.FileFunction,Plated,1,2,PTH
FMAT,2
INCH
T1C0.0315
T2C0.0354
T3C0.0394
T4C0.0433
T5C0.0469
T6C0.0520
%
G90
G05
T1
X0.21Y-1.11
X0.21Y-1.41
X0.31Y-1.11
X0.31Y-1.41
X0.41Y-1.11
X0.41Y-1.41
X0.4563Y-0.815
X0.51Y-1.11
X0.51Y-1.41
X0.535Y-0.815
X0.735Y-0.9138
X0.735Y-0.9925
X1.9275Y-1.205
X1.9275Y-1.48
X1.9275Y-1.73
X1.9525Y-2.055
X1.9525Y-2.355
X2.135Y-0.5925
X2.135Y-0.6925
X2.135Y-0.7925
X2.135Y-0.8925
X2.2275Y-1.205
X2.2275Y-1.48
X2.2275Y-1.73
X2.2525Y-2.055
X2.2525Y-2.355
X2.4275Y-1.205
X2.4275Y-1.48
X2.4275Y-1.73
X2.435Y-0.5925
X2.435Y-0.6925
X2.435Y-0.7925
X2.435Y-0.8925
X2.5025Y-1.9763
X2.5025Y-2.055
X2.5025Y-2.2763
X2.5025Y-2.355
X2.7275Y-1.205
X2.7275Y-1.48
X2.7275Y-1.73
X3.635Y-0.9925
X3.635Y-1.2925
X3.635Y-2.4975
X3.635Y-2.7975
T2
X0.2225Y-1.6275
X0.5225Y-1.6275
X3.6325Y-0.075
X3.6325Y-0.375
X3.635Y-1.5425
X3.635Y-1.8425
T3
X0.11Y-0.8175
X0.3069Y-0.8175
X0.735Y-1.1425
X0.735Y-1.3425
X0.955Y-0.7875
X0.955Y-0.8875
X0.955Y-0.9875
X0.955Y-1.0875
X0.955Y-1.1875
X0.955Y-1.2875
X0.955Y-1.3875
X0.955Y-1.4875
X0.955Y-1.5875
X0.955Y-1.6875
X0.955Y-1.7875
X0.955Y-1.8875
X0.955Y-1.9875
X0.955Y-2.0875
X0.955Y-2.1875
X1.655Y-0.7875
X1.655Y-0.8875
X1.655Y-0.9875
X1.655Y-1.0875
X1.655Y-1.1875
X1.655Y-1.2875
X1.655Y-1.3875
X1.655Y-1.4875
X1.655Y-1.5875
X1.655Y-1.6875
X1.655Y-1.7875
X1.655Y-1.8875
X1.655Y-1.9875
X1.655Y-2.0875
X1.655Y-2.1875
T4
X3.1675Y-2.0875
X3.1675Y-2.1875
X3.1675Y-2.2875
X3.17Y-0.625
X3.17Y-0.725
X3.17Y-0.825
T5
X3.6375Y-0.5775
X3.6375Y-0.6775
X3.6375Y-0.7775
X3.6375Y-2.075
X3.6375Y-2.175
X3.6375Y-2.275
T6
X0.135Y-0.2425
X0.3319Y-0.2425
T0
M30
