%TF.GenerationSoftware,KiCad,Pcbnew,(5.1.9-0-10_14)*%
%TF.CreationDate,2021-04-26T00:09:41-04:00*%
%TF.ProjectId,randall-LM358-5-12V-amp,72616e64-616c-46c2-9d4c-4d3335382d35,rev?*%
%TF.SameCoordinates,PX4f16d38PY3a51524*%
%TF.FileFunction,Soldermask,Bot*%
%TF.FilePolarity,Negative*%
%FSLAX46Y46*%
G04 Gerber Fmt 4.6, Leading zero omitted, Abs format (unit mm)*
G04 Created by KiCad (PCBNEW (5.1.9-0-10_14)) date 2021-04-26 00:09:41*
%MOMM*%
%LPD*%
G01*
G04 APERTURE LIST*
%ADD10C,0.100000*%
%TA.AperFunction,Profile*%
%ADD11C,0.100000*%
%TD*%
%ADD12O,2.000000X1.500000*%
%ADD13O,1.600000X1.600000*%
%ADD14R,1.600000X1.600000*%
%ADD15O,2.000000X2.000000*%
%ADD16C,2.000000*%
%ADD17O,1.980000X3.960000*%
%ADD18R,1.980000X3.960000*%
%ADD19O,1.800000X1.800000*%
%ADD20R,1.800000X1.800000*%
%ADD21C,1.600000*%
%ADD22O,2.000000X1.905000*%
%ADD23R,2.000000X1.905000*%
%ADD24O,2.190000X1.740000*%
G04 APERTURE END LIST*
D10*
G36*
X14859000Y-76009500D02*
G01*
X-381000Y-76009500D01*
X-381000Y-60769500D01*
X14859000Y-76009500D01*
G37*
X14859000Y-76009500D02*
X-381000Y-76009500D01*
X-381000Y-60769500D01*
X14859000Y-76009500D01*
D11*
X99949000Y1460500D02*
X99949000Y-76009500D01*
X-381000Y1460500D02*
X99949000Y1460500D01*
X-381000Y-76009500D02*
X-381000Y1460500D01*
X99949000Y-76009500D02*
X-381000Y-76009500D01*
D12*
%TO.C,U3*%
X24257000Y-55562500D03*
X42037000Y-55562500D03*
X24257000Y-53022500D03*
X42037000Y-53022500D03*
X24257000Y-50482500D03*
X42037000Y-50482500D03*
X24257000Y-47942500D03*
X42037000Y-47942500D03*
X24257000Y-45402500D03*
X42037000Y-45402500D03*
X24257000Y-42862500D03*
X42037000Y-42862500D03*
X24257000Y-40322500D03*
X42037000Y-40322500D03*
X24257000Y-37782500D03*
X42037000Y-37782500D03*
X24257000Y-35242500D03*
X42037000Y-35242500D03*
X24257000Y-32702500D03*
X42037000Y-32702500D03*
X24257000Y-30162500D03*
X42037000Y-30162500D03*
X24257000Y-27622500D03*
X42037000Y-27622500D03*
X24257000Y-25082500D03*
X42037000Y-25082500D03*
X24257000Y-22542500D03*
X42037000Y-22542500D03*
X24257000Y-20002500D03*
X42037000Y-20002500D03*
%TD*%
D13*
%TO.C,U1*%
X5334000Y-28194000D03*
X12954000Y-35814000D03*
X7874000Y-28194000D03*
X10414000Y-35814000D03*
X10414000Y-28194000D03*
X7874000Y-35814000D03*
X12954000Y-28194000D03*
D14*
X5334000Y-35814000D03*
%TD*%
D15*
%TO.C,L1*%
X18669000Y-29019500D03*
D16*
X18669000Y-34099500D03*
%TD*%
D17*
%TO.C,J1*%
X8429000Y-6159500D03*
D18*
X3429000Y-6159500D03*
%TD*%
D19*
%TO.C,D1*%
X5651500Y-41338500D03*
D20*
X13271500Y-41338500D03*
%TD*%
D21*
%TO.C,C5*%
X63563500Y-50197000D03*
D14*
X63563500Y-52197000D03*
%TD*%
D21*
%TO.C,C4*%
X63563500Y-57817000D03*
D14*
X63563500Y-59817000D03*
%TD*%
D21*
%TO.C,C3*%
X18669000Y-23209500D03*
D14*
X18669000Y-25209500D03*
%TD*%
D16*
%TO.C,C2*%
X2794000Y-20764500D03*
X7794000Y-20764500D03*
%TD*%
D21*
%TO.C,C1*%
X13589000Y-20701000D03*
D14*
X11589000Y-20701000D03*
%TD*%
D13*
%TO.C,U2*%
X61849000Y-15049500D03*
X54229000Y-22669500D03*
X61849000Y-17589500D03*
X54229000Y-20129500D03*
X61849000Y-20129500D03*
X54229000Y-17589500D03*
X61849000Y-22669500D03*
D14*
X54229000Y-15049500D03*
%TD*%
D13*
%TO.C,R10*%
X92329000Y-25209500D03*
D21*
X92329000Y-32829500D03*
%TD*%
D13*
%TO.C,R8*%
X61658500Y-30607000D03*
D21*
X69278500Y-30607000D03*
%TD*%
D13*
%TO.C,R7*%
X69278500Y-37592000D03*
D21*
X61658500Y-37592000D03*
%TD*%
D13*
%TO.C,R6*%
X61658500Y-43942000D03*
D21*
X69278500Y-43942000D03*
%TD*%
D13*
%TO.C,R9*%
X49593500Y-52197000D03*
D21*
X57213500Y-52197000D03*
%TD*%
D13*
%TO.C,R5*%
X92329000Y-63436500D03*
D21*
X92329000Y-71056500D03*
%TD*%
D13*
%TO.C,R3*%
X56578500Y-30607000D03*
D21*
X48958500Y-30607000D03*
%TD*%
D13*
%TO.C,R2*%
X48958500Y-37592000D03*
D21*
X56578500Y-37592000D03*
%TD*%
D13*
%TO.C,R1*%
X56578500Y-43942000D03*
D21*
X48958500Y-43942000D03*
%TD*%
D13*
%TO.C,R4*%
X49593500Y-59817000D03*
D21*
X57213500Y-59817000D03*
%TD*%
D22*
%TO.C,Q2*%
X80518000Y-20955000D03*
X80518000Y-18415000D03*
D23*
X80518000Y-15875000D03*
%TD*%
D22*
%TO.C,Q1*%
X80454500Y-58102500D03*
X80454500Y-55562500D03*
D23*
X80454500Y-53022500D03*
%TD*%
D24*
%TO.C,FAN2*%
X92392500Y-19748500D03*
X92392500Y-17208500D03*
G36*
G01*
X91547499Y-13798500D02*
X93237501Y-13798500D01*
G75*
G02*
X93487500Y-14048499I0J-249999D01*
G01*
X93487500Y-15288501D01*
G75*
G02*
X93237501Y-15538500I-249999J0D01*
G01*
X91547499Y-15538500D01*
G75*
G02*
X91297500Y-15288501I0J249999D01*
G01*
X91297500Y-14048499D01*
G75*
G02*
X91547499Y-13798500I249999J0D01*
G01*
G37*
%TD*%
%TO.C,FAN1*%
X92392500Y-57785000D03*
X92392500Y-55245000D03*
G36*
G01*
X91547499Y-51835000D02*
X93237501Y-51835000D01*
G75*
G02*
X93487500Y-52084999I0J-249999D01*
G01*
X93487500Y-53325001D01*
G75*
G02*
X93237501Y-53575000I-249999J0D01*
G01*
X91547499Y-53575000D01*
G75*
G02*
X91297500Y-53325001I0J249999D01*
G01*
X91297500Y-52084999D01*
G75*
G02*
X91547499Y-51835000I249999J0D01*
G01*
G37*
%TD*%
D19*
%TO.C,D3*%
X92265500Y-9525000D03*
D20*
X92265500Y-1905000D03*
%TD*%
D19*
%TO.C,D2*%
X92329000Y-46799500D03*
D20*
X92329000Y-39179500D03*
%TD*%
M02*
