M48
; DRILL file {KiCad (5.1.9-0-10_14)} date Monday, April 26, 2021 at 12:07:13 AM
; FORMAT={-:-/ absolute / inch / decimal}
; #@! TF.CreationDate,2021-04-26T00:07:13-04:00
; #@! TF.GenerationSoftware,Kicad,Pcbnew,(5.1.9-0-10_14)
FMAT,2
INCH
T1C0.0315
T2C0.0354
T3C0.0394
T4C0.0433
T5C0.0469
T6C0.0520
%
G90
G05
T1
X3.475Y-3.5175
X3.475Y-3.8175
X3.575Y-3.5175
X3.575Y-3.8175
X3.675Y-3.5175
X3.675Y-3.8175
X3.7213Y-3.2225
X3.775Y-3.5175
X3.775Y-3.8175
X3.8Y-3.2225
X4.0Y-3.3213
X4.0Y-3.4
X5.1925Y-3.6125
X5.1925Y-3.8875
X5.1925Y-4.1375
X5.2175Y-4.4625
X5.2175Y-4.7625
X5.4Y-3.0
X5.4Y-3.1
X5.4Y-3.2
X5.4Y-3.3
X5.4925Y-3.6125
X5.4925Y-3.8875
X5.4925Y-4.1375
X5.5175Y-4.4625
X5.5175Y-4.7625
X5.6925Y-3.6125
X5.6925Y-3.8875
X5.6925Y-4.1375
X5.7Y-3.0
X5.7Y-3.1
X5.7Y-3.2
X5.7Y-3.3
X5.7675Y-4.3838
X5.7675Y-4.4625
X5.7675Y-4.6838
X5.7675Y-4.7625
X5.9925Y-3.6125
X5.9925Y-3.8875
X5.9925Y-4.1375
X6.9Y-3.4
X6.9Y-3.7
X6.9Y-4.905
X6.9Y-5.205
T2
X3.4875Y-4.035
X3.7875Y-4.035
X6.8975Y-2.4825
X6.8975Y-2.7825
X6.9Y-3.95
X6.9Y-4.25
T3
X3.375Y-3.225
X3.5719Y-3.225
X4.0Y-3.55
X4.0Y-3.75
X4.22Y-3.195
X4.22Y-3.295
X4.22Y-3.395
X4.22Y-3.495
X4.22Y-3.595
X4.22Y-3.695
X4.22Y-3.795
X4.22Y-3.895
X4.22Y-3.995
X4.22Y-4.095
X4.22Y-4.195
X4.22Y-4.295
X4.22Y-4.395
X4.22Y-4.495
X4.22Y-4.595
X4.92Y-3.195
X4.92Y-3.295
X4.92Y-3.395
X4.92Y-3.495
X4.92Y-3.595
X4.92Y-3.695
X4.92Y-3.795
X4.92Y-3.895
X4.92Y-3.995
X4.92Y-4.095
X4.92Y-4.195
X4.92Y-4.295
X4.92Y-4.395
X4.92Y-4.495
X4.92Y-4.595
T4
X6.4325Y-4.495
X6.4325Y-4.595
X6.4325Y-4.695
X6.435Y-3.0325
X6.435Y-3.1325
X6.435Y-3.2325
T5
X6.9025Y-2.985
X6.9025Y-3.085
X6.9025Y-3.185
X6.9025Y-4.4825
X6.9025Y-4.5825
X6.9025Y-4.6825
T6
X3.4Y-2.65
X3.5969Y-2.65
T0
M30
