%TF.GenerationSoftware,KiCad,Pcbnew,(5.1.9-0-10_14)*%
%TF.CreationDate,2021-04-26T00:09:41-04:00*%
%TF.ProjectId,randall-LM358-5-12V-amp,72616e64-616c-46c2-9d4c-4d3335382d35,rev?*%
%TF.SameCoordinates,PX4f16d38PY3a51524*%
%TF.FileFunction,Legend,Top*%
%TF.FilePolarity,Positive*%
%FSLAX46Y46*%
G04 Gerber Fmt 4.6, Leading zero omitted, Abs format (unit mm)*
G04 Created by KiCad (PCBNEW (5.1.9-0-10_14)) date 2021-04-26 00:09:41*
%MOMM*%
%LPD*%
G01*
G04 APERTURE LIST*
%ADD10C,0.152400*%
%TA.AperFunction,Profile*%
%ADD11C,0.100000*%
%TD*%
%ADD12C,0.150000*%
%ADD13C,0.120000*%
G04 APERTURE END LIST*
D10*
X21966040Y-9067195D02*
X21695107Y-8680147D01*
X21501583Y-9067195D02*
X21501583Y-8254395D01*
X21811221Y-8254395D01*
X21888631Y-8293100D01*
X21927336Y-8331804D01*
X21966040Y-8409214D01*
X21966040Y-8525328D01*
X21927336Y-8602738D01*
X21888631Y-8641442D01*
X21811221Y-8680147D01*
X21501583Y-8680147D01*
X22662726Y-9067195D02*
X22662726Y-8641442D01*
X22624021Y-8564033D01*
X22546612Y-8525328D01*
X22391793Y-8525328D01*
X22314383Y-8564033D01*
X22662726Y-9028490D02*
X22585317Y-9067195D01*
X22391793Y-9067195D01*
X22314383Y-9028490D01*
X22275679Y-8951080D01*
X22275679Y-8873671D01*
X22314383Y-8796261D01*
X22391793Y-8757557D01*
X22585317Y-8757557D01*
X22662726Y-8718852D01*
X23049774Y-8525328D02*
X23049774Y-9067195D01*
X23049774Y-8602738D02*
X23088479Y-8564033D01*
X23165888Y-8525328D01*
X23282002Y-8525328D01*
X23359412Y-8564033D01*
X23398117Y-8641442D01*
X23398117Y-9067195D01*
X24133507Y-9067195D02*
X24133507Y-8254395D01*
X24133507Y-9028490D02*
X24056098Y-9067195D01*
X23901279Y-9067195D01*
X23823869Y-9028490D01*
X23785164Y-8989785D01*
X23746460Y-8912376D01*
X23746460Y-8680147D01*
X23785164Y-8602738D01*
X23823869Y-8564033D01*
X23901279Y-8525328D01*
X24056098Y-8525328D01*
X24133507Y-8564033D01*
X24868898Y-9067195D02*
X24868898Y-8641442D01*
X24830193Y-8564033D01*
X24752783Y-8525328D01*
X24597964Y-8525328D01*
X24520555Y-8564033D01*
X24868898Y-9028490D02*
X24791488Y-9067195D01*
X24597964Y-9067195D01*
X24520555Y-9028490D01*
X24481850Y-8951080D01*
X24481850Y-8873671D01*
X24520555Y-8796261D01*
X24597964Y-8757557D01*
X24791488Y-8757557D01*
X24868898Y-8718852D01*
X25372060Y-9067195D02*
X25294650Y-9028490D01*
X25255945Y-8951080D01*
X25255945Y-8254395D01*
X25797812Y-9067195D02*
X25720402Y-9028490D01*
X25681698Y-8951080D01*
X25681698Y-8254395D01*
X26688021Y-9028490D02*
X26804136Y-9067195D01*
X26997660Y-9067195D01*
X27075069Y-9028490D01*
X27113774Y-8989785D01*
X27152479Y-8912376D01*
X27152479Y-8834966D01*
X27113774Y-8757557D01*
X27075069Y-8718852D01*
X26997660Y-8680147D01*
X26842840Y-8641442D01*
X26765431Y-8602738D01*
X26726726Y-8564033D01*
X26688021Y-8486623D01*
X26688021Y-8409214D01*
X26726726Y-8331804D01*
X26765431Y-8293100D01*
X26842840Y-8254395D01*
X27036364Y-8254395D01*
X27152479Y-8293100D01*
X27500821Y-9067195D02*
X27500821Y-8254395D01*
X27849164Y-9067195D02*
X27849164Y-8641442D01*
X27810460Y-8564033D01*
X27733050Y-8525328D01*
X27616936Y-8525328D01*
X27539526Y-8564033D01*
X27500821Y-8602738D01*
X28584555Y-8525328D02*
X28584555Y-9067195D01*
X28236212Y-8525328D02*
X28236212Y-8951080D01*
X28274917Y-9028490D01*
X28352326Y-9067195D01*
X28468440Y-9067195D01*
X28545850Y-9028490D01*
X28584555Y-8989785D01*
X28855488Y-8525328D02*
X29165126Y-8525328D01*
X28971602Y-8254395D02*
X28971602Y-8951080D01*
X29010307Y-9028490D01*
X29087717Y-9067195D01*
X29165126Y-9067195D01*
X29319945Y-8525328D02*
X29629583Y-8525328D01*
X29436060Y-8254395D02*
X29436060Y-8951080D01*
X29474764Y-9028490D01*
X29552174Y-9067195D01*
X29629583Y-9067195D01*
X21385469Y-5714395D02*
X21656402Y-6527195D01*
X21927336Y-5714395D01*
X22507907Y-6488490D02*
X22430498Y-6527195D01*
X22275679Y-6527195D01*
X22198269Y-6488490D01*
X22159564Y-6411080D01*
X22159564Y-6101442D01*
X22198269Y-6024033D01*
X22275679Y-5985328D01*
X22430498Y-5985328D01*
X22507907Y-6024033D01*
X22546612Y-6101442D01*
X22546612Y-6178852D01*
X22159564Y-6256261D01*
X22894955Y-6527195D02*
X22894955Y-5985328D01*
X22894955Y-6140147D02*
X22933660Y-6062738D01*
X22972364Y-6024033D01*
X23049774Y-5985328D01*
X23127183Y-5985328D01*
X23359412Y-6488490D02*
X23436821Y-6527195D01*
X23591640Y-6527195D01*
X23669050Y-6488490D01*
X23707755Y-6411080D01*
X23707755Y-6372376D01*
X23669050Y-6294966D01*
X23591640Y-6256261D01*
X23475526Y-6256261D01*
X23398117Y-6217557D01*
X23359412Y-6140147D01*
X23359412Y-6101442D01*
X23398117Y-6024033D01*
X23475526Y-5985328D01*
X23591640Y-5985328D01*
X23669050Y-6024033D01*
X24056098Y-6527195D02*
X24056098Y-5985328D01*
X24056098Y-5714395D02*
X24017393Y-5753100D01*
X24056098Y-5791804D01*
X24094802Y-5753100D01*
X24056098Y-5714395D01*
X24056098Y-5791804D01*
X24559260Y-6527195D02*
X24481850Y-6488490D01*
X24443145Y-6449785D01*
X24404440Y-6372376D01*
X24404440Y-6140147D01*
X24443145Y-6062738D01*
X24481850Y-6024033D01*
X24559260Y-5985328D01*
X24675374Y-5985328D01*
X24752783Y-6024033D01*
X24791488Y-6062738D01*
X24830193Y-6140147D01*
X24830193Y-6372376D01*
X24791488Y-6449785D01*
X24752783Y-6488490D01*
X24675374Y-6527195D01*
X24559260Y-6527195D01*
X25178536Y-5985328D02*
X25178536Y-6527195D01*
X25178536Y-6062738D02*
X25217240Y-6024033D01*
X25294650Y-5985328D01*
X25410764Y-5985328D01*
X25488174Y-6024033D01*
X25526879Y-6101442D01*
X25526879Y-6527195D01*
X26688021Y-5714395D02*
X26765431Y-5714395D01*
X26842840Y-5753100D01*
X26881545Y-5791804D01*
X26920250Y-5869214D01*
X26958955Y-6024033D01*
X26958955Y-6217557D01*
X26920250Y-6372376D01*
X26881545Y-6449785D01*
X26842840Y-6488490D01*
X26765431Y-6527195D01*
X26688021Y-6527195D01*
X26610612Y-6488490D01*
X26571907Y-6449785D01*
X26533202Y-6372376D01*
X26494498Y-6217557D01*
X26494498Y-6024033D01*
X26533202Y-5869214D01*
X26571907Y-5791804D01*
X26610612Y-5753100D01*
X26688021Y-5714395D01*
X27307298Y-6449785D02*
X27346002Y-6488490D01*
X27307298Y-6527195D01*
X27268593Y-6488490D01*
X27307298Y-6449785D01*
X27307298Y-6527195D01*
X27849164Y-5714395D02*
X27926574Y-5714395D01*
X28003983Y-5753100D01*
X28042688Y-5791804D01*
X28081393Y-5869214D01*
X28120098Y-6024033D01*
X28120098Y-6217557D01*
X28081393Y-6372376D01*
X28042688Y-6449785D01*
X28003983Y-6488490D01*
X27926574Y-6527195D01*
X27849164Y-6527195D01*
X27771755Y-6488490D01*
X27733050Y-6449785D01*
X27694345Y-6372376D01*
X27655640Y-6217557D01*
X27655640Y-6024033D01*
X27694345Y-5869214D01*
X27733050Y-5791804D01*
X27771755Y-5753100D01*
X27849164Y-5714395D01*
X28468440Y-6449785D02*
X28507145Y-6488490D01*
X28468440Y-6527195D01*
X28429736Y-6488490D01*
X28468440Y-6449785D01*
X28468440Y-6527195D01*
X29281240Y-6527195D02*
X28816783Y-6527195D01*
X29049012Y-6527195D02*
X29049012Y-5714395D01*
X28971602Y-5830509D01*
X28894193Y-5907919D01*
X28816783Y-5946623D01*
X21772517Y-3561442D02*
X21501583Y-3561442D01*
X21501583Y-3987195D02*
X21501583Y-3174395D01*
X21888631Y-3174395D01*
X22546612Y-3987195D02*
X22546612Y-3561442D01*
X22507907Y-3484033D01*
X22430498Y-3445328D01*
X22275679Y-3445328D01*
X22198269Y-3484033D01*
X22546612Y-3948490D02*
X22469202Y-3987195D01*
X22275679Y-3987195D01*
X22198269Y-3948490D01*
X22159564Y-3871080D01*
X22159564Y-3793671D01*
X22198269Y-3716261D01*
X22275679Y-3677557D01*
X22469202Y-3677557D01*
X22546612Y-3638852D01*
X22933660Y-3445328D02*
X22933660Y-3987195D01*
X22933660Y-3522738D02*
X22972364Y-3484033D01*
X23049774Y-3445328D01*
X23165888Y-3445328D01*
X23243298Y-3484033D01*
X23282002Y-3561442D01*
X23282002Y-3987195D01*
X24752783Y-3909785D02*
X24714079Y-3948490D01*
X24597964Y-3987195D01*
X24520555Y-3987195D01*
X24404440Y-3948490D01*
X24327031Y-3871080D01*
X24288326Y-3793671D01*
X24249621Y-3638852D01*
X24249621Y-3522738D01*
X24288326Y-3367919D01*
X24327031Y-3290509D01*
X24404440Y-3213100D01*
X24520555Y-3174395D01*
X24597964Y-3174395D01*
X24714079Y-3213100D01*
X24752783Y-3251804D01*
X25217240Y-3987195D02*
X25139831Y-3948490D01*
X25101126Y-3909785D01*
X25062421Y-3832376D01*
X25062421Y-3600147D01*
X25101126Y-3522738D01*
X25139831Y-3484033D01*
X25217240Y-3445328D01*
X25333355Y-3445328D01*
X25410764Y-3484033D01*
X25449469Y-3522738D01*
X25488174Y-3600147D01*
X25488174Y-3832376D01*
X25449469Y-3909785D01*
X25410764Y-3948490D01*
X25333355Y-3987195D01*
X25217240Y-3987195D01*
X25836517Y-3445328D02*
X25836517Y-3987195D01*
X25836517Y-3522738D02*
X25875221Y-3484033D01*
X25952631Y-3445328D01*
X26068745Y-3445328D01*
X26146155Y-3484033D01*
X26184860Y-3561442D01*
X26184860Y-3987195D01*
X26455793Y-3445328D02*
X26765431Y-3445328D01*
X26571907Y-3174395D02*
X26571907Y-3871080D01*
X26610612Y-3948490D01*
X26688021Y-3987195D01*
X26765431Y-3987195D01*
X27036364Y-3987195D02*
X27036364Y-3445328D01*
X27036364Y-3600147D02*
X27075069Y-3522738D01*
X27113774Y-3484033D01*
X27191183Y-3445328D01*
X27268593Y-3445328D01*
X27655640Y-3987195D02*
X27578231Y-3948490D01*
X27539526Y-3909785D01*
X27500821Y-3832376D01*
X27500821Y-3600147D01*
X27539526Y-3522738D01*
X27578231Y-3484033D01*
X27655640Y-3445328D01*
X27771755Y-3445328D01*
X27849164Y-3484033D01*
X27887869Y-3522738D01*
X27926574Y-3600147D01*
X27926574Y-3832376D01*
X27887869Y-3909785D01*
X27849164Y-3948490D01*
X27771755Y-3987195D01*
X27655640Y-3987195D01*
X28391031Y-3987195D02*
X28313621Y-3948490D01*
X28274917Y-3871080D01*
X28274917Y-3174395D01*
X28816783Y-3987195D02*
X28739374Y-3948490D01*
X28700669Y-3871080D01*
X28700669Y-3174395D01*
X29436060Y-3948490D02*
X29358650Y-3987195D01*
X29203831Y-3987195D01*
X29126421Y-3948490D01*
X29087717Y-3871080D01*
X29087717Y-3561442D01*
X29126421Y-3484033D01*
X29203831Y-3445328D01*
X29358650Y-3445328D01*
X29436060Y-3484033D01*
X29474764Y-3561442D01*
X29474764Y-3638852D01*
X29087717Y-3716261D01*
X29823107Y-3987195D02*
X29823107Y-3445328D01*
X29823107Y-3600147D02*
X29861812Y-3522738D01*
X29900517Y-3484033D01*
X29977926Y-3445328D01*
X30055336Y-3445328D01*
X31216479Y-3561442D02*
X31332593Y-3600147D01*
X31371298Y-3638852D01*
X31410002Y-3716261D01*
X31410002Y-3832376D01*
X31371298Y-3909785D01*
X31332593Y-3948490D01*
X31255183Y-3987195D01*
X30945545Y-3987195D01*
X30945545Y-3174395D01*
X31216479Y-3174395D01*
X31293888Y-3213100D01*
X31332593Y-3251804D01*
X31371298Y-3329214D01*
X31371298Y-3406623D01*
X31332593Y-3484033D01*
X31293888Y-3522738D01*
X31216479Y-3561442D01*
X30945545Y-3561442D01*
X31874460Y-3987195D02*
X31797050Y-3948490D01*
X31758345Y-3909785D01*
X31719640Y-3832376D01*
X31719640Y-3600147D01*
X31758345Y-3522738D01*
X31797050Y-3484033D01*
X31874460Y-3445328D01*
X31990574Y-3445328D01*
X32067983Y-3484033D01*
X32106688Y-3522738D01*
X32145393Y-3600147D01*
X32145393Y-3832376D01*
X32106688Y-3909785D01*
X32067983Y-3948490D01*
X31990574Y-3987195D01*
X31874460Y-3987195D01*
X32842079Y-3987195D02*
X32842079Y-3561442D01*
X32803374Y-3484033D01*
X32725964Y-3445328D01*
X32571145Y-3445328D01*
X32493736Y-3484033D01*
X32842079Y-3948490D02*
X32764669Y-3987195D01*
X32571145Y-3987195D01*
X32493736Y-3948490D01*
X32455031Y-3871080D01*
X32455031Y-3793671D01*
X32493736Y-3716261D01*
X32571145Y-3677557D01*
X32764669Y-3677557D01*
X32842079Y-3638852D01*
X33229126Y-3987195D02*
X33229126Y-3445328D01*
X33229126Y-3600147D02*
X33267831Y-3522738D01*
X33306536Y-3484033D01*
X33383945Y-3445328D01*
X33461355Y-3445328D01*
X34080631Y-3987195D02*
X34080631Y-3174395D01*
X34080631Y-3948490D02*
X34003221Y-3987195D01*
X33848402Y-3987195D01*
X33770993Y-3948490D01*
X33732288Y-3909785D01*
X33693583Y-3832376D01*
X33693583Y-3600147D01*
X33732288Y-3522738D01*
X33770993Y-3484033D01*
X33848402Y-3445328D01*
X34003221Y-3445328D01*
X34080631Y-3484033D01*
X7889723Y-13373100D02*
X7812314Y-13334395D01*
X7696200Y-13334395D01*
X7580085Y-13373100D01*
X7502676Y-13450509D01*
X7463971Y-13527919D01*
X7425266Y-13682738D01*
X7425266Y-13798852D01*
X7463971Y-13953671D01*
X7502676Y-14031080D01*
X7580085Y-14108490D01*
X7696200Y-14147195D01*
X7773609Y-14147195D01*
X7889723Y-14108490D01*
X7928428Y-14069785D01*
X7928428Y-13798852D01*
X7773609Y-13798852D01*
X8276771Y-14147195D02*
X8276771Y-13334395D01*
X8741228Y-14147195D01*
X8741228Y-13334395D01*
X9128276Y-14147195D02*
X9128276Y-13334395D01*
X9321800Y-13334395D01*
X9437914Y-13373100D01*
X9515323Y-13450509D01*
X9554028Y-13527919D01*
X9592733Y-13682738D01*
X9592733Y-13798852D01*
X9554028Y-13953671D01*
X9515323Y-14031080D01*
X9437914Y-14108490D01*
X9321800Y-14147195D01*
X9128276Y-14147195D01*
X2113038Y-14147195D02*
X1648580Y-14147195D01*
X1880809Y-14147195D02*
X1880809Y-13334395D01*
X1803400Y-13450509D01*
X1725990Y-13527919D01*
X1648580Y-13566623D01*
X2848428Y-13334395D02*
X2461380Y-13334395D01*
X2422676Y-13721442D01*
X2461380Y-13682738D01*
X2538790Y-13644033D01*
X2732314Y-13644033D01*
X2809723Y-13682738D01*
X2848428Y-13721442D01*
X2887133Y-13798852D01*
X2887133Y-13992376D01*
X2848428Y-14069785D01*
X2809723Y-14108490D01*
X2732314Y-14147195D01*
X2538790Y-14147195D01*
X2461380Y-14108490D01*
X2422676Y-14069785D01*
X3119361Y-13334395D02*
X3390295Y-14147195D01*
X3661228Y-13334395D01*
X3932161Y-14147195D02*
X3932161Y-13334395D01*
X4125685Y-13334395D01*
X4241800Y-13373100D01*
X4319209Y-13450509D01*
X4357914Y-13527919D01*
X4396619Y-13682738D01*
X4396619Y-13798852D01*
X4357914Y-13953671D01*
X4319209Y-14031080D01*
X4241800Y-14108490D01*
X4125685Y-14147195D01*
X3932161Y-14147195D01*
X5209419Y-14069785D02*
X5170714Y-14108490D01*
X5054600Y-14147195D01*
X4977190Y-14147195D01*
X4861076Y-14108490D01*
X4783666Y-14031080D01*
X4744961Y-13953671D01*
X4706257Y-13798852D01*
X4706257Y-13682738D01*
X4744961Y-13527919D01*
X4783666Y-13450509D01*
X4861076Y-13373100D01*
X4977190Y-13334395D01*
X5054600Y-13334395D01*
X5170714Y-13373100D01*
X5209419Y-13411804D01*
D11*
X99949000Y1460500D02*
X99949000Y-76009500D01*
X-381000Y1460500D02*
X99949000Y1460500D01*
X-381000Y-76009500D02*
X-381000Y1460500D01*
X99949000Y-76009500D02*
X-381000Y-76009500D01*
D12*
%TO.C,U3*%
X22757001Y-18752500D02*
X22757000Y-56812500D01*
X22757000Y-56812500D02*
X43536999Y-56812500D01*
X43536999Y-56812500D02*
X43537000Y-18752500D01*
X43537000Y-18752500D02*
X36610333Y-18752500D01*
X36610333Y-18752500D02*
X36610333Y-19202500D01*
X36610333Y-19202500D02*
X29683667Y-19202500D01*
X29683667Y-19202500D02*
X29683667Y-18752500D01*
X29683667Y-18752500D02*
X22757001Y-18752500D01*
D13*
%TO.C,U1*%
X4004000Y-33004000D02*
X4004000Y-34654000D01*
X4004000Y-34654000D02*
X14284000Y-34654000D01*
X14284000Y-34654000D02*
X14284000Y-29354000D01*
X14284000Y-29354000D02*
X4004000Y-29354000D01*
X4004000Y-29354000D02*
X4004000Y-31004000D01*
X3944000Y-37144000D02*
X14344000Y-37144000D01*
X14344000Y-37144000D02*
X14344000Y-26864000D01*
X14344000Y-26864000D02*
X3944000Y-26864000D01*
X3944000Y-26864000D02*
X3944000Y-37144000D01*
X4004000Y-31004000D02*
G75*
G02*
X4004000Y-33004000I0J-1000000D01*
G01*
%TO.C,L1*%
X21039000Y-34099500D02*
G75*
G03*
X21039000Y-34099500I-2370000J0D01*
G01*
X18669000Y-31729500D02*
X18669000Y-30319500D01*
%TO.C,J1*%
X779000Y140500D02*
X779000Y-12459500D01*
X779000Y-12459500D02*
X11129000Y-12459500D01*
X11129000Y-12459500D02*
X11129000Y-11509500D01*
X11129000Y-11509500D02*
X11629000Y-11759500D01*
X11629000Y-11759500D02*
X11629000Y-9859500D01*
X11629000Y-9859500D02*
X11629000Y-9809500D01*
X11629000Y-9809500D02*
X11129000Y-10059500D01*
X11129000Y-10059500D02*
X11129000Y-4659500D01*
X11129000Y-4659500D02*
X11629000Y-4959500D01*
X11629000Y-4959500D02*
X11629000Y140500D01*
X11629000Y140500D02*
X779000Y140500D01*
%TO.C,D1*%
X12181500Y-42478500D02*
X12181500Y-42808500D01*
X12181500Y-42808500D02*
X6741500Y-42808500D01*
X6741500Y-42808500D02*
X6741500Y-42478500D01*
X12181500Y-40198500D02*
X12181500Y-39868500D01*
X12181500Y-39868500D02*
X6741500Y-39868500D01*
X6741500Y-39868500D02*
X6741500Y-40198500D01*
X11281500Y-42808500D02*
X11281500Y-39868500D01*
X11161500Y-42808500D02*
X11161500Y-39868500D01*
X11401500Y-42808500D02*
X11401500Y-39868500D01*
%TO.C,C5*%
X66183500Y-51197000D02*
G75*
G03*
X66183500Y-51197000I-2620000J0D01*
G01*
X64603500Y-51197000D02*
X66143500Y-51197000D01*
X60983500Y-51197000D02*
X62523500Y-51197000D01*
X64603500Y-51157000D02*
X66143500Y-51157000D01*
X60983500Y-51157000D02*
X62523500Y-51157000D01*
X60984500Y-51117000D02*
X62523500Y-51117000D01*
X64603500Y-51117000D02*
X66142500Y-51117000D01*
X60985500Y-51077000D02*
X62523500Y-51077000D01*
X64603500Y-51077000D02*
X66141500Y-51077000D01*
X60987500Y-51037000D02*
X62523500Y-51037000D01*
X64603500Y-51037000D02*
X66139500Y-51037000D01*
X60990500Y-50997000D02*
X62523500Y-50997000D01*
X64603500Y-50997000D02*
X66136500Y-50997000D01*
X60994500Y-50957000D02*
X62523500Y-50957000D01*
X64603500Y-50957000D02*
X66132500Y-50957000D01*
X60998500Y-50917000D02*
X62523500Y-50917000D01*
X64603500Y-50917000D02*
X66128500Y-50917000D01*
X61002500Y-50877000D02*
X62523500Y-50877000D01*
X64603500Y-50877000D02*
X66124500Y-50877000D01*
X61007500Y-50837000D02*
X62523500Y-50837000D01*
X64603500Y-50837000D02*
X66119500Y-50837000D01*
X61013500Y-50797000D02*
X62523500Y-50797000D01*
X64603500Y-50797000D02*
X66113500Y-50797000D01*
X61020500Y-50757000D02*
X62523500Y-50757000D01*
X64603500Y-50757000D02*
X66106500Y-50757000D01*
X61027500Y-50717000D02*
X62523500Y-50717000D01*
X64603500Y-50717000D02*
X66099500Y-50717000D01*
X61035500Y-50677000D02*
X62523500Y-50677000D01*
X64603500Y-50677000D02*
X66091500Y-50677000D01*
X61043500Y-50637000D02*
X62523500Y-50637000D01*
X64603500Y-50637000D02*
X66083500Y-50637000D01*
X61052500Y-50597000D02*
X62523500Y-50597000D01*
X64603500Y-50597000D02*
X66074500Y-50597000D01*
X61062500Y-50557000D02*
X62523500Y-50557000D01*
X64603500Y-50557000D02*
X66064500Y-50557000D01*
X61072500Y-50517000D02*
X62523500Y-50517000D01*
X64603500Y-50517000D02*
X66054500Y-50517000D01*
X61083500Y-50476000D02*
X62523500Y-50476000D01*
X64603500Y-50476000D02*
X66043500Y-50476000D01*
X61095500Y-50436000D02*
X62523500Y-50436000D01*
X64603500Y-50436000D02*
X66031500Y-50436000D01*
X61108500Y-50396000D02*
X62523500Y-50396000D01*
X64603500Y-50396000D02*
X66018500Y-50396000D01*
X61121500Y-50356000D02*
X62523500Y-50356000D01*
X64603500Y-50356000D02*
X66005500Y-50356000D01*
X61135500Y-50316000D02*
X62523500Y-50316000D01*
X64603500Y-50316000D02*
X65991500Y-50316000D01*
X61149500Y-50276000D02*
X62523500Y-50276000D01*
X64603500Y-50276000D02*
X65977500Y-50276000D01*
X61165500Y-50236000D02*
X62523500Y-50236000D01*
X64603500Y-50236000D02*
X65961500Y-50236000D01*
X61181500Y-50196000D02*
X62523500Y-50196000D01*
X64603500Y-50196000D02*
X65945500Y-50196000D01*
X61198500Y-50156000D02*
X62523500Y-50156000D01*
X64603500Y-50156000D02*
X65928500Y-50156000D01*
X61215500Y-50116000D02*
X62523500Y-50116000D01*
X64603500Y-50116000D02*
X65911500Y-50116000D01*
X61234500Y-50076000D02*
X62523500Y-50076000D01*
X64603500Y-50076000D02*
X65892500Y-50076000D01*
X61253500Y-50036000D02*
X62523500Y-50036000D01*
X64603500Y-50036000D02*
X65873500Y-50036000D01*
X61273500Y-49996000D02*
X62523500Y-49996000D01*
X64603500Y-49996000D02*
X65853500Y-49996000D01*
X61295500Y-49956000D02*
X62523500Y-49956000D01*
X64603500Y-49956000D02*
X65831500Y-49956000D01*
X61316500Y-49916000D02*
X62523500Y-49916000D01*
X64603500Y-49916000D02*
X65810500Y-49916000D01*
X61339500Y-49876000D02*
X62523500Y-49876000D01*
X64603500Y-49876000D02*
X65787500Y-49876000D01*
X61363500Y-49836000D02*
X62523500Y-49836000D01*
X64603500Y-49836000D02*
X65763500Y-49836000D01*
X61388500Y-49796000D02*
X62523500Y-49796000D01*
X64603500Y-49796000D02*
X65738500Y-49796000D01*
X61414500Y-49756000D02*
X62523500Y-49756000D01*
X64603500Y-49756000D02*
X65712500Y-49756000D01*
X61441500Y-49716000D02*
X62523500Y-49716000D01*
X64603500Y-49716000D02*
X65685500Y-49716000D01*
X61468500Y-49676000D02*
X62523500Y-49676000D01*
X64603500Y-49676000D02*
X65658500Y-49676000D01*
X61498500Y-49636000D02*
X62523500Y-49636000D01*
X64603500Y-49636000D02*
X65628500Y-49636000D01*
X61528500Y-49596000D02*
X62523500Y-49596000D01*
X64603500Y-49596000D02*
X65598500Y-49596000D01*
X61559500Y-49556000D02*
X62523500Y-49556000D01*
X64603500Y-49556000D02*
X65567500Y-49556000D01*
X61592500Y-49516000D02*
X62523500Y-49516000D01*
X64603500Y-49516000D02*
X65534500Y-49516000D01*
X61626500Y-49476000D02*
X62523500Y-49476000D01*
X64603500Y-49476000D02*
X65500500Y-49476000D01*
X61662500Y-49436000D02*
X62523500Y-49436000D01*
X64603500Y-49436000D02*
X65464500Y-49436000D01*
X61699500Y-49396000D02*
X62523500Y-49396000D01*
X64603500Y-49396000D02*
X65427500Y-49396000D01*
X61737500Y-49356000D02*
X62523500Y-49356000D01*
X64603500Y-49356000D02*
X65389500Y-49356000D01*
X61778500Y-49316000D02*
X62523500Y-49316000D01*
X64603500Y-49316000D02*
X65348500Y-49316000D01*
X61820500Y-49276000D02*
X62523500Y-49276000D01*
X64603500Y-49276000D02*
X65306500Y-49276000D01*
X61864500Y-49236000D02*
X62523500Y-49236000D01*
X64603500Y-49236000D02*
X65262500Y-49236000D01*
X61910500Y-49196000D02*
X62523500Y-49196000D01*
X64603500Y-49196000D02*
X65216500Y-49196000D01*
X61958500Y-49156000D02*
X65168500Y-49156000D01*
X62009500Y-49116000D02*
X65117500Y-49116000D01*
X62063500Y-49076000D02*
X65063500Y-49076000D01*
X62120500Y-49036000D02*
X65006500Y-49036000D01*
X62180500Y-48996000D02*
X64946500Y-48996000D01*
X62244500Y-48956000D02*
X64882500Y-48956000D01*
X62312500Y-48916000D02*
X64814500Y-48916000D01*
X62385500Y-48876000D02*
X64741500Y-48876000D01*
X62465500Y-48836000D02*
X64661500Y-48836000D01*
X62552500Y-48796000D02*
X64574500Y-48796000D01*
X62648500Y-48756000D02*
X64478500Y-48756000D01*
X62758500Y-48716000D02*
X64368500Y-48716000D01*
X62886500Y-48676000D02*
X64240500Y-48676000D01*
X63045500Y-48636000D02*
X64081500Y-48636000D01*
X63279500Y-48596000D02*
X63847500Y-48596000D01*
X62088500Y-54001775D02*
X62088500Y-53501775D01*
X61838500Y-53751775D02*
X62338500Y-53751775D01*
%TO.C,C4*%
X66183500Y-58817000D02*
G75*
G03*
X66183500Y-58817000I-2620000J0D01*
G01*
X64603500Y-58817000D02*
X66143500Y-58817000D01*
X60983500Y-58817000D02*
X62523500Y-58817000D01*
X64603500Y-58777000D02*
X66143500Y-58777000D01*
X60983500Y-58777000D02*
X62523500Y-58777000D01*
X60984500Y-58737000D02*
X62523500Y-58737000D01*
X64603500Y-58737000D02*
X66142500Y-58737000D01*
X60985500Y-58697000D02*
X62523500Y-58697000D01*
X64603500Y-58697000D02*
X66141500Y-58697000D01*
X60987500Y-58657000D02*
X62523500Y-58657000D01*
X64603500Y-58657000D02*
X66139500Y-58657000D01*
X60990500Y-58617000D02*
X62523500Y-58617000D01*
X64603500Y-58617000D02*
X66136500Y-58617000D01*
X60994500Y-58577000D02*
X62523500Y-58577000D01*
X64603500Y-58577000D02*
X66132500Y-58577000D01*
X60998500Y-58537000D02*
X62523500Y-58537000D01*
X64603500Y-58537000D02*
X66128500Y-58537000D01*
X61002500Y-58497000D02*
X62523500Y-58497000D01*
X64603500Y-58497000D02*
X66124500Y-58497000D01*
X61007500Y-58457000D02*
X62523500Y-58457000D01*
X64603500Y-58457000D02*
X66119500Y-58457000D01*
X61013500Y-58417000D02*
X62523500Y-58417000D01*
X64603500Y-58417000D02*
X66113500Y-58417000D01*
X61020500Y-58377000D02*
X62523500Y-58377000D01*
X64603500Y-58377000D02*
X66106500Y-58377000D01*
X61027500Y-58337000D02*
X62523500Y-58337000D01*
X64603500Y-58337000D02*
X66099500Y-58337000D01*
X61035500Y-58297000D02*
X62523500Y-58297000D01*
X64603500Y-58297000D02*
X66091500Y-58297000D01*
X61043500Y-58257000D02*
X62523500Y-58257000D01*
X64603500Y-58257000D02*
X66083500Y-58257000D01*
X61052500Y-58217000D02*
X62523500Y-58217000D01*
X64603500Y-58217000D02*
X66074500Y-58217000D01*
X61062500Y-58177000D02*
X62523500Y-58177000D01*
X64603500Y-58177000D02*
X66064500Y-58177000D01*
X61072500Y-58137000D02*
X62523500Y-58137000D01*
X64603500Y-58137000D02*
X66054500Y-58137000D01*
X61083500Y-58096000D02*
X62523500Y-58096000D01*
X64603500Y-58096000D02*
X66043500Y-58096000D01*
X61095500Y-58056000D02*
X62523500Y-58056000D01*
X64603500Y-58056000D02*
X66031500Y-58056000D01*
X61108500Y-58016000D02*
X62523500Y-58016000D01*
X64603500Y-58016000D02*
X66018500Y-58016000D01*
X61121500Y-57976000D02*
X62523500Y-57976000D01*
X64603500Y-57976000D02*
X66005500Y-57976000D01*
X61135500Y-57936000D02*
X62523500Y-57936000D01*
X64603500Y-57936000D02*
X65991500Y-57936000D01*
X61149500Y-57896000D02*
X62523500Y-57896000D01*
X64603500Y-57896000D02*
X65977500Y-57896000D01*
X61165500Y-57856000D02*
X62523500Y-57856000D01*
X64603500Y-57856000D02*
X65961500Y-57856000D01*
X61181500Y-57816000D02*
X62523500Y-57816000D01*
X64603500Y-57816000D02*
X65945500Y-57816000D01*
X61198500Y-57776000D02*
X62523500Y-57776000D01*
X64603500Y-57776000D02*
X65928500Y-57776000D01*
X61215500Y-57736000D02*
X62523500Y-57736000D01*
X64603500Y-57736000D02*
X65911500Y-57736000D01*
X61234500Y-57696000D02*
X62523500Y-57696000D01*
X64603500Y-57696000D02*
X65892500Y-57696000D01*
X61253500Y-57656000D02*
X62523500Y-57656000D01*
X64603500Y-57656000D02*
X65873500Y-57656000D01*
X61273500Y-57616000D02*
X62523500Y-57616000D01*
X64603500Y-57616000D02*
X65853500Y-57616000D01*
X61295500Y-57576000D02*
X62523500Y-57576000D01*
X64603500Y-57576000D02*
X65831500Y-57576000D01*
X61316500Y-57536000D02*
X62523500Y-57536000D01*
X64603500Y-57536000D02*
X65810500Y-57536000D01*
X61339500Y-57496000D02*
X62523500Y-57496000D01*
X64603500Y-57496000D02*
X65787500Y-57496000D01*
X61363500Y-57456000D02*
X62523500Y-57456000D01*
X64603500Y-57456000D02*
X65763500Y-57456000D01*
X61388500Y-57416000D02*
X62523500Y-57416000D01*
X64603500Y-57416000D02*
X65738500Y-57416000D01*
X61414500Y-57376000D02*
X62523500Y-57376000D01*
X64603500Y-57376000D02*
X65712500Y-57376000D01*
X61441500Y-57336000D02*
X62523500Y-57336000D01*
X64603500Y-57336000D02*
X65685500Y-57336000D01*
X61468500Y-57296000D02*
X62523500Y-57296000D01*
X64603500Y-57296000D02*
X65658500Y-57296000D01*
X61498500Y-57256000D02*
X62523500Y-57256000D01*
X64603500Y-57256000D02*
X65628500Y-57256000D01*
X61528500Y-57216000D02*
X62523500Y-57216000D01*
X64603500Y-57216000D02*
X65598500Y-57216000D01*
X61559500Y-57176000D02*
X62523500Y-57176000D01*
X64603500Y-57176000D02*
X65567500Y-57176000D01*
X61592500Y-57136000D02*
X62523500Y-57136000D01*
X64603500Y-57136000D02*
X65534500Y-57136000D01*
X61626500Y-57096000D02*
X62523500Y-57096000D01*
X64603500Y-57096000D02*
X65500500Y-57096000D01*
X61662500Y-57056000D02*
X62523500Y-57056000D01*
X64603500Y-57056000D02*
X65464500Y-57056000D01*
X61699500Y-57016000D02*
X62523500Y-57016000D01*
X64603500Y-57016000D02*
X65427500Y-57016000D01*
X61737500Y-56976000D02*
X62523500Y-56976000D01*
X64603500Y-56976000D02*
X65389500Y-56976000D01*
X61778500Y-56936000D02*
X62523500Y-56936000D01*
X64603500Y-56936000D02*
X65348500Y-56936000D01*
X61820500Y-56896000D02*
X62523500Y-56896000D01*
X64603500Y-56896000D02*
X65306500Y-56896000D01*
X61864500Y-56856000D02*
X62523500Y-56856000D01*
X64603500Y-56856000D02*
X65262500Y-56856000D01*
X61910500Y-56816000D02*
X62523500Y-56816000D01*
X64603500Y-56816000D02*
X65216500Y-56816000D01*
X61958500Y-56776000D02*
X65168500Y-56776000D01*
X62009500Y-56736000D02*
X65117500Y-56736000D01*
X62063500Y-56696000D02*
X65063500Y-56696000D01*
X62120500Y-56656000D02*
X65006500Y-56656000D01*
X62180500Y-56616000D02*
X64946500Y-56616000D01*
X62244500Y-56576000D02*
X64882500Y-56576000D01*
X62312500Y-56536000D02*
X64814500Y-56536000D01*
X62385500Y-56496000D02*
X64741500Y-56496000D01*
X62465500Y-56456000D02*
X64661500Y-56456000D01*
X62552500Y-56416000D02*
X64574500Y-56416000D01*
X62648500Y-56376000D02*
X64478500Y-56376000D01*
X62758500Y-56336000D02*
X64368500Y-56336000D01*
X62886500Y-56296000D02*
X64240500Y-56296000D01*
X63045500Y-56256000D02*
X64081500Y-56256000D01*
X63279500Y-56216000D02*
X63847500Y-56216000D01*
X62088500Y-61621775D02*
X62088500Y-61121775D01*
X61838500Y-61371775D02*
X62338500Y-61371775D01*
%TO.C,C3*%
X21289000Y-24209500D02*
G75*
G03*
X21289000Y-24209500I-2620000J0D01*
G01*
X19709000Y-24209500D02*
X21249000Y-24209500D01*
X16089000Y-24209500D02*
X17629000Y-24209500D01*
X19709000Y-24169500D02*
X21249000Y-24169500D01*
X16089000Y-24169500D02*
X17629000Y-24169500D01*
X16090000Y-24129500D02*
X17629000Y-24129500D01*
X19709000Y-24129500D02*
X21248000Y-24129500D01*
X16091000Y-24089500D02*
X17629000Y-24089500D01*
X19709000Y-24089500D02*
X21247000Y-24089500D01*
X16093000Y-24049500D02*
X17629000Y-24049500D01*
X19709000Y-24049500D02*
X21245000Y-24049500D01*
X16096000Y-24009500D02*
X17629000Y-24009500D01*
X19709000Y-24009500D02*
X21242000Y-24009500D01*
X16100000Y-23969500D02*
X17629000Y-23969500D01*
X19709000Y-23969500D02*
X21238000Y-23969500D01*
X16104000Y-23929500D02*
X17629000Y-23929500D01*
X19709000Y-23929500D02*
X21234000Y-23929500D01*
X16108000Y-23889500D02*
X17629000Y-23889500D01*
X19709000Y-23889500D02*
X21230000Y-23889500D01*
X16113000Y-23849500D02*
X17629000Y-23849500D01*
X19709000Y-23849500D02*
X21225000Y-23849500D01*
X16119000Y-23809500D02*
X17629000Y-23809500D01*
X19709000Y-23809500D02*
X21219000Y-23809500D01*
X16126000Y-23769500D02*
X17629000Y-23769500D01*
X19709000Y-23769500D02*
X21212000Y-23769500D01*
X16133000Y-23729500D02*
X17629000Y-23729500D01*
X19709000Y-23729500D02*
X21205000Y-23729500D01*
X16141000Y-23689500D02*
X17629000Y-23689500D01*
X19709000Y-23689500D02*
X21197000Y-23689500D01*
X16149000Y-23649500D02*
X17629000Y-23649500D01*
X19709000Y-23649500D02*
X21189000Y-23649500D01*
X16158000Y-23609500D02*
X17629000Y-23609500D01*
X19709000Y-23609500D02*
X21180000Y-23609500D01*
X16168000Y-23569500D02*
X17629000Y-23569500D01*
X19709000Y-23569500D02*
X21170000Y-23569500D01*
X16178000Y-23529500D02*
X17629000Y-23529500D01*
X19709000Y-23529500D02*
X21160000Y-23529500D01*
X16189000Y-23488500D02*
X17629000Y-23488500D01*
X19709000Y-23488500D02*
X21149000Y-23488500D01*
X16201000Y-23448500D02*
X17629000Y-23448500D01*
X19709000Y-23448500D02*
X21137000Y-23448500D01*
X16214000Y-23408500D02*
X17629000Y-23408500D01*
X19709000Y-23408500D02*
X21124000Y-23408500D01*
X16227000Y-23368500D02*
X17629000Y-23368500D01*
X19709000Y-23368500D02*
X21111000Y-23368500D01*
X16241000Y-23328500D02*
X17629000Y-23328500D01*
X19709000Y-23328500D02*
X21097000Y-23328500D01*
X16255000Y-23288500D02*
X17629000Y-23288500D01*
X19709000Y-23288500D02*
X21083000Y-23288500D01*
X16271000Y-23248500D02*
X17629000Y-23248500D01*
X19709000Y-23248500D02*
X21067000Y-23248500D01*
X16287000Y-23208500D02*
X17629000Y-23208500D01*
X19709000Y-23208500D02*
X21051000Y-23208500D01*
X16304000Y-23168500D02*
X17629000Y-23168500D01*
X19709000Y-23168500D02*
X21034000Y-23168500D01*
X16321000Y-23128500D02*
X17629000Y-23128500D01*
X19709000Y-23128500D02*
X21017000Y-23128500D01*
X16340000Y-23088500D02*
X17629000Y-23088500D01*
X19709000Y-23088500D02*
X20998000Y-23088500D01*
X16359000Y-23048500D02*
X17629000Y-23048500D01*
X19709000Y-23048500D02*
X20979000Y-23048500D01*
X16379000Y-23008500D02*
X17629000Y-23008500D01*
X19709000Y-23008500D02*
X20959000Y-23008500D01*
X16401000Y-22968500D02*
X17629000Y-22968500D01*
X19709000Y-22968500D02*
X20937000Y-22968500D01*
X16422000Y-22928500D02*
X17629000Y-22928500D01*
X19709000Y-22928500D02*
X20916000Y-22928500D01*
X16445000Y-22888500D02*
X17629000Y-22888500D01*
X19709000Y-22888500D02*
X20893000Y-22888500D01*
X16469000Y-22848500D02*
X17629000Y-22848500D01*
X19709000Y-22848500D02*
X20869000Y-22848500D01*
X16494000Y-22808500D02*
X17629000Y-22808500D01*
X19709000Y-22808500D02*
X20844000Y-22808500D01*
X16520000Y-22768500D02*
X17629000Y-22768500D01*
X19709000Y-22768500D02*
X20818000Y-22768500D01*
X16547000Y-22728500D02*
X17629000Y-22728500D01*
X19709000Y-22728500D02*
X20791000Y-22728500D01*
X16574000Y-22688500D02*
X17629000Y-22688500D01*
X19709000Y-22688500D02*
X20764000Y-22688500D01*
X16604000Y-22648500D02*
X17629000Y-22648500D01*
X19709000Y-22648500D02*
X20734000Y-22648500D01*
X16634000Y-22608500D02*
X17629000Y-22608500D01*
X19709000Y-22608500D02*
X20704000Y-22608500D01*
X16665000Y-22568500D02*
X17629000Y-22568500D01*
X19709000Y-22568500D02*
X20673000Y-22568500D01*
X16698000Y-22528500D02*
X17629000Y-22528500D01*
X19709000Y-22528500D02*
X20640000Y-22528500D01*
X16732000Y-22488500D02*
X17629000Y-22488500D01*
X19709000Y-22488500D02*
X20606000Y-22488500D01*
X16768000Y-22448500D02*
X17629000Y-22448500D01*
X19709000Y-22448500D02*
X20570000Y-22448500D01*
X16805000Y-22408500D02*
X17629000Y-22408500D01*
X19709000Y-22408500D02*
X20533000Y-22408500D01*
X16843000Y-22368500D02*
X17629000Y-22368500D01*
X19709000Y-22368500D02*
X20495000Y-22368500D01*
X16884000Y-22328500D02*
X17629000Y-22328500D01*
X19709000Y-22328500D02*
X20454000Y-22328500D01*
X16926000Y-22288500D02*
X17629000Y-22288500D01*
X19709000Y-22288500D02*
X20412000Y-22288500D01*
X16970000Y-22248500D02*
X17629000Y-22248500D01*
X19709000Y-22248500D02*
X20368000Y-22248500D01*
X17016000Y-22208500D02*
X17629000Y-22208500D01*
X19709000Y-22208500D02*
X20322000Y-22208500D01*
X17064000Y-22168500D02*
X20274000Y-22168500D01*
X17115000Y-22128500D02*
X20223000Y-22128500D01*
X17169000Y-22088500D02*
X20169000Y-22088500D01*
X17226000Y-22048500D02*
X20112000Y-22048500D01*
X17286000Y-22008500D02*
X20052000Y-22008500D01*
X17350000Y-21968500D02*
X19988000Y-21968500D01*
X17418000Y-21928500D02*
X19920000Y-21928500D01*
X17491000Y-21888500D02*
X19847000Y-21888500D01*
X17571000Y-21848500D02*
X19767000Y-21848500D01*
X17658000Y-21808500D02*
X19680000Y-21808500D01*
X17754000Y-21768500D02*
X19584000Y-21768500D01*
X17864000Y-21728500D02*
X19474000Y-21728500D01*
X17992000Y-21688500D02*
X19346000Y-21688500D01*
X18151000Y-21648500D02*
X19187000Y-21648500D01*
X18385000Y-21608500D02*
X18953000Y-21608500D01*
X17194000Y-27014275D02*
X17194000Y-26514275D01*
X16944000Y-26764275D02*
X17444000Y-26764275D01*
%TO.C,C2*%
X9164000Y-23384500D02*
X1424000Y-23384500D01*
X9164000Y-18144500D02*
X1424000Y-18144500D01*
X9164000Y-23384500D02*
X9164000Y-18144500D01*
X1424000Y-23384500D02*
X1424000Y-18144500D01*
%TO.C,C1*%
X15209000Y-20701000D02*
G75*
G03*
X15209000Y-20701000I-2620000J0D01*
G01*
X12589000Y-21741000D02*
X12589000Y-23281000D01*
X12589000Y-18121000D02*
X12589000Y-19661000D01*
X12629000Y-21741000D02*
X12629000Y-23281000D01*
X12629000Y-18121000D02*
X12629000Y-19661000D01*
X12669000Y-18122000D02*
X12669000Y-19661000D01*
X12669000Y-21741000D02*
X12669000Y-23280000D01*
X12709000Y-18123000D02*
X12709000Y-19661000D01*
X12709000Y-21741000D02*
X12709000Y-23279000D01*
X12749000Y-18125000D02*
X12749000Y-19661000D01*
X12749000Y-21741000D02*
X12749000Y-23277000D01*
X12789000Y-18128000D02*
X12789000Y-19661000D01*
X12789000Y-21741000D02*
X12789000Y-23274000D01*
X12829000Y-18132000D02*
X12829000Y-19661000D01*
X12829000Y-21741000D02*
X12829000Y-23270000D01*
X12869000Y-18136000D02*
X12869000Y-19661000D01*
X12869000Y-21741000D02*
X12869000Y-23266000D01*
X12909000Y-18140000D02*
X12909000Y-19661000D01*
X12909000Y-21741000D02*
X12909000Y-23262000D01*
X12949000Y-18145000D02*
X12949000Y-19661000D01*
X12949000Y-21741000D02*
X12949000Y-23257000D01*
X12989000Y-18151000D02*
X12989000Y-19661000D01*
X12989000Y-21741000D02*
X12989000Y-23251000D01*
X13029000Y-18158000D02*
X13029000Y-19661000D01*
X13029000Y-21741000D02*
X13029000Y-23244000D01*
X13069000Y-18165000D02*
X13069000Y-19661000D01*
X13069000Y-21741000D02*
X13069000Y-23237000D01*
X13109000Y-18173000D02*
X13109000Y-19661000D01*
X13109000Y-21741000D02*
X13109000Y-23229000D01*
X13149000Y-18181000D02*
X13149000Y-19661000D01*
X13149000Y-21741000D02*
X13149000Y-23221000D01*
X13189000Y-18190000D02*
X13189000Y-19661000D01*
X13189000Y-21741000D02*
X13189000Y-23212000D01*
X13229000Y-18200000D02*
X13229000Y-19661000D01*
X13229000Y-21741000D02*
X13229000Y-23202000D01*
X13269000Y-18210000D02*
X13269000Y-19661000D01*
X13269000Y-21741000D02*
X13269000Y-23192000D01*
X13310000Y-18221000D02*
X13310000Y-19661000D01*
X13310000Y-21741000D02*
X13310000Y-23181000D01*
X13350000Y-18233000D02*
X13350000Y-19661000D01*
X13350000Y-21741000D02*
X13350000Y-23169000D01*
X13390000Y-18246000D02*
X13390000Y-19661000D01*
X13390000Y-21741000D02*
X13390000Y-23156000D01*
X13430000Y-18259000D02*
X13430000Y-19661000D01*
X13430000Y-21741000D02*
X13430000Y-23143000D01*
X13470000Y-18273000D02*
X13470000Y-19661000D01*
X13470000Y-21741000D02*
X13470000Y-23129000D01*
X13510000Y-18287000D02*
X13510000Y-19661000D01*
X13510000Y-21741000D02*
X13510000Y-23115000D01*
X13550000Y-18303000D02*
X13550000Y-19661000D01*
X13550000Y-21741000D02*
X13550000Y-23099000D01*
X13590000Y-18319000D02*
X13590000Y-19661000D01*
X13590000Y-21741000D02*
X13590000Y-23083000D01*
X13630000Y-18336000D02*
X13630000Y-19661000D01*
X13630000Y-21741000D02*
X13630000Y-23066000D01*
X13670000Y-18353000D02*
X13670000Y-19661000D01*
X13670000Y-21741000D02*
X13670000Y-23049000D01*
X13710000Y-18372000D02*
X13710000Y-19661000D01*
X13710000Y-21741000D02*
X13710000Y-23030000D01*
X13750000Y-18391000D02*
X13750000Y-19661000D01*
X13750000Y-21741000D02*
X13750000Y-23011000D01*
X13790000Y-18411000D02*
X13790000Y-19661000D01*
X13790000Y-21741000D02*
X13790000Y-22991000D01*
X13830000Y-18433000D02*
X13830000Y-19661000D01*
X13830000Y-21741000D02*
X13830000Y-22969000D01*
X13870000Y-18454000D02*
X13870000Y-19661000D01*
X13870000Y-21741000D02*
X13870000Y-22948000D01*
X13910000Y-18477000D02*
X13910000Y-19661000D01*
X13910000Y-21741000D02*
X13910000Y-22925000D01*
X13950000Y-18501000D02*
X13950000Y-19661000D01*
X13950000Y-21741000D02*
X13950000Y-22901000D01*
X13990000Y-18526000D02*
X13990000Y-19661000D01*
X13990000Y-21741000D02*
X13990000Y-22876000D01*
X14030000Y-18552000D02*
X14030000Y-19661000D01*
X14030000Y-21741000D02*
X14030000Y-22850000D01*
X14070000Y-18579000D02*
X14070000Y-19661000D01*
X14070000Y-21741000D02*
X14070000Y-22823000D01*
X14110000Y-18606000D02*
X14110000Y-19661000D01*
X14110000Y-21741000D02*
X14110000Y-22796000D01*
X14150000Y-18636000D02*
X14150000Y-19661000D01*
X14150000Y-21741000D02*
X14150000Y-22766000D01*
X14190000Y-18666000D02*
X14190000Y-19661000D01*
X14190000Y-21741000D02*
X14190000Y-22736000D01*
X14230000Y-18697000D02*
X14230000Y-19661000D01*
X14230000Y-21741000D02*
X14230000Y-22705000D01*
X14270000Y-18730000D02*
X14270000Y-19661000D01*
X14270000Y-21741000D02*
X14270000Y-22672000D01*
X14310000Y-18764000D02*
X14310000Y-19661000D01*
X14310000Y-21741000D02*
X14310000Y-22638000D01*
X14350000Y-18800000D02*
X14350000Y-19661000D01*
X14350000Y-21741000D02*
X14350000Y-22602000D01*
X14390000Y-18837000D02*
X14390000Y-19661000D01*
X14390000Y-21741000D02*
X14390000Y-22565000D01*
X14430000Y-18875000D02*
X14430000Y-19661000D01*
X14430000Y-21741000D02*
X14430000Y-22527000D01*
X14470000Y-18916000D02*
X14470000Y-19661000D01*
X14470000Y-21741000D02*
X14470000Y-22486000D01*
X14510000Y-18958000D02*
X14510000Y-19661000D01*
X14510000Y-21741000D02*
X14510000Y-22444000D01*
X14550000Y-19002000D02*
X14550000Y-19661000D01*
X14550000Y-21741000D02*
X14550000Y-22400000D01*
X14590000Y-19048000D02*
X14590000Y-19661000D01*
X14590000Y-21741000D02*
X14590000Y-22354000D01*
X14630000Y-19096000D02*
X14630000Y-22306000D01*
X14670000Y-19147000D02*
X14670000Y-22255000D01*
X14710000Y-19201000D02*
X14710000Y-22201000D01*
X14750000Y-19258000D02*
X14750000Y-22144000D01*
X14790000Y-19318000D02*
X14790000Y-22084000D01*
X14830000Y-19382000D02*
X14830000Y-22020000D01*
X14870000Y-19450000D02*
X14870000Y-21952000D01*
X14910000Y-19523000D02*
X14910000Y-21879000D01*
X14950000Y-19603000D02*
X14950000Y-21799000D01*
X14990000Y-19690000D02*
X14990000Y-21712000D01*
X15030000Y-19786000D02*
X15030000Y-21616000D01*
X15070000Y-19896000D02*
X15070000Y-21506000D01*
X15110000Y-20024000D02*
X15110000Y-21378000D01*
X15150000Y-20183000D02*
X15150000Y-21219000D01*
X15190000Y-20417000D02*
X15190000Y-20985000D01*
X9784225Y-19226000D02*
X10284225Y-19226000D01*
X10034225Y-18976000D02*
X10034225Y-19476000D01*
%TO.C,U2*%
X63179000Y-13659500D02*
X52899000Y-13659500D01*
X63179000Y-24059500D02*
X63179000Y-13659500D01*
X52899000Y-24059500D02*
X63179000Y-24059500D01*
X52899000Y-13659500D02*
X52899000Y-24059500D01*
X60689000Y-13719500D02*
X59039000Y-13719500D01*
X60689000Y-23999500D02*
X60689000Y-13719500D01*
X55389000Y-23999500D02*
X60689000Y-23999500D01*
X55389000Y-13719500D02*
X55389000Y-23999500D01*
X57039000Y-13719500D02*
X55389000Y-13719500D01*
X59039000Y-13719500D02*
G75*
G02*
X57039000Y-13719500I-1000000J0D01*
G01*
%TO.C,R10*%
X93699000Y-25749500D02*
X93369000Y-25749500D01*
X93699000Y-32289500D02*
X93699000Y-25749500D01*
X93369000Y-32289500D02*
X93699000Y-32289500D01*
X90959000Y-25749500D02*
X91289000Y-25749500D01*
X90959000Y-32289500D02*
X90959000Y-25749500D01*
X91289000Y-32289500D02*
X90959000Y-32289500D01*
%TO.C,R8*%
X62198500Y-29237000D02*
X62198500Y-29567000D01*
X68738500Y-29237000D02*
X62198500Y-29237000D01*
X68738500Y-29567000D02*
X68738500Y-29237000D01*
X62198500Y-31977000D02*
X62198500Y-31647000D01*
X68738500Y-31977000D02*
X62198500Y-31977000D01*
X68738500Y-31647000D02*
X68738500Y-31977000D01*
%TO.C,R7*%
X68738500Y-38962000D02*
X68738500Y-38632000D01*
X62198500Y-38962000D02*
X68738500Y-38962000D01*
X62198500Y-38632000D02*
X62198500Y-38962000D01*
X68738500Y-36222000D02*
X68738500Y-36552000D01*
X62198500Y-36222000D02*
X68738500Y-36222000D01*
X62198500Y-36552000D02*
X62198500Y-36222000D01*
%TO.C,R6*%
X62198500Y-42572000D02*
X62198500Y-42902000D01*
X68738500Y-42572000D02*
X62198500Y-42572000D01*
X68738500Y-42902000D02*
X68738500Y-42572000D01*
X62198500Y-45312000D02*
X62198500Y-44982000D01*
X68738500Y-45312000D02*
X62198500Y-45312000D01*
X68738500Y-44982000D02*
X68738500Y-45312000D01*
%TO.C,R9*%
X50133500Y-50827000D02*
X50133500Y-51157000D01*
X56673500Y-50827000D02*
X50133500Y-50827000D01*
X56673500Y-51157000D02*
X56673500Y-50827000D01*
X50133500Y-53567000D02*
X50133500Y-53237000D01*
X56673500Y-53567000D02*
X50133500Y-53567000D01*
X56673500Y-53237000D02*
X56673500Y-53567000D01*
%TO.C,R5*%
X93699000Y-63976500D02*
X93369000Y-63976500D01*
X93699000Y-70516500D02*
X93699000Y-63976500D01*
X93369000Y-70516500D02*
X93699000Y-70516500D01*
X90959000Y-63976500D02*
X91289000Y-63976500D01*
X90959000Y-70516500D02*
X90959000Y-63976500D01*
X91289000Y-70516500D02*
X90959000Y-70516500D01*
%TO.C,R3*%
X56038500Y-31977000D02*
X56038500Y-31647000D01*
X49498500Y-31977000D02*
X56038500Y-31977000D01*
X49498500Y-31647000D02*
X49498500Y-31977000D01*
X56038500Y-29237000D02*
X56038500Y-29567000D01*
X49498500Y-29237000D02*
X56038500Y-29237000D01*
X49498500Y-29567000D02*
X49498500Y-29237000D01*
%TO.C,R2*%
X49498500Y-36222000D02*
X49498500Y-36552000D01*
X56038500Y-36222000D02*
X49498500Y-36222000D01*
X56038500Y-36552000D02*
X56038500Y-36222000D01*
X49498500Y-38962000D02*
X49498500Y-38632000D01*
X56038500Y-38962000D02*
X49498500Y-38962000D01*
X56038500Y-38632000D02*
X56038500Y-38962000D01*
%TO.C,R1*%
X56038500Y-45312000D02*
X56038500Y-44982000D01*
X49498500Y-45312000D02*
X56038500Y-45312000D01*
X49498500Y-44982000D02*
X49498500Y-45312000D01*
X56038500Y-42572000D02*
X56038500Y-42902000D01*
X49498500Y-42572000D02*
X56038500Y-42572000D01*
X49498500Y-42902000D02*
X49498500Y-42572000D01*
%TO.C,R4*%
X50133500Y-58447000D02*
X50133500Y-58777000D01*
X56673500Y-58447000D02*
X50133500Y-58447000D01*
X56673500Y-58777000D02*
X56673500Y-58447000D01*
X50133500Y-61187000D02*
X50133500Y-60857000D01*
X56673500Y-61187000D02*
X50133500Y-61187000D01*
X56673500Y-60857000D02*
X56673500Y-61187000D01*
%TO.C,Q2*%
X83788000Y-20266000D02*
X82278000Y-20266000D01*
X83788000Y-16565000D02*
X82278000Y-16565000D01*
X82278000Y-13295000D02*
X82278000Y-23535000D01*
X83788000Y-23535000D02*
X79147000Y-23535000D01*
X83788000Y-13295000D02*
X79147000Y-13295000D01*
X79147000Y-13295000D02*
X79147000Y-23535000D01*
X83788000Y-13295000D02*
X83788000Y-23535000D01*
%TO.C,Q1*%
X83724500Y-57413500D02*
X82214500Y-57413500D01*
X83724500Y-53712500D02*
X82214500Y-53712500D01*
X82214500Y-50442500D02*
X82214500Y-60682500D01*
X83724500Y-60682500D02*
X79083500Y-60682500D01*
X83724500Y-50442500D02*
X79083500Y-50442500D01*
X79083500Y-50442500D02*
X79083500Y-60682500D01*
X83724500Y-50442500D02*
X83724500Y-60682500D01*
%TO.C,FAN2*%
X94822500Y-20548500D02*
X95422500Y-20548500D01*
X94822500Y-18948500D02*
X94822500Y-20548500D01*
X95422500Y-18948500D02*
X94822500Y-18948500D01*
X94822500Y-18008500D02*
X95422500Y-18008500D01*
X94822500Y-16408500D02*
X94822500Y-18008500D01*
X95422500Y-16408500D02*
X94822500Y-16408500D01*
X94822500Y-15468500D02*
X95422500Y-15468500D01*
X94822500Y-13868500D02*
X94822500Y-15468500D01*
X95422500Y-13868500D02*
X94822500Y-13868500D01*
X89402500Y-19498500D02*
X90402500Y-19498500D01*
X89402500Y-14918500D02*
X90402500Y-14918500D01*
X90932500Y-19498500D02*
X90402500Y-19748500D01*
X90932500Y-14918500D02*
X90932500Y-19498500D01*
X90402500Y-14668500D02*
X90932500Y-14918500D01*
X90402500Y-19748500D02*
X89402500Y-19748500D01*
X90402500Y-14668500D02*
X90402500Y-19748500D01*
X89402500Y-14668500D02*
X90402500Y-14668500D01*
X94392500Y-12998500D02*
X90392500Y-12998500D01*
X95422500Y-21128500D02*
X95422500Y-13288500D01*
X89402500Y-21128500D02*
X95422500Y-21128500D01*
X89402500Y-13288500D02*
X89402500Y-21128500D01*
X95422500Y-13288500D02*
X89402500Y-13288500D01*
%TO.C,FAN1*%
X94822500Y-58585000D02*
X95422500Y-58585000D01*
X94822500Y-56985000D02*
X94822500Y-58585000D01*
X95422500Y-56985000D02*
X94822500Y-56985000D01*
X94822500Y-56045000D02*
X95422500Y-56045000D01*
X94822500Y-54445000D02*
X94822500Y-56045000D01*
X95422500Y-54445000D02*
X94822500Y-54445000D01*
X94822500Y-53505000D02*
X95422500Y-53505000D01*
X94822500Y-51905000D02*
X94822500Y-53505000D01*
X95422500Y-51905000D02*
X94822500Y-51905000D01*
X89402500Y-57535000D02*
X90402500Y-57535000D01*
X89402500Y-52955000D02*
X90402500Y-52955000D01*
X90932500Y-57535000D02*
X90402500Y-57785000D01*
X90932500Y-52955000D02*
X90932500Y-57535000D01*
X90402500Y-52705000D02*
X90932500Y-52955000D01*
X90402500Y-57785000D02*
X89402500Y-57785000D01*
X90402500Y-52705000D02*
X90402500Y-57785000D01*
X89402500Y-52705000D02*
X90402500Y-52705000D01*
X94392500Y-51035000D02*
X90392500Y-51035000D01*
X95422500Y-59165000D02*
X95422500Y-51325000D01*
X89402500Y-59165000D02*
X95422500Y-59165000D01*
X89402500Y-51325000D02*
X89402500Y-59165000D01*
X95422500Y-51325000D02*
X89402500Y-51325000D01*
%TO.C,D3*%
X93735500Y-3775000D02*
X90795500Y-3775000D01*
X93735500Y-4015000D02*
X90795500Y-4015000D01*
X93735500Y-3895000D02*
X90795500Y-3895000D01*
X90795500Y-8435000D02*
X91125500Y-8435000D01*
X90795500Y-2995000D02*
X90795500Y-8435000D01*
X91125500Y-2995000D02*
X90795500Y-2995000D01*
X93735500Y-8435000D02*
X93405500Y-8435000D01*
X93735500Y-2995000D02*
X93735500Y-8435000D01*
X93405500Y-2995000D02*
X93735500Y-2995000D01*
%TO.C,D2*%
X93799000Y-41049500D02*
X90859000Y-41049500D01*
X93799000Y-41289500D02*
X90859000Y-41289500D01*
X93799000Y-41169500D02*
X90859000Y-41169500D01*
X90859000Y-45709500D02*
X91189000Y-45709500D01*
X90859000Y-40269500D02*
X90859000Y-45709500D01*
X91189000Y-40269500D02*
X90859000Y-40269500D01*
X93799000Y-45709500D02*
X93469000Y-45709500D01*
X93799000Y-40269500D02*
X93799000Y-45709500D01*
X93469000Y-40269500D02*
X93799000Y-40269500D01*
%TD*%
%TO.C,U3*%
D12*
X32232714Y-16895357D02*
X32232714Y-17866785D01*
X32289857Y-17981071D01*
X32347000Y-18038214D01*
X32461285Y-18095357D01*
X32689857Y-18095357D01*
X32804142Y-18038214D01*
X32861285Y-17981071D01*
X32918428Y-17866785D01*
X32918428Y-16895357D01*
X33375571Y-16895357D02*
X34118428Y-16895357D01*
X33718428Y-17352500D01*
X33889857Y-17352500D01*
X34004142Y-17409642D01*
X34061285Y-17466785D01*
X34118428Y-17581071D01*
X34118428Y-17866785D01*
X34061285Y-17981071D01*
X34004142Y-18038214D01*
X33889857Y-18095357D01*
X33547000Y-18095357D01*
X33432714Y-18038214D01*
X33375571Y-17981071D01*
%TO.C,U1*%
X1397095Y-31011880D02*
X1397095Y-31821404D01*
X1444714Y-31916642D01*
X1492333Y-31964261D01*
X1587571Y-32011880D01*
X1778047Y-32011880D01*
X1873285Y-31964261D01*
X1920904Y-31916642D01*
X1968523Y-31821404D01*
X1968523Y-31011880D01*
X2968523Y-32011880D02*
X2397095Y-32011880D01*
X2682809Y-32011880D02*
X2682809Y-31011880D01*
X2587571Y-31154738D01*
X2492333Y-31249976D01*
X2397095Y-31297595D01*
%TO.C,L1*%
X18502333Y-38361880D02*
X18026142Y-38361880D01*
X18026142Y-37361880D01*
X19359476Y-38361880D02*
X18788047Y-38361880D01*
X19073761Y-38361880D02*
X19073761Y-37361880D01*
X18978523Y-37504738D01*
X18883285Y-37599976D01*
X18788047Y-37647595D01*
%TO.C,J1*%
X13255666Y-5611880D02*
X13255666Y-6326166D01*
X13208047Y-6469023D01*
X13112809Y-6564261D01*
X12969952Y-6611880D01*
X12874714Y-6611880D01*
X14255666Y-6611880D02*
X13684238Y-6611880D01*
X13969952Y-6611880D02*
X13969952Y-5611880D01*
X13874714Y-5754738D01*
X13779476Y-5849976D01*
X13684238Y-5897595D01*
%TO.C,D1*%
X8723404Y-44260880D02*
X8723404Y-43260880D01*
X8961500Y-43260880D01*
X9104357Y-43308500D01*
X9199595Y-43403738D01*
X9247214Y-43498976D01*
X9294833Y-43689452D01*
X9294833Y-43832309D01*
X9247214Y-44022785D01*
X9199595Y-44118023D01*
X9104357Y-44213261D01*
X8961500Y-44260880D01*
X8723404Y-44260880D01*
X10247214Y-44260880D02*
X9675785Y-44260880D01*
X9961500Y-44260880D02*
X9961500Y-43260880D01*
X9866261Y-43403738D01*
X9771023Y-43498976D01*
X9675785Y-43546595D01*
X13009595Y-43690880D02*
X13009595Y-42690880D01*
X13581023Y-43690880D02*
X13152452Y-43119452D01*
X13581023Y-42690880D02*
X13009595Y-43262309D01*
%TO.C,C5*%
X59646833Y-49696642D02*
X59599214Y-49744261D01*
X59456357Y-49791880D01*
X59361119Y-49791880D01*
X59218261Y-49744261D01*
X59123023Y-49649023D01*
X59075404Y-49553785D01*
X59027785Y-49363309D01*
X59027785Y-49220452D01*
X59075404Y-49029976D01*
X59123023Y-48934738D01*
X59218261Y-48839500D01*
X59361119Y-48791880D01*
X59456357Y-48791880D01*
X59599214Y-48839500D01*
X59646833Y-48887119D01*
X60551595Y-48791880D02*
X60075404Y-48791880D01*
X60027785Y-49268071D01*
X60075404Y-49220452D01*
X60170642Y-49172833D01*
X60408738Y-49172833D01*
X60503976Y-49220452D01*
X60551595Y-49268071D01*
X60599214Y-49363309D01*
X60599214Y-49601404D01*
X60551595Y-49696642D01*
X60503976Y-49744261D01*
X60408738Y-49791880D01*
X60170642Y-49791880D01*
X60075404Y-49744261D01*
X60027785Y-49696642D01*
%TO.C,C4*%
X59646833Y-59174142D02*
X59599214Y-59221761D01*
X59456357Y-59269380D01*
X59361119Y-59269380D01*
X59218261Y-59221761D01*
X59123023Y-59126523D01*
X59075404Y-59031285D01*
X59027785Y-58840809D01*
X59027785Y-58697952D01*
X59075404Y-58507476D01*
X59123023Y-58412238D01*
X59218261Y-58317000D01*
X59361119Y-58269380D01*
X59456357Y-58269380D01*
X59599214Y-58317000D01*
X59646833Y-58364619D01*
X60503976Y-58602714D02*
X60503976Y-59269380D01*
X60265880Y-58221761D02*
X60027785Y-58936047D01*
X60646833Y-58936047D01*
%TO.C,C3*%
X18502333Y-20486642D02*
X18454714Y-20534261D01*
X18311857Y-20581880D01*
X18216619Y-20581880D01*
X18073761Y-20534261D01*
X17978523Y-20439023D01*
X17930904Y-20343785D01*
X17883285Y-20153309D01*
X17883285Y-20010452D01*
X17930904Y-19819976D01*
X17978523Y-19724738D01*
X18073761Y-19629500D01*
X18216619Y-19581880D01*
X18311857Y-19581880D01*
X18454714Y-19629500D01*
X18502333Y-19677119D01*
X18835666Y-19581880D02*
X19454714Y-19581880D01*
X19121380Y-19962833D01*
X19264238Y-19962833D01*
X19359476Y-20010452D01*
X19407095Y-20058071D01*
X19454714Y-20153309D01*
X19454714Y-20391404D01*
X19407095Y-20486642D01*
X19359476Y-20534261D01*
X19264238Y-20581880D01*
X18978523Y-20581880D01*
X18883285Y-20534261D01*
X18835666Y-20486642D01*
%TO.C,C2*%
X5127333Y-24871642D02*
X5079714Y-24919261D01*
X4936857Y-24966880D01*
X4841619Y-24966880D01*
X4698761Y-24919261D01*
X4603523Y-24824023D01*
X4555904Y-24728785D01*
X4508285Y-24538309D01*
X4508285Y-24395452D01*
X4555904Y-24204976D01*
X4603523Y-24109738D01*
X4698761Y-24014500D01*
X4841619Y-23966880D01*
X4936857Y-23966880D01*
X5079714Y-24014500D01*
X5127333Y-24062119D01*
X5508285Y-24062119D02*
X5555904Y-24014500D01*
X5651142Y-23966880D01*
X5889238Y-23966880D01*
X5984476Y-24014500D01*
X6032095Y-24062119D01*
X6079714Y-24157357D01*
X6079714Y-24252595D01*
X6032095Y-24395452D01*
X5460666Y-24966880D01*
X6079714Y-24966880D01*
%TO.C,C1*%
X12422333Y-17308142D02*
X12374714Y-17355761D01*
X12231857Y-17403380D01*
X12136619Y-17403380D01*
X11993761Y-17355761D01*
X11898523Y-17260523D01*
X11850904Y-17165285D01*
X11803285Y-16974809D01*
X11803285Y-16831952D01*
X11850904Y-16641476D01*
X11898523Y-16546238D01*
X11993761Y-16451000D01*
X12136619Y-16403380D01*
X12231857Y-16403380D01*
X12374714Y-16451000D01*
X12422333Y-16498619D01*
X13374714Y-17403380D02*
X12803285Y-17403380D01*
X13089000Y-17403380D02*
X13089000Y-16403380D01*
X12993761Y-16546238D01*
X12898523Y-16641476D01*
X12803285Y-16689095D01*
%TO.C,U2*%
X57277095Y-12171880D02*
X57277095Y-12981404D01*
X57324714Y-13076642D01*
X57372333Y-13124261D01*
X57467571Y-13171880D01*
X57658047Y-13171880D01*
X57753285Y-13124261D01*
X57800904Y-13076642D01*
X57848523Y-12981404D01*
X57848523Y-12171880D01*
X58277095Y-12267119D02*
X58324714Y-12219500D01*
X58419952Y-12171880D01*
X58658047Y-12171880D01*
X58753285Y-12219500D01*
X58800904Y-12267119D01*
X58848523Y-12362357D01*
X58848523Y-12457595D01*
X58800904Y-12600452D01*
X58229476Y-13171880D01*
X58848523Y-13171880D01*
%TO.C,R10*%
X90411380Y-29662357D02*
X89935190Y-29995690D01*
X90411380Y-30233785D02*
X89411380Y-30233785D01*
X89411380Y-29852833D01*
X89459000Y-29757595D01*
X89506619Y-29709976D01*
X89601857Y-29662357D01*
X89744714Y-29662357D01*
X89839952Y-29709976D01*
X89887571Y-29757595D01*
X89935190Y-29852833D01*
X89935190Y-30233785D01*
X90411380Y-28709976D02*
X90411380Y-29281404D01*
X90411380Y-28995690D02*
X89411380Y-28995690D01*
X89554238Y-29090928D01*
X89649476Y-29186166D01*
X89697095Y-29281404D01*
X89411380Y-28090928D02*
X89411380Y-27995690D01*
X89459000Y-27900452D01*
X89506619Y-27852833D01*
X89601857Y-27805214D01*
X89792333Y-27757595D01*
X90030428Y-27757595D01*
X90220904Y-27805214D01*
X90316142Y-27852833D01*
X90363761Y-27900452D01*
X90411380Y-27995690D01*
X90411380Y-28090928D01*
X90363761Y-28186166D01*
X90316142Y-28233785D01*
X90220904Y-28281404D01*
X90030428Y-28329023D01*
X89792333Y-28329023D01*
X89601857Y-28281404D01*
X89506619Y-28233785D01*
X89459000Y-28186166D01*
X89411380Y-28090928D01*
%TO.C,R8*%
X71842333Y-30741880D02*
X71509000Y-30265690D01*
X71270904Y-30741880D02*
X71270904Y-29741880D01*
X71651857Y-29741880D01*
X71747095Y-29789500D01*
X71794714Y-29837119D01*
X71842333Y-29932357D01*
X71842333Y-30075214D01*
X71794714Y-30170452D01*
X71747095Y-30218071D01*
X71651857Y-30265690D01*
X71270904Y-30265690D01*
X72413761Y-30170452D02*
X72318523Y-30122833D01*
X72270904Y-30075214D01*
X72223285Y-29979976D01*
X72223285Y-29932357D01*
X72270904Y-29837119D01*
X72318523Y-29789500D01*
X72413761Y-29741880D01*
X72604238Y-29741880D01*
X72699476Y-29789500D01*
X72747095Y-29837119D01*
X72794714Y-29932357D01*
X72794714Y-29979976D01*
X72747095Y-30075214D01*
X72699476Y-30122833D01*
X72604238Y-30170452D01*
X72413761Y-30170452D01*
X72318523Y-30218071D01*
X72270904Y-30265690D01*
X72223285Y-30360928D01*
X72223285Y-30551404D01*
X72270904Y-30646642D01*
X72318523Y-30694261D01*
X72413761Y-30741880D01*
X72604238Y-30741880D01*
X72699476Y-30694261D01*
X72747095Y-30646642D01*
X72794714Y-30551404D01*
X72794714Y-30360928D01*
X72747095Y-30265690D01*
X72699476Y-30218071D01*
X72604238Y-30170452D01*
%TO.C,R7*%
X71842333Y-38361880D02*
X71509000Y-37885690D01*
X71270904Y-38361880D02*
X71270904Y-37361880D01*
X71651857Y-37361880D01*
X71747095Y-37409500D01*
X71794714Y-37457119D01*
X71842333Y-37552357D01*
X71842333Y-37695214D01*
X71794714Y-37790452D01*
X71747095Y-37838071D01*
X71651857Y-37885690D01*
X71270904Y-37885690D01*
X72175666Y-37361880D02*
X72842333Y-37361880D01*
X72413761Y-38361880D01*
%TO.C,R6*%
X71842333Y-44711880D02*
X71509000Y-44235690D01*
X71270904Y-44711880D02*
X71270904Y-43711880D01*
X71651857Y-43711880D01*
X71747095Y-43759500D01*
X71794714Y-43807119D01*
X71842333Y-43902357D01*
X71842333Y-44045214D01*
X71794714Y-44140452D01*
X71747095Y-44188071D01*
X71651857Y-44235690D01*
X71270904Y-44235690D01*
X72699476Y-43711880D02*
X72509000Y-43711880D01*
X72413761Y-43759500D01*
X72366142Y-43807119D01*
X72270904Y-43949976D01*
X72223285Y-44140452D01*
X72223285Y-44521404D01*
X72270904Y-44616642D01*
X72318523Y-44664261D01*
X72413761Y-44711880D01*
X72604238Y-44711880D01*
X72699476Y-44664261D01*
X72747095Y-44616642D01*
X72794714Y-44521404D01*
X72794714Y-44283309D01*
X72747095Y-44188071D01*
X72699476Y-44140452D01*
X72604238Y-44092833D01*
X72413761Y-44092833D01*
X72318523Y-44140452D01*
X72270904Y-44188071D01*
X72223285Y-44283309D01*
%TO.C,R9*%
X46442333Y-52331880D02*
X46109000Y-51855690D01*
X45870904Y-52331880D02*
X45870904Y-51331880D01*
X46251857Y-51331880D01*
X46347095Y-51379500D01*
X46394714Y-51427119D01*
X46442333Y-51522357D01*
X46442333Y-51665214D01*
X46394714Y-51760452D01*
X46347095Y-51808071D01*
X46251857Y-51855690D01*
X45870904Y-51855690D01*
X46918523Y-52331880D02*
X47109000Y-52331880D01*
X47204238Y-52284261D01*
X47251857Y-52236642D01*
X47347095Y-52093785D01*
X47394714Y-51903309D01*
X47394714Y-51522357D01*
X47347095Y-51427119D01*
X47299476Y-51379500D01*
X47204238Y-51331880D01*
X47013761Y-51331880D01*
X46918523Y-51379500D01*
X46870904Y-51427119D01*
X46823285Y-51522357D01*
X46823285Y-51760452D01*
X46870904Y-51855690D01*
X46918523Y-51903309D01*
X47013761Y-51950928D01*
X47204238Y-51950928D01*
X47299476Y-51903309D01*
X47347095Y-51855690D01*
X47394714Y-51760452D01*
%TO.C,R5*%
X90411380Y-67413166D02*
X89935190Y-67746500D01*
X90411380Y-67984595D02*
X89411380Y-67984595D01*
X89411380Y-67603642D01*
X89459000Y-67508404D01*
X89506619Y-67460785D01*
X89601857Y-67413166D01*
X89744714Y-67413166D01*
X89839952Y-67460785D01*
X89887571Y-67508404D01*
X89935190Y-67603642D01*
X89935190Y-67984595D01*
X89411380Y-66508404D02*
X89411380Y-66984595D01*
X89887571Y-67032214D01*
X89839952Y-66984595D01*
X89792333Y-66889357D01*
X89792333Y-66651261D01*
X89839952Y-66556023D01*
X89887571Y-66508404D01*
X89982809Y-66460785D01*
X90220904Y-66460785D01*
X90316142Y-66508404D01*
X90363761Y-66556023D01*
X90411380Y-66651261D01*
X90411380Y-66889357D01*
X90363761Y-66984595D01*
X90316142Y-67032214D01*
%TO.C,R3*%
X46442333Y-30741880D02*
X46109000Y-30265690D01*
X45870904Y-30741880D02*
X45870904Y-29741880D01*
X46251857Y-29741880D01*
X46347095Y-29789500D01*
X46394714Y-29837119D01*
X46442333Y-29932357D01*
X46442333Y-30075214D01*
X46394714Y-30170452D01*
X46347095Y-30218071D01*
X46251857Y-30265690D01*
X45870904Y-30265690D01*
X46775666Y-29741880D02*
X47394714Y-29741880D01*
X47061380Y-30122833D01*
X47204238Y-30122833D01*
X47299476Y-30170452D01*
X47347095Y-30218071D01*
X47394714Y-30313309D01*
X47394714Y-30551404D01*
X47347095Y-30646642D01*
X47299476Y-30694261D01*
X47204238Y-30741880D01*
X46918523Y-30741880D01*
X46823285Y-30694261D01*
X46775666Y-30646642D01*
%TO.C,R2*%
X46442333Y-38361880D02*
X46109000Y-37885690D01*
X45870904Y-38361880D02*
X45870904Y-37361880D01*
X46251857Y-37361880D01*
X46347095Y-37409500D01*
X46394714Y-37457119D01*
X46442333Y-37552357D01*
X46442333Y-37695214D01*
X46394714Y-37790452D01*
X46347095Y-37838071D01*
X46251857Y-37885690D01*
X45870904Y-37885690D01*
X46823285Y-37457119D02*
X46870904Y-37409500D01*
X46966142Y-37361880D01*
X47204238Y-37361880D01*
X47299476Y-37409500D01*
X47347095Y-37457119D01*
X47394714Y-37552357D01*
X47394714Y-37647595D01*
X47347095Y-37790452D01*
X46775666Y-38361880D01*
X47394714Y-38361880D01*
%TO.C,R1*%
X46442333Y-44711880D02*
X46109000Y-44235690D01*
X45870904Y-44711880D02*
X45870904Y-43711880D01*
X46251857Y-43711880D01*
X46347095Y-43759500D01*
X46394714Y-43807119D01*
X46442333Y-43902357D01*
X46442333Y-44045214D01*
X46394714Y-44140452D01*
X46347095Y-44188071D01*
X46251857Y-44235690D01*
X45870904Y-44235690D01*
X47394714Y-44711880D02*
X46823285Y-44711880D01*
X47109000Y-44711880D02*
X47109000Y-43711880D01*
X47013761Y-43854738D01*
X46918523Y-43949976D01*
X46823285Y-43997595D01*
%TO.C,R4*%
X46442333Y-59951880D02*
X46109000Y-59475690D01*
X45870904Y-59951880D02*
X45870904Y-58951880D01*
X46251857Y-58951880D01*
X46347095Y-58999500D01*
X46394714Y-59047119D01*
X46442333Y-59142357D01*
X46442333Y-59285214D01*
X46394714Y-59380452D01*
X46347095Y-59428071D01*
X46251857Y-59475690D01*
X45870904Y-59475690D01*
X47299476Y-59285214D02*
X47299476Y-59951880D01*
X47061380Y-58904261D02*
X46823285Y-59618547D01*
X47442333Y-59618547D01*
%TO.C,Q2*%
X85335619Y-18510238D02*
X85288000Y-18605476D01*
X85192761Y-18700714D01*
X85049904Y-18843571D01*
X85002285Y-18938809D01*
X85002285Y-19034047D01*
X85240380Y-18986428D02*
X85192761Y-19081666D01*
X85097523Y-19176904D01*
X84907047Y-19224523D01*
X84573714Y-19224523D01*
X84383238Y-19176904D01*
X84288000Y-19081666D01*
X84240380Y-18986428D01*
X84240380Y-18795952D01*
X84288000Y-18700714D01*
X84383238Y-18605476D01*
X84573714Y-18557857D01*
X84907047Y-18557857D01*
X85097523Y-18605476D01*
X85192761Y-18700714D01*
X85240380Y-18795952D01*
X85240380Y-18986428D01*
X84335619Y-18176904D02*
X84288000Y-18129285D01*
X84240380Y-18034047D01*
X84240380Y-17795952D01*
X84288000Y-17700714D01*
X84335619Y-17653095D01*
X84430857Y-17605476D01*
X84526095Y-17605476D01*
X84668952Y-17653095D01*
X85240380Y-18224523D01*
X85240380Y-17605476D01*
%TO.C,Q1*%
X85272119Y-55657738D02*
X85224500Y-55752976D01*
X85129261Y-55848214D01*
X84986404Y-55991071D01*
X84938785Y-56086309D01*
X84938785Y-56181547D01*
X85176880Y-56133928D02*
X85129261Y-56229166D01*
X85034023Y-56324404D01*
X84843547Y-56372023D01*
X84510214Y-56372023D01*
X84319738Y-56324404D01*
X84224500Y-56229166D01*
X84176880Y-56133928D01*
X84176880Y-55943452D01*
X84224500Y-55848214D01*
X84319738Y-55752976D01*
X84510214Y-55705357D01*
X84843547Y-55705357D01*
X85034023Y-55752976D01*
X85129261Y-55848214D01*
X85176880Y-55943452D01*
X85176880Y-56133928D01*
X85176880Y-54752976D02*
X85176880Y-55324404D01*
X85176880Y-55038690D02*
X84176880Y-55038690D01*
X84319738Y-55133928D01*
X84414976Y-55229166D01*
X84462595Y-55324404D01*
%TO.C,FAN2*%
X96441071Y-18494214D02*
X96441071Y-18827547D01*
X96964880Y-18827547D02*
X95964880Y-18827547D01*
X95964880Y-18351357D01*
X96679166Y-18018023D02*
X96679166Y-17541833D01*
X96964880Y-18113261D02*
X95964880Y-17779928D01*
X96964880Y-17446595D01*
X96964880Y-17113261D02*
X95964880Y-17113261D01*
X96964880Y-16541833D01*
X95964880Y-16541833D01*
X96060119Y-16113261D02*
X96012500Y-16065642D01*
X95964880Y-15970404D01*
X95964880Y-15732309D01*
X96012500Y-15637071D01*
X96060119Y-15589452D01*
X96155357Y-15541833D01*
X96250595Y-15541833D01*
X96393452Y-15589452D01*
X96964880Y-16160880D01*
X96964880Y-15541833D01*
%TO.C,FAN1*%
X96441071Y-56530714D02*
X96441071Y-56864047D01*
X96964880Y-56864047D02*
X95964880Y-56864047D01*
X95964880Y-56387857D01*
X96679166Y-56054523D02*
X96679166Y-55578333D01*
X96964880Y-56149761D02*
X95964880Y-55816428D01*
X96964880Y-55483095D01*
X96964880Y-55149761D02*
X95964880Y-55149761D01*
X96964880Y-54578333D01*
X95964880Y-54578333D01*
X96964880Y-53578333D02*
X96964880Y-54149761D01*
X96964880Y-53864047D02*
X95964880Y-53864047D01*
X96107738Y-53959285D01*
X96202976Y-54054523D01*
X96250595Y-54149761D01*
%TO.C,D3*%
X90241380Y-6897595D02*
X89241380Y-6897595D01*
X89241380Y-6659500D01*
X89289000Y-6516642D01*
X89384238Y-6421404D01*
X89479476Y-6373785D01*
X89669952Y-6326166D01*
X89812809Y-6326166D01*
X90003285Y-6373785D01*
X90098523Y-6421404D01*
X90193761Y-6516642D01*
X90241380Y-6659500D01*
X90241380Y-6897595D01*
X89241380Y-5992833D02*
X89241380Y-5373785D01*
X89622333Y-5707119D01*
X89622333Y-5564261D01*
X89669952Y-5469023D01*
X89717571Y-5421404D01*
X89812809Y-5373785D01*
X90050904Y-5373785D01*
X90146142Y-5421404D01*
X90193761Y-5469023D01*
X90241380Y-5564261D01*
X90241380Y-5849976D01*
X90193761Y-5945214D01*
X90146142Y-5992833D01*
X94617880Y-2166904D02*
X93617880Y-2166904D01*
X94617880Y-1595476D02*
X94046452Y-2024047D01*
X93617880Y-1595476D02*
X94189309Y-2166904D01*
%TO.C,D2*%
X90241380Y-43727595D02*
X89241380Y-43727595D01*
X89241380Y-43489500D01*
X89289000Y-43346642D01*
X89384238Y-43251404D01*
X89479476Y-43203785D01*
X89669952Y-43156166D01*
X89812809Y-43156166D01*
X90003285Y-43203785D01*
X90098523Y-43251404D01*
X90193761Y-43346642D01*
X90241380Y-43489500D01*
X90241380Y-43727595D01*
X89336619Y-42775214D02*
X89289000Y-42727595D01*
X89241380Y-42632357D01*
X89241380Y-42394261D01*
X89289000Y-42299023D01*
X89336619Y-42251404D01*
X89431857Y-42203785D01*
X89527095Y-42203785D01*
X89669952Y-42251404D01*
X90241380Y-42822833D01*
X90241380Y-42203785D01*
X94681380Y-39441404D02*
X93681380Y-39441404D01*
X94681380Y-38869976D02*
X94109952Y-39298547D01*
X93681380Y-38869976D02*
X94252809Y-39441404D01*
%TD*%
M02*
