%TF.GenerationSoftware,KiCad,Pcbnew,(5.1.9-0-10_14)*%
%TF.CreationDate,2021-04-26T00:09:41-04:00*%
%TF.ProjectId,randall-LM358-5-12V-amp,72616e64-616c-46c2-9d4c-4d3335382d35,rev?*%
%TF.SameCoordinates,PX4f16d38PY3a51524*%
%TF.FileFunction,Copper,L2,Bot*%
%TF.FilePolarity,Positive*%
%FSLAX46Y46*%
G04 Gerber Fmt 4.6, Leading zero omitted, Abs format (unit mm)*
G04 Created by KiCad (PCBNEW (5.1.9-0-10_14)) date 2021-04-26 00:09:41*
%MOMM*%
%LPD*%
G01*
G04 APERTURE LIST*
%TA.AperFunction,Profile*%
%ADD10C,0.100000*%
%TD*%
%TA.AperFunction,ComponentPad*%
%ADD11O,2.000000X1.500000*%
%TD*%
%TA.AperFunction,ComponentPad*%
%ADD12O,1.600000X1.600000*%
%TD*%
%TA.AperFunction,ComponentPad*%
%ADD13R,1.600000X1.600000*%
%TD*%
%TA.AperFunction,ComponentPad*%
%ADD14O,2.000000X2.000000*%
%TD*%
%TA.AperFunction,ComponentPad*%
%ADD15C,2.000000*%
%TD*%
%TA.AperFunction,ComponentPad*%
%ADD16O,1.980000X3.960000*%
%TD*%
%TA.AperFunction,ComponentPad*%
%ADD17R,1.980000X3.960000*%
%TD*%
%TA.AperFunction,ComponentPad*%
%ADD18O,1.800000X1.800000*%
%TD*%
%TA.AperFunction,ComponentPad*%
%ADD19R,1.800000X1.800000*%
%TD*%
%TA.AperFunction,ComponentPad*%
%ADD20C,1.600000*%
%TD*%
%TA.AperFunction,ComponentPad*%
%ADD21O,2.000000X1.905000*%
%TD*%
%TA.AperFunction,ComponentPad*%
%ADD22R,2.000000X1.905000*%
%TD*%
%TA.AperFunction,ComponentPad*%
%ADD23O,2.190000X1.740000*%
%TD*%
%TA.AperFunction,Conductor*%
%ADD24C,0.600000*%
%TD*%
%TA.AperFunction,Conductor*%
%ADD25C,0.200000*%
%TD*%
%TA.AperFunction,Conductor*%
%ADD26C,1.500000*%
%TD*%
%TA.AperFunction,Conductor*%
%ADD27C,1.000000*%
%TD*%
%TA.AperFunction,Conductor*%
%ADD28C,0.254000*%
%TD*%
%TA.AperFunction,Conductor*%
%ADD29C,0.100000*%
%TD*%
G04 APERTURE END LIST*
D10*
X99949000Y1460500D02*
X99949000Y-76009500D01*
X-381000Y1460500D02*
X99949000Y1460500D01*
X-381000Y-76009500D02*
X-381000Y1460500D01*
X99949000Y-76009500D02*
X-381000Y-76009500D01*
D11*
%TO.P,U3,15*%
%TO.N,N/C*%
X24257000Y-55562500D03*
%TO.P,U3,16*%
X42037000Y-55562500D03*
%TO.P,U3,14*%
X24257000Y-53022500D03*
%TO.P,U3,17*%
X42037000Y-53022500D03*
%TO.P,U3,13*%
X24257000Y-50482500D03*
%TO.P,U3,18*%
X42037000Y-50482500D03*
%TO.P,U3,12*%
X24257000Y-47942500D03*
%TO.P,U3,19*%
X42037000Y-47942500D03*
%TO.P,U3,11*%
X24257000Y-45402500D03*
%TO.P,U3,20*%
%TO.N,PWM1*%
X42037000Y-45402500D03*
%TO.P,U3,10*%
%TO.N,N/C*%
X24257000Y-42862500D03*
%TO.P,U3,21*%
%TO.N,PWM2*%
X42037000Y-42862500D03*
%TO.P,U3,9*%
%TO.N,N/C*%
X24257000Y-40322500D03*
%TO.P,U3,22*%
X42037000Y-40322500D03*
%TO.P,U3,8*%
X24257000Y-37782500D03*
%TO.P,U3,23*%
X42037000Y-37782500D03*
%TO.P,U3,7*%
X24257000Y-35242500D03*
%TO.P,U3,24*%
%TO.N,TACH1*%
X42037000Y-35242500D03*
%TO.P,U3,6*%
%TO.N,N/C*%
X24257000Y-32702500D03*
%TO.P,U3,25*%
%TO.N,TACH2*%
X42037000Y-32702500D03*
%TO.P,U3,5*%
%TO.N,N/C*%
X24257000Y-30162500D03*
%TO.P,U3,26*%
X42037000Y-30162500D03*
%TO.P,U3,4*%
%TO.N,3V3DC*%
X24257000Y-27622500D03*
%TO.P,U3,27*%
%TO.N,N/C*%
X42037000Y-27622500D03*
%TO.P,U3,3*%
%TO.N,GND*%
X24257000Y-25082500D03*
%TO.P,U3,28*%
%TO.N,N/C*%
X42037000Y-25082500D03*
%TO.P,U3,2*%
X24257000Y-22542500D03*
%TO.P,U3,29*%
X42037000Y-22542500D03*
%TO.P,U3,1*%
X24257000Y-20002500D03*
%TO.P,U3,30*%
X42037000Y-20002500D03*
%TD*%
D12*
%TO.P,U1,8*%
%TO.N,Net-(C2-Pad1)*%
X5334000Y-28194000D03*
%TO.P,U1,4*%
%TO.N,3V3DC*%
X12954000Y-35814000D03*
%TO.P,U1,7*%
%TO.N,15VDC*%
X7874000Y-28194000D03*
%TO.P,U1,3*%
%TO.N,N/C*%
X10414000Y-35814000D03*
%TO.P,U1,6*%
%TO.N,GND*%
X10414000Y-28194000D03*
%TO.P,U1,2*%
%TO.N,N/C*%
X7874000Y-35814000D03*
%TO.P,U1,5*%
X12954000Y-28194000D03*
D13*
%TO.P,U1,1*%
%TO.N,Net-(C2-Pad2)*%
X5334000Y-35814000D03*
%TD*%
D14*
%TO.P,L1,2*%
%TO.N,3V3DC*%
X18669000Y-29019500D03*
D15*
%TO.P,L1,1*%
%TO.N,Net-(C2-Pad1)*%
X18669000Y-34099500D03*
%TD*%
D16*
%TO.P,J1,2*%
%TO.N,GND*%
X8429000Y-6159500D03*
D17*
%TO.P,J1,1*%
%TO.N,15VDC*%
X3429000Y-6159500D03*
%TD*%
D18*
%TO.P,D1,2*%
%TO.N,GND*%
X5651500Y-41338500D03*
D19*
%TO.P,D1,1*%
%TO.N,Net-(C2-Pad1)*%
X13271500Y-41338500D03*
%TD*%
D20*
%TO.P,C5,2*%
%TO.N,GND*%
X63563500Y-50197000D03*
D13*
%TO.P,C5,1*%
%TO.N,Net-(C5-Pad1)*%
X63563500Y-52197000D03*
%TD*%
D20*
%TO.P,C4,2*%
%TO.N,GND*%
X63563500Y-57817000D03*
D13*
%TO.P,C4,1*%
%TO.N,Net-(C4-Pad1)*%
X63563500Y-59817000D03*
%TD*%
D20*
%TO.P,C3,2*%
%TO.N,GND*%
X18669000Y-23209500D03*
D13*
%TO.P,C3,1*%
%TO.N,3V3DC*%
X18669000Y-25209500D03*
%TD*%
D15*
%TO.P,C2,2*%
%TO.N,Net-(C2-Pad2)*%
X2794000Y-20764500D03*
%TO.P,C2,1*%
%TO.N,Net-(C2-Pad1)*%
X7794000Y-20764500D03*
%TD*%
D20*
%TO.P,C1,2*%
%TO.N,GND*%
X13589000Y-20701000D03*
D13*
%TO.P,C1,1*%
%TO.N,15VDC*%
X11589000Y-20701000D03*
%TD*%
D12*
%TO.P,U2,8*%
%TO.N,15VDC*%
X61849000Y-15049500D03*
%TO.P,U2,4*%
%TO.N,GND*%
X54229000Y-22669500D03*
%TO.P,U2,7*%
%TO.N,Net-(Q2-Pad1)*%
X61849000Y-17589500D03*
%TO.P,U2,3*%
%TO.N,Net-(C4-Pad1)*%
X54229000Y-20129500D03*
%TO.P,U2,6*%
%TO.N,Net-(R7-Pad1)*%
X61849000Y-20129500D03*
%TO.P,U2,2*%
%TO.N,Net-(R2-Pad1)*%
X54229000Y-17589500D03*
%TO.P,U2,5*%
%TO.N,Net-(C5-Pad1)*%
X61849000Y-22669500D03*
D13*
%TO.P,U2,1*%
%TO.N,Net-(Q1-Pad1)*%
X54229000Y-15049500D03*
%TD*%
D12*
%TO.P,R10,2*%
%TO.N,Net-(D3-Pad2)*%
X92329000Y-25209500D03*
D20*
%TO.P,R10,1*%
%TO.N,GND*%
X92329000Y-32829500D03*
%TD*%
D12*
%TO.P,R8,2*%
%TO.N,Net-(R7-Pad1)*%
X61658500Y-30607000D03*
D20*
%TO.P,R8,1*%
%TO.N,Net-(Q2-Pad1)*%
X69278500Y-30607000D03*
%TD*%
D12*
%TO.P,R7,2*%
%TO.N,Net-(R6-Pad1)*%
X69278500Y-37592000D03*
D20*
%TO.P,R7,1*%
%TO.N,Net-(R7-Pad1)*%
X61658500Y-37592000D03*
%TD*%
D12*
%TO.P,R6,2*%
%TO.N,GND*%
X61658500Y-43942000D03*
D20*
%TO.P,R6,1*%
%TO.N,Net-(R6-Pad1)*%
X69278500Y-43942000D03*
%TD*%
D12*
%TO.P,R9,2*%
%TO.N,PWM2*%
X49593500Y-52197000D03*
D20*
%TO.P,R9,1*%
%TO.N,Net-(C5-Pad1)*%
X57213500Y-52197000D03*
%TD*%
D12*
%TO.P,R5,2*%
%TO.N,Net-(D2-Pad2)*%
X92329000Y-63436500D03*
D20*
%TO.P,R5,1*%
%TO.N,GND*%
X92329000Y-71056500D03*
%TD*%
D12*
%TO.P,R3,2*%
%TO.N,Net-(R2-Pad1)*%
X56578500Y-30607000D03*
D20*
%TO.P,R3,1*%
%TO.N,Net-(Q1-Pad1)*%
X48958500Y-30607000D03*
%TD*%
D12*
%TO.P,R2,2*%
%TO.N,Net-(R1-Pad1)*%
X48958500Y-37592000D03*
D20*
%TO.P,R2,1*%
%TO.N,Net-(R2-Pad1)*%
X56578500Y-37592000D03*
%TD*%
D12*
%TO.P,R1,2*%
%TO.N,GND*%
X56578500Y-43942000D03*
D20*
%TO.P,R1,1*%
%TO.N,Net-(R1-Pad1)*%
X48958500Y-43942000D03*
%TD*%
D12*
%TO.P,R4,2*%
%TO.N,PWM1*%
X49593500Y-59817000D03*
D20*
%TO.P,R4,1*%
%TO.N,Net-(C4-Pad1)*%
X57213500Y-59817000D03*
%TD*%
D21*
%TO.P,Q2,3*%
%TO.N,Net-(D3-Pad2)*%
X80518000Y-20955000D03*
%TO.P,Q2,2*%
%TO.N,15VDC*%
X80518000Y-18415000D03*
D22*
%TO.P,Q2,1*%
%TO.N,Net-(Q2-Pad1)*%
X80518000Y-15875000D03*
%TD*%
D21*
%TO.P,Q1,3*%
%TO.N,Net-(D2-Pad2)*%
X80454500Y-58102500D03*
%TO.P,Q1,2*%
%TO.N,15VDC*%
X80454500Y-55562500D03*
D22*
%TO.P,Q1,1*%
%TO.N,Net-(Q1-Pad1)*%
X80454500Y-53022500D03*
%TD*%
D23*
%TO.P,FAN2,3*%
%TO.N,GND*%
X92392500Y-19748500D03*
%TO.P,FAN2,2*%
%TO.N,Net-(D3-Pad2)*%
X92392500Y-17208500D03*
%TO.P,FAN2,1*%
%TO.N,TACH2*%
%TA.AperFunction,ComponentPad*%
G36*
G01*
X91547499Y-13798500D02*
X93237501Y-13798500D01*
G75*
G02*
X93487500Y-14048499I0J-249999D01*
G01*
X93487500Y-15288501D01*
G75*
G02*
X93237501Y-15538500I-249999J0D01*
G01*
X91547499Y-15538500D01*
G75*
G02*
X91297500Y-15288501I0J249999D01*
G01*
X91297500Y-14048499D01*
G75*
G02*
X91547499Y-13798500I249999J0D01*
G01*
G37*
%TD.AperFunction*%
%TD*%
%TO.P,FAN1,3*%
%TO.N,GND*%
X92392500Y-57785000D03*
%TO.P,FAN1,2*%
%TO.N,Net-(D2-Pad2)*%
X92392500Y-55245000D03*
%TO.P,FAN1,1*%
%TO.N,TACH1*%
%TA.AperFunction,ComponentPad*%
G36*
G01*
X91547499Y-51835000D02*
X93237501Y-51835000D01*
G75*
G02*
X93487500Y-52084999I0J-249999D01*
G01*
X93487500Y-53325001D01*
G75*
G02*
X93237501Y-53575000I-249999J0D01*
G01*
X91547499Y-53575000D01*
G75*
G02*
X91297500Y-53325001I0J249999D01*
G01*
X91297500Y-52084999D01*
G75*
G02*
X91547499Y-51835000I249999J0D01*
G01*
G37*
%TD.AperFunction*%
%TD*%
D18*
%TO.P,D3,2*%
%TO.N,Net-(D3-Pad2)*%
X92265500Y-9525000D03*
D19*
%TO.P,D3,1*%
%TO.N,15VDC*%
X92265500Y-1905000D03*
%TD*%
D18*
%TO.P,D2,2*%
%TO.N,Net-(D2-Pad2)*%
X92329000Y-46799500D03*
D19*
%TO.P,D2,1*%
%TO.N,15VDC*%
X92329000Y-39179500D03*
%TD*%
D24*
%TO.N,15VDC*%
X80699102Y-18415000D02*
X80518000Y-18415000D01*
D25*
X3651500Y-6382000D02*
X3429000Y-6159500D01*
D26*
X59309000Y-1079500D02*
X73279000Y-15049500D01*
D27*
X76644500Y-18415000D02*
X80518000Y-18415000D01*
X73279000Y-15049500D02*
X76644500Y-18415000D01*
X78454500Y-55562500D02*
X80454500Y-55562500D01*
X73279000Y-50387000D02*
X78454500Y-55562500D01*
X73279000Y-15049500D02*
X73279000Y-50387000D01*
D26*
X55499000Y-1079500D02*
X59309000Y-1079500D01*
D25*
X47879000Y-1079500D02*
X61849000Y-15049500D01*
D26*
X47879000Y-1079500D02*
X55499000Y-1079500D01*
D25*
X11589000Y-14319500D02*
X3429000Y-6159500D01*
X11589000Y-20701000D02*
X11589000Y-14319500D01*
D27*
X82268001Y-11902499D02*
X92265500Y-1905000D01*
X82268001Y-17427501D02*
X82268001Y-11902499D01*
X81280502Y-18415000D02*
X82268001Y-17427501D01*
X80518000Y-18415000D02*
X81280502Y-18415000D01*
X92329000Y-39179500D02*
X92329000Y-40449500D01*
X92329000Y-40449500D02*
X83439000Y-49339500D01*
X82454500Y-55562500D02*
X80454500Y-55562500D01*
X83439000Y-54578000D02*
X82454500Y-55562500D01*
X83439000Y-49339500D02*
X83439000Y-54578000D01*
D26*
X7239000Y-1079500D02*
X47879000Y-1079500D01*
X3429000Y-6159500D02*
X7239000Y-1079500D01*
D25*
X11589000Y-24479000D02*
X7874000Y-28194000D01*
X11589000Y-20701000D02*
X11589000Y-24479000D01*
D27*
%TO.N,Net-(D2-Pad2)*%
X94237510Y-53739220D02*
X92731730Y-55245000D01*
X92731730Y-55245000D02*
X92392500Y-55245000D01*
X94237510Y-48708010D02*
X94237510Y-53739220D01*
X92329000Y-46799500D02*
X94237510Y-48708010D01*
X89535000Y-58102500D02*
X92392500Y-55245000D01*
X80454500Y-58102500D02*
X89535000Y-58102500D01*
D25*
X93837510Y-56690010D02*
X92392500Y-55245000D01*
X93837510Y-61927990D02*
X93837510Y-56690010D01*
X92329000Y-63436500D02*
X93837510Y-61927990D01*
%TO.N,PWM1*%
X43387010Y-46752510D02*
X43387010Y-49927510D01*
X42037000Y-45402500D02*
X43387010Y-46752510D01*
X49593500Y-56134000D02*
X49593500Y-59817000D01*
X43387010Y-49927510D02*
X49593500Y-56134000D01*
%TO.N,PWM2*%
X49593500Y-50419000D02*
X49593500Y-52197000D01*
X42037000Y-42862500D02*
X49593500Y-50419000D01*
%TO.N,Net-(Q1-Pad1)*%
X48958500Y-19320000D02*
X48958500Y-30607000D01*
X53229000Y-15049500D02*
X48958500Y-19320000D01*
X54229000Y-15049500D02*
X53229000Y-15049500D01*
%TO.N,Net-(Q2-Pad1)*%
X69278500Y-25019000D02*
X69278500Y-30607000D01*
X61849000Y-17589500D02*
X69278500Y-25019000D01*
%TO.N,Net-(R2-Pad1)*%
X56578500Y-19939000D02*
X56578500Y-30607000D01*
X54229000Y-17589500D02*
X56578500Y-19939000D01*
X56578500Y-37592000D02*
X56578500Y-30607000D01*
%TO.N,Net-(C2-Pad1)*%
X5334000Y-23224500D02*
X7794000Y-20764500D01*
X5334000Y-28194000D02*
X5334000Y-23224500D01*
X13271500Y-39497000D02*
X18669000Y-34099500D01*
X13271500Y-41338500D02*
X13271500Y-39497000D01*
X11696498Y-41338500D02*
X13271500Y-41338500D01*
X6723999Y-29583999D02*
X6723999Y-36366001D01*
X6723999Y-36366001D02*
X11696498Y-41338500D01*
X5334000Y-28194000D02*
X6723999Y-29583999D01*
%TO.N,Net-(R7-Pad1)*%
X60698999Y-29647499D02*
X61658500Y-30607000D01*
X60698999Y-21279501D02*
X60698999Y-29647499D01*
X61849000Y-20129500D02*
X60698999Y-21279501D01*
X61658500Y-30607000D02*
X61658500Y-37592000D01*
%TO.N,Net-(C2-Pad2)*%
X2794000Y-33274000D02*
X5334000Y-35814000D01*
X2794000Y-20764500D02*
X2794000Y-33274000D01*
%TO.N,3V3DC*%
X22860000Y-29019500D02*
X24257000Y-27622500D01*
X18669000Y-29019500D02*
X22860000Y-29019500D01*
X12954000Y-34734500D02*
X12954000Y-35814000D01*
X18669000Y-29019500D02*
X12954000Y-34734500D01*
X18669000Y-29019500D02*
X18669000Y-25209500D01*
%TO.N,Net-(C4-Pad1)*%
X53201999Y-55805499D02*
X57213500Y-59817000D01*
X53078999Y-55682499D02*
X57213500Y-59817000D01*
X53078999Y-21279501D02*
X53078999Y-55682499D01*
X54229000Y-20129500D02*
X53078999Y-21279501D01*
X63563500Y-59817000D02*
X57213500Y-59817000D01*
%TO.N,Net-(C5-Pad1)*%
X57213500Y-52197000D02*
X63563500Y-52197000D01*
X61849000Y-22669500D02*
X66929000Y-27749500D01*
X66929000Y-48831500D02*
X63563500Y-52197000D01*
X66929000Y-27749500D02*
X66929000Y-48831500D01*
D27*
%TO.N,Net-(D3-Pad2)*%
X92731730Y-17208500D02*
X92392500Y-17208500D01*
X94237510Y-15702720D02*
X92731730Y-17208500D01*
X94237510Y-11497010D02*
X94237510Y-15702720D01*
X92265500Y-9525000D02*
X94237510Y-11497010D01*
X88646000Y-20955000D02*
X92392500Y-17208500D01*
X80518000Y-20955000D02*
X88646000Y-20955000D01*
D25*
X93837510Y-18653510D02*
X92392500Y-17208500D01*
X93837510Y-23700990D02*
X93837510Y-18653510D01*
X92329000Y-25209500D02*
X93837510Y-23700990D01*
%TO.N,Net-(R1-Pad1)*%
X48958500Y-37592000D02*
X48958500Y-43942000D01*
%TO.N,Net-(R6-Pad1)*%
X69278500Y-37592000D02*
X69278500Y-43942000D01*
%TD*%
D28*
%TO.N,GND*%
X99264001Y-75324500D02*
X304000Y-75324500D01*
X304000Y-72049202D01*
X91515903Y-72049202D01*
X91587486Y-72293171D01*
X91842996Y-72414071D01*
X92117184Y-72482800D01*
X92399512Y-72496717D01*
X92679130Y-72455287D01*
X92945292Y-72360103D01*
X93070514Y-72293171D01*
X93142097Y-72049202D01*
X92329000Y-71236105D01*
X91515903Y-72049202D01*
X304000Y-72049202D01*
X304000Y-71127012D01*
X90888783Y-71127012D01*
X90930213Y-71406630D01*
X91025397Y-71672792D01*
X91092329Y-71798014D01*
X91336298Y-71869597D01*
X92149395Y-71056500D01*
X92508605Y-71056500D01*
X93321702Y-71869597D01*
X93565671Y-71798014D01*
X93686571Y-71542504D01*
X93755300Y-71268316D01*
X93769217Y-70985988D01*
X93727787Y-70706370D01*
X93632603Y-70440208D01*
X93565671Y-70314986D01*
X93321702Y-70243403D01*
X92508605Y-71056500D01*
X92149395Y-71056500D01*
X91336298Y-70243403D01*
X91092329Y-70314986D01*
X90971429Y-70570496D01*
X90902700Y-70844684D01*
X90888783Y-71127012D01*
X304000Y-71127012D01*
X304000Y-70063798D01*
X91515903Y-70063798D01*
X92329000Y-70876895D01*
X93142097Y-70063798D01*
X93070514Y-69819829D01*
X92815004Y-69698929D01*
X92540816Y-69630200D01*
X92258488Y-69616283D01*
X91978870Y-69657713D01*
X91712708Y-69752897D01*
X91587486Y-69819829D01*
X91515903Y-70063798D01*
X304000Y-70063798D01*
X304000Y-41703240D01*
X4160464Y-41703240D01*
X4209106Y-41863607D01*
X4339264Y-42134914D01*
X4519851Y-42375616D01*
X4743927Y-42576462D01*
X5002880Y-42729734D01*
X5286759Y-42829541D01*
X5524500Y-42709492D01*
X5524500Y-41465500D01*
X5778500Y-41465500D01*
X5778500Y-42709492D01*
X6016241Y-42829541D01*
X6300120Y-42729734D01*
X6559073Y-42576462D01*
X6783149Y-42375616D01*
X6963736Y-42134914D01*
X7093894Y-41863607D01*
X7142536Y-41703240D01*
X7021878Y-41465500D01*
X5778500Y-41465500D01*
X5524500Y-41465500D01*
X4281122Y-41465500D01*
X4160464Y-41703240D01*
X304000Y-41703240D01*
X304000Y-40973760D01*
X4160464Y-40973760D01*
X4281122Y-41211500D01*
X5524500Y-41211500D01*
X5524500Y-39967508D01*
X5778500Y-39967508D01*
X5778500Y-41211500D01*
X7021878Y-41211500D01*
X7142536Y-40973760D01*
X7093894Y-40813393D01*
X6963736Y-40542086D01*
X6783149Y-40301384D01*
X6559073Y-40100538D01*
X6300120Y-39947266D01*
X6016241Y-39847459D01*
X5778500Y-39967508D01*
X5524500Y-39967508D01*
X5286759Y-39847459D01*
X5002880Y-39947266D01*
X4743927Y-40100538D01*
X4519851Y-40301384D01*
X4339264Y-40542086D01*
X4209106Y-40813393D01*
X4160464Y-40973760D01*
X304000Y-40973760D01*
X304000Y-20603467D01*
X1159000Y-20603467D01*
X1159000Y-20925533D01*
X1221832Y-21241412D01*
X1345082Y-21538963D01*
X1524013Y-21806752D01*
X1751748Y-22034487D01*
X2019537Y-22213418D01*
X2059000Y-22229764D01*
X2059001Y-33237885D01*
X2055444Y-33274000D01*
X2069635Y-33418085D01*
X2110940Y-33554247D01*
X2111664Y-33556633D01*
X2179914Y-33684320D01*
X2271763Y-33796238D01*
X2299808Y-33819254D01*
X3895928Y-35415375D01*
X3895928Y-36614000D01*
X3908188Y-36738482D01*
X3944498Y-36858180D01*
X4003463Y-36968494D01*
X4082815Y-37065185D01*
X4179506Y-37144537D01*
X4289820Y-37203502D01*
X4409518Y-37239812D01*
X4534000Y-37252072D01*
X6134000Y-37252072D01*
X6258482Y-37239812D01*
X6378180Y-37203502D01*
X6471938Y-37153386D01*
X11151244Y-41832693D01*
X11174260Y-41860738D01*
X11202304Y-41883753D01*
X11286178Y-41952587D01*
X11413864Y-42020837D01*
X11552413Y-42062865D01*
X11696498Y-42077056D01*
X11732603Y-42073500D01*
X11733428Y-42073500D01*
X11733428Y-42238500D01*
X11745688Y-42362982D01*
X11781998Y-42482680D01*
X11840963Y-42592994D01*
X11920315Y-42689685D01*
X12017006Y-42769037D01*
X12127320Y-42828002D01*
X12247018Y-42864312D01*
X12371500Y-42876572D01*
X14171500Y-42876572D01*
X14295982Y-42864312D01*
X14415680Y-42828002D01*
X14525994Y-42769037D01*
X14622685Y-42689685D01*
X14702037Y-42592994D01*
X14761002Y-42482680D01*
X14797312Y-42362982D01*
X14809572Y-42238500D01*
X14809572Y-40438500D01*
X14797312Y-40314018D01*
X14761002Y-40194320D01*
X14702037Y-40084006D01*
X14622685Y-39987315D01*
X14525994Y-39907963D01*
X14415680Y-39848998D01*
X14295982Y-39812688D01*
X14171500Y-39800428D01*
X14007518Y-39800428D01*
X18152625Y-35655322D01*
X18192088Y-35671668D01*
X18507967Y-35734500D01*
X18830033Y-35734500D01*
X19145912Y-35671668D01*
X19443463Y-35548418D01*
X19711252Y-35369487D01*
X19938987Y-35141752D01*
X20117918Y-34873963D01*
X20241168Y-34576412D01*
X20304000Y-34260533D01*
X20304000Y-33938467D01*
X20241168Y-33622588D01*
X20117918Y-33325037D01*
X19938987Y-33057248D01*
X19711252Y-32829513D01*
X19443463Y-32650582D01*
X19145912Y-32527332D01*
X18830033Y-32464500D01*
X18507967Y-32464500D01*
X18192088Y-32527332D01*
X17894537Y-32650582D01*
X17626748Y-32829513D01*
X17399013Y-33057248D01*
X17220082Y-33325037D01*
X17096832Y-33622588D01*
X17034000Y-33938467D01*
X17034000Y-34260533D01*
X17096832Y-34576412D01*
X17113178Y-34615875D01*
X12777308Y-38951746D01*
X12749263Y-38974762D01*
X12657414Y-39086680D01*
X12615368Y-39165343D01*
X12589164Y-39214367D01*
X12547135Y-39352915D01*
X12532944Y-39497000D01*
X12536501Y-39533115D01*
X12536501Y-39800428D01*
X12371500Y-39800428D01*
X12247018Y-39812688D01*
X12127320Y-39848998D01*
X12017006Y-39907963D01*
X11920315Y-39987315D01*
X11840963Y-40084006D01*
X11781998Y-40194320D01*
X11745688Y-40314018D01*
X11742619Y-40345175D01*
X8503803Y-37106359D01*
X8553727Y-37085680D01*
X8788759Y-36928637D01*
X8988637Y-36728759D01*
X9144000Y-36496241D01*
X9299363Y-36728759D01*
X9499241Y-36928637D01*
X9734273Y-37085680D01*
X9995426Y-37193853D01*
X10272665Y-37249000D01*
X10555335Y-37249000D01*
X10832574Y-37193853D01*
X11093727Y-37085680D01*
X11328759Y-36928637D01*
X11528637Y-36728759D01*
X11684000Y-36496241D01*
X11839363Y-36728759D01*
X12039241Y-36928637D01*
X12274273Y-37085680D01*
X12535426Y-37193853D01*
X12812665Y-37249000D01*
X13095335Y-37249000D01*
X13372574Y-37193853D01*
X13633727Y-37085680D01*
X13868759Y-36928637D01*
X14068637Y-36728759D01*
X14225680Y-36493727D01*
X14333853Y-36232574D01*
X14389000Y-35955335D01*
X14389000Y-35672665D01*
X14333853Y-35395426D01*
X14225680Y-35134273D01*
X14068637Y-34899241D01*
X13948671Y-34779275D01*
X18152625Y-30575322D01*
X18192088Y-30591668D01*
X18507967Y-30654500D01*
X18830033Y-30654500D01*
X19145912Y-30591668D01*
X19443463Y-30468418D01*
X19711252Y-30289487D01*
X19938987Y-30061752D01*
X20117918Y-29793963D01*
X20134264Y-29754500D01*
X22683445Y-29754500D01*
X22642040Y-29890993D01*
X22615299Y-30162500D01*
X22642040Y-30434007D01*
X22721236Y-30695081D01*
X22849843Y-30935688D01*
X23022919Y-31146581D01*
X23233812Y-31319657D01*
X23444927Y-31432500D01*
X23233812Y-31545343D01*
X23022919Y-31718419D01*
X22849843Y-31929312D01*
X22721236Y-32169919D01*
X22642040Y-32430993D01*
X22615299Y-32702500D01*
X22642040Y-32974007D01*
X22721236Y-33235081D01*
X22849843Y-33475688D01*
X23022919Y-33686581D01*
X23233812Y-33859657D01*
X23444927Y-33972500D01*
X23233812Y-34085343D01*
X23022919Y-34258419D01*
X22849843Y-34469312D01*
X22721236Y-34709919D01*
X22642040Y-34970993D01*
X22615299Y-35242500D01*
X22642040Y-35514007D01*
X22721236Y-35775081D01*
X22849843Y-36015688D01*
X23022919Y-36226581D01*
X23233812Y-36399657D01*
X23444927Y-36512500D01*
X23233812Y-36625343D01*
X23022919Y-36798419D01*
X22849843Y-37009312D01*
X22721236Y-37249919D01*
X22642040Y-37510993D01*
X22615299Y-37782500D01*
X22642040Y-38054007D01*
X22721236Y-38315081D01*
X22849843Y-38555688D01*
X23022919Y-38766581D01*
X23233812Y-38939657D01*
X23444927Y-39052500D01*
X23233812Y-39165343D01*
X23022919Y-39338419D01*
X22849843Y-39549312D01*
X22721236Y-39789919D01*
X22642040Y-40050993D01*
X22615299Y-40322500D01*
X22642040Y-40594007D01*
X22721236Y-40855081D01*
X22849843Y-41095688D01*
X23022919Y-41306581D01*
X23233812Y-41479657D01*
X23444927Y-41592500D01*
X23233812Y-41705343D01*
X23022919Y-41878419D01*
X22849843Y-42089312D01*
X22721236Y-42329919D01*
X22642040Y-42590993D01*
X22615299Y-42862500D01*
X22642040Y-43134007D01*
X22721236Y-43395081D01*
X22849843Y-43635688D01*
X23022919Y-43846581D01*
X23233812Y-44019657D01*
X23444927Y-44132500D01*
X23233812Y-44245343D01*
X23022919Y-44418419D01*
X22849843Y-44629312D01*
X22721236Y-44869919D01*
X22642040Y-45130993D01*
X22615299Y-45402500D01*
X22642040Y-45674007D01*
X22721236Y-45935081D01*
X22849843Y-46175688D01*
X23022919Y-46386581D01*
X23233812Y-46559657D01*
X23444927Y-46672500D01*
X23233812Y-46785343D01*
X23022919Y-46958419D01*
X22849843Y-47169312D01*
X22721236Y-47409919D01*
X22642040Y-47670993D01*
X22615299Y-47942500D01*
X22642040Y-48214007D01*
X22721236Y-48475081D01*
X22849843Y-48715688D01*
X23022919Y-48926581D01*
X23233812Y-49099657D01*
X23444927Y-49212500D01*
X23233812Y-49325343D01*
X23022919Y-49498419D01*
X22849843Y-49709312D01*
X22721236Y-49949919D01*
X22642040Y-50210993D01*
X22615299Y-50482500D01*
X22642040Y-50754007D01*
X22721236Y-51015081D01*
X22849843Y-51255688D01*
X23022919Y-51466581D01*
X23233812Y-51639657D01*
X23444927Y-51752500D01*
X23233812Y-51865343D01*
X23022919Y-52038419D01*
X22849843Y-52249312D01*
X22721236Y-52489919D01*
X22642040Y-52750993D01*
X22615299Y-53022500D01*
X22642040Y-53294007D01*
X22721236Y-53555081D01*
X22849843Y-53795688D01*
X23022919Y-54006581D01*
X23233812Y-54179657D01*
X23444927Y-54292500D01*
X23233812Y-54405343D01*
X23022919Y-54578419D01*
X22849843Y-54789312D01*
X22721236Y-55029919D01*
X22642040Y-55290993D01*
X22615299Y-55562500D01*
X22642040Y-55834007D01*
X22721236Y-56095081D01*
X22849843Y-56335688D01*
X23022919Y-56546581D01*
X23233812Y-56719657D01*
X23474419Y-56848264D01*
X23735493Y-56927460D01*
X23938963Y-56947500D01*
X24575037Y-56947500D01*
X24778507Y-56927460D01*
X25039581Y-56848264D01*
X25280188Y-56719657D01*
X25491081Y-56546581D01*
X25664157Y-56335688D01*
X25792764Y-56095081D01*
X25871960Y-55834007D01*
X25898701Y-55562500D01*
X25871960Y-55290993D01*
X25792764Y-55029919D01*
X25664157Y-54789312D01*
X25491081Y-54578419D01*
X25280188Y-54405343D01*
X25069073Y-54292500D01*
X25280188Y-54179657D01*
X25491081Y-54006581D01*
X25664157Y-53795688D01*
X25792764Y-53555081D01*
X25871960Y-53294007D01*
X25898701Y-53022500D01*
X25871960Y-52750993D01*
X25792764Y-52489919D01*
X25664157Y-52249312D01*
X25491081Y-52038419D01*
X25280188Y-51865343D01*
X25069073Y-51752500D01*
X25280188Y-51639657D01*
X25491081Y-51466581D01*
X25664157Y-51255688D01*
X25792764Y-51015081D01*
X25871960Y-50754007D01*
X25898701Y-50482500D01*
X25871960Y-50210993D01*
X25792764Y-49949919D01*
X25664157Y-49709312D01*
X25491081Y-49498419D01*
X25280188Y-49325343D01*
X25069073Y-49212500D01*
X25280188Y-49099657D01*
X25491081Y-48926581D01*
X25664157Y-48715688D01*
X25792764Y-48475081D01*
X25871960Y-48214007D01*
X25898701Y-47942500D01*
X25871960Y-47670993D01*
X25792764Y-47409919D01*
X25664157Y-47169312D01*
X25491081Y-46958419D01*
X25280188Y-46785343D01*
X25069073Y-46672500D01*
X25280188Y-46559657D01*
X25491081Y-46386581D01*
X25664157Y-46175688D01*
X25792764Y-45935081D01*
X25871960Y-45674007D01*
X25898701Y-45402500D01*
X25871960Y-45130993D01*
X25792764Y-44869919D01*
X25664157Y-44629312D01*
X25491081Y-44418419D01*
X25280188Y-44245343D01*
X25069073Y-44132500D01*
X25280188Y-44019657D01*
X25491081Y-43846581D01*
X25664157Y-43635688D01*
X25792764Y-43395081D01*
X25871960Y-43134007D01*
X25898701Y-42862500D01*
X25871960Y-42590993D01*
X25792764Y-42329919D01*
X25664157Y-42089312D01*
X25491081Y-41878419D01*
X25280188Y-41705343D01*
X25069073Y-41592500D01*
X25280188Y-41479657D01*
X25491081Y-41306581D01*
X25664157Y-41095688D01*
X25792764Y-40855081D01*
X25871960Y-40594007D01*
X25898701Y-40322500D01*
X25871960Y-40050993D01*
X25792764Y-39789919D01*
X25664157Y-39549312D01*
X25491081Y-39338419D01*
X25280188Y-39165343D01*
X25069073Y-39052500D01*
X25280188Y-38939657D01*
X25491081Y-38766581D01*
X25664157Y-38555688D01*
X25792764Y-38315081D01*
X25871960Y-38054007D01*
X25898701Y-37782500D01*
X25871960Y-37510993D01*
X25792764Y-37249919D01*
X25664157Y-37009312D01*
X25491081Y-36798419D01*
X25280188Y-36625343D01*
X25069073Y-36512500D01*
X25280188Y-36399657D01*
X25491081Y-36226581D01*
X25664157Y-36015688D01*
X25792764Y-35775081D01*
X25871960Y-35514007D01*
X25898701Y-35242500D01*
X25871960Y-34970993D01*
X25792764Y-34709919D01*
X25664157Y-34469312D01*
X25491081Y-34258419D01*
X25280188Y-34085343D01*
X25069073Y-33972500D01*
X25280188Y-33859657D01*
X25491081Y-33686581D01*
X25664157Y-33475688D01*
X25792764Y-33235081D01*
X25871960Y-32974007D01*
X25898701Y-32702500D01*
X25871960Y-32430993D01*
X25792764Y-32169919D01*
X25664157Y-31929312D01*
X25491081Y-31718419D01*
X25280188Y-31545343D01*
X25069073Y-31432500D01*
X25280188Y-31319657D01*
X25491081Y-31146581D01*
X25664157Y-30935688D01*
X25792764Y-30695081D01*
X25871960Y-30434007D01*
X25898701Y-30162500D01*
X25871960Y-29890993D01*
X25792764Y-29629919D01*
X25664157Y-29389312D01*
X25491081Y-29178419D01*
X25280188Y-29005343D01*
X25069073Y-28892500D01*
X25280188Y-28779657D01*
X25491081Y-28606581D01*
X25664157Y-28395688D01*
X25792764Y-28155081D01*
X25871960Y-27894007D01*
X25898701Y-27622500D01*
X25871960Y-27350993D01*
X25792764Y-27089919D01*
X25664157Y-26849312D01*
X25491081Y-26638419D01*
X25280188Y-26465343D01*
X25071972Y-26354049D01*
X25128724Y-26332468D01*
X25360634Y-26187158D01*
X25559740Y-25999397D01*
X25718390Y-25776400D01*
X25830487Y-25526736D01*
X25849318Y-25423685D01*
X25726656Y-25209500D01*
X24384000Y-25209500D01*
X24384000Y-25229500D01*
X24130000Y-25229500D01*
X24130000Y-25209500D01*
X22787344Y-25209500D01*
X22664682Y-25423685D01*
X22683513Y-25526736D01*
X22795610Y-25776400D01*
X22954260Y-25999397D01*
X23153366Y-26187158D01*
X23385276Y-26332468D01*
X23442028Y-26354049D01*
X23233812Y-26465343D01*
X23022919Y-26638419D01*
X22849843Y-26849312D01*
X22721236Y-27089919D01*
X22642040Y-27350993D01*
X22615299Y-27622500D01*
X22642040Y-27894007D01*
X22712796Y-28127258D01*
X22555554Y-28284500D01*
X20134264Y-28284500D01*
X20117918Y-28245037D01*
X19938987Y-27977248D01*
X19711252Y-27749513D01*
X19443463Y-27570582D01*
X19404000Y-27554236D01*
X19404000Y-26647572D01*
X19469000Y-26647572D01*
X19593482Y-26635312D01*
X19713180Y-26599002D01*
X19823494Y-26540037D01*
X19920185Y-26460685D01*
X19999537Y-26363994D01*
X20058502Y-26253680D01*
X20094812Y-26133982D01*
X20107072Y-26009500D01*
X20107072Y-24409500D01*
X20094812Y-24285018D01*
X20058502Y-24165320D01*
X19999537Y-24055006D01*
X19920185Y-23958315D01*
X19907242Y-23947693D01*
X20026571Y-23695504D01*
X20095300Y-23421316D01*
X20109217Y-23138988D01*
X20067787Y-22859370D01*
X19972603Y-22593208D01*
X19905671Y-22467986D01*
X19661702Y-22396403D01*
X18848605Y-23209500D01*
X18862748Y-23223643D01*
X18683143Y-23403248D01*
X18669000Y-23389105D01*
X18654858Y-23403248D01*
X18475253Y-23223643D01*
X18489395Y-23209500D01*
X17676298Y-22396403D01*
X17432329Y-22467986D01*
X17311429Y-22723496D01*
X17242700Y-22997684D01*
X17228783Y-23280012D01*
X17270213Y-23559630D01*
X17365397Y-23825792D01*
X17430616Y-23947809D01*
X17417815Y-23958315D01*
X17338463Y-24055006D01*
X17279498Y-24165320D01*
X17243188Y-24285018D01*
X17230928Y-24409500D01*
X17230928Y-26009500D01*
X17243188Y-26133982D01*
X17279498Y-26253680D01*
X17338463Y-26363994D01*
X17417815Y-26460685D01*
X17514506Y-26540037D01*
X17624820Y-26599002D01*
X17744518Y-26635312D01*
X17869000Y-26647572D01*
X17934001Y-26647572D01*
X17934000Y-27554236D01*
X17894537Y-27570582D01*
X17626748Y-27749513D01*
X17399013Y-27977248D01*
X17220082Y-28245037D01*
X17096832Y-28542588D01*
X17034000Y-28858467D01*
X17034000Y-29180533D01*
X17096832Y-29496412D01*
X17113178Y-29535875D01*
X12459808Y-34189246D01*
X12431762Y-34212263D01*
X12339913Y-34324181D01*
X12271663Y-34451868D01*
X12244225Y-34542320D01*
X12236586Y-34567502D01*
X12039241Y-34699363D01*
X11839363Y-34899241D01*
X11684000Y-35131759D01*
X11528637Y-34899241D01*
X11328759Y-34699363D01*
X11093727Y-34542320D01*
X10832574Y-34434147D01*
X10555335Y-34379000D01*
X10272665Y-34379000D01*
X9995426Y-34434147D01*
X9734273Y-34542320D01*
X9499241Y-34699363D01*
X9299363Y-34899241D01*
X9144000Y-35131759D01*
X8988637Y-34899241D01*
X8788759Y-34699363D01*
X8553727Y-34542320D01*
X8292574Y-34434147D01*
X8015335Y-34379000D01*
X7732665Y-34379000D01*
X7458999Y-34433436D01*
X7458999Y-29620093D01*
X7462554Y-29583998D01*
X7461677Y-29575096D01*
X7732665Y-29629000D01*
X8015335Y-29629000D01*
X8292574Y-29573853D01*
X8553727Y-29465680D01*
X8788759Y-29308637D01*
X8988637Y-29108759D01*
X9145680Y-28873727D01*
X9150067Y-28863135D01*
X9261615Y-29049131D01*
X9450586Y-29257519D01*
X9676580Y-29425037D01*
X9930913Y-29545246D01*
X10064961Y-29585904D01*
X10287000Y-29463915D01*
X10287000Y-28321000D01*
X10267000Y-28321000D01*
X10267000Y-28067000D01*
X10287000Y-28067000D01*
X10287000Y-26924085D01*
X10541000Y-26924085D01*
X10541000Y-28067000D01*
X10561000Y-28067000D01*
X10561000Y-28321000D01*
X10541000Y-28321000D01*
X10541000Y-29463915D01*
X10763039Y-29585904D01*
X10897087Y-29545246D01*
X11151420Y-29425037D01*
X11377414Y-29257519D01*
X11566385Y-29049131D01*
X11677933Y-28863135D01*
X11682320Y-28873727D01*
X11839363Y-29108759D01*
X12039241Y-29308637D01*
X12274273Y-29465680D01*
X12535426Y-29573853D01*
X12812665Y-29629000D01*
X13095335Y-29629000D01*
X13372574Y-29573853D01*
X13633727Y-29465680D01*
X13868759Y-29308637D01*
X14068637Y-29108759D01*
X14225680Y-28873727D01*
X14333853Y-28612574D01*
X14389000Y-28335335D01*
X14389000Y-28052665D01*
X14333853Y-27775426D01*
X14225680Y-27514273D01*
X14068637Y-27279241D01*
X13868759Y-27079363D01*
X13633727Y-26922320D01*
X13372574Y-26814147D01*
X13095335Y-26759000D01*
X12812665Y-26759000D01*
X12535426Y-26814147D01*
X12274273Y-26922320D01*
X12039241Y-27079363D01*
X11839363Y-27279241D01*
X11682320Y-27514273D01*
X11677933Y-27524865D01*
X11566385Y-27338869D01*
X11377414Y-27130481D01*
X11151420Y-26962963D01*
X10897087Y-26842754D01*
X10763039Y-26802096D01*
X10541000Y-26924085D01*
X10287000Y-26924085D01*
X10220111Y-26887336D01*
X12083193Y-25024254D01*
X12111238Y-25001238D01*
X12203087Y-24889320D01*
X12271337Y-24761633D01*
X12313365Y-24623085D01*
X12324000Y-24515105D01*
X12324000Y-24515096D01*
X12327555Y-24479001D01*
X12324000Y-24442906D01*
X12324000Y-22216798D01*
X17855903Y-22216798D01*
X18669000Y-23029895D01*
X19482097Y-22216798D01*
X19410514Y-21972829D01*
X19155004Y-21851929D01*
X18880816Y-21783200D01*
X18598488Y-21769283D01*
X18318870Y-21810713D01*
X18052708Y-21905897D01*
X17927486Y-21972829D01*
X17855903Y-22216798D01*
X12324000Y-22216798D01*
X12324000Y-22139072D01*
X12389000Y-22139072D01*
X12513482Y-22126812D01*
X12633180Y-22090502D01*
X12743494Y-22031537D01*
X12840185Y-21952185D01*
X12850807Y-21939242D01*
X13102996Y-22058571D01*
X13377184Y-22127300D01*
X13659512Y-22141217D01*
X13939130Y-22099787D01*
X14205292Y-22004603D01*
X14330514Y-21937671D01*
X14402097Y-21693702D01*
X13589000Y-20880605D01*
X13574858Y-20894748D01*
X13395253Y-20715143D01*
X13409395Y-20701000D01*
X13768605Y-20701000D01*
X14581702Y-21514097D01*
X14825671Y-21442514D01*
X14946571Y-21187004D01*
X15015300Y-20912816D01*
X15029217Y-20630488D01*
X14987787Y-20350870D01*
X14892603Y-20084708D01*
X14848663Y-20002500D01*
X22615299Y-20002500D01*
X22642040Y-20274007D01*
X22721236Y-20535081D01*
X22849843Y-20775688D01*
X23022919Y-20986581D01*
X23233812Y-21159657D01*
X23444927Y-21272500D01*
X23233812Y-21385343D01*
X23022919Y-21558419D01*
X22849843Y-21769312D01*
X22721236Y-22009919D01*
X22642040Y-22270993D01*
X22615299Y-22542500D01*
X22642040Y-22814007D01*
X22721236Y-23075081D01*
X22849843Y-23315688D01*
X23022919Y-23526581D01*
X23233812Y-23699657D01*
X23442028Y-23810951D01*
X23385276Y-23832532D01*
X23153366Y-23977842D01*
X22954260Y-24165603D01*
X22795610Y-24388600D01*
X22683513Y-24638264D01*
X22664682Y-24741315D01*
X22787344Y-24955500D01*
X24130000Y-24955500D01*
X24130000Y-24935500D01*
X24384000Y-24935500D01*
X24384000Y-24955500D01*
X25726656Y-24955500D01*
X25849318Y-24741315D01*
X25830487Y-24638264D01*
X25718390Y-24388600D01*
X25559740Y-24165603D01*
X25360634Y-23977842D01*
X25128724Y-23832532D01*
X25071972Y-23810951D01*
X25280188Y-23699657D01*
X25491081Y-23526581D01*
X25664157Y-23315688D01*
X25792764Y-23075081D01*
X25871960Y-22814007D01*
X25898701Y-22542500D01*
X25871960Y-22270993D01*
X25792764Y-22009919D01*
X25664157Y-21769312D01*
X25491081Y-21558419D01*
X25280188Y-21385343D01*
X25069073Y-21272500D01*
X25280188Y-21159657D01*
X25491081Y-20986581D01*
X25664157Y-20775688D01*
X25792764Y-20535081D01*
X25871960Y-20274007D01*
X25898701Y-20002500D01*
X40395299Y-20002500D01*
X40422040Y-20274007D01*
X40501236Y-20535081D01*
X40629843Y-20775688D01*
X40802919Y-20986581D01*
X41013812Y-21159657D01*
X41224927Y-21272500D01*
X41013812Y-21385343D01*
X40802919Y-21558419D01*
X40629843Y-21769312D01*
X40501236Y-22009919D01*
X40422040Y-22270993D01*
X40395299Y-22542500D01*
X40422040Y-22814007D01*
X40501236Y-23075081D01*
X40629843Y-23315688D01*
X40802919Y-23526581D01*
X41013812Y-23699657D01*
X41224927Y-23812500D01*
X41013812Y-23925343D01*
X40802919Y-24098419D01*
X40629843Y-24309312D01*
X40501236Y-24549919D01*
X40422040Y-24810993D01*
X40395299Y-25082500D01*
X40422040Y-25354007D01*
X40501236Y-25615081D01*
X40629843Y-25855688D01*
X40802919Y-26066581D01*
X41013812Y-26239657D01*
X41224927Y-26352500D01*
X41013812Y-26465343D01*
X40802919Y-26638419D01*
X40629843Y-26849312D01*
X40501236Y-27089919D01*
X40422040Y-27350993D01*
X40395299Y-27622500D01*
X40422040Y-27894007D01*
X40501236Y-28155081D01*
X40629843Y-28395688D01*
X40802919Y-28606581D01*
X41013812Y-28779657D01*
X41224927Y-28892500D01*
X41013812Y-29005343D01*
X40802919Y-29178419D01*
X40629843Y-29389312D01*
X40501236Y-29629919D01*
X40422040Y-29890993D01*
X40395299Y-30162500D01*
X40422040Y-30434007D01*
X40501236Y-30695081D01*
X40629843Y-30935688D01*
X40802919Y-31146581D01*
X41013812Y-31319657D01*
X41224927Y-31432500D01*
X41013812Y-31545343D01*
X40802919Y-31718419D01*
X40629843Y-31929312D01*
X40501236Y-32169919D01*
X40422040Y-32430993D01*
X40395299Y-32702500D01*
X40422040Y-32974007D01*
X40501236Y-33235081D01*
X40629843Y-33475688D01*
X40802919Y-33686581D01*
X41013812Y-33859657D01*
X41224927Y-33972500D01*
X41013812Y-34085343D01*
X40802919Y-34258419D01*
X40629843Y-34469312D01*
X40501236Y-34709919D01*
X40422040Y-34970993D01*
X40395299Y-35242500D01*
X40422040Y-35514007D01*
X40501236Y-35775081D01*
X40629843Y-36015688D01*
X40802919Y-36226581D01*
X41013812Y-36399657D01*
X41224927Y-36512500D01*
X41013812Y-36625343D01*
X40802919Y-36798419D01*
X40629843Y-37009312D01*
X40501236Y-37249919D01*
X40422040Y-37510993D01*
X40395299Y-37782500D01*
X40422040Y-38054007D01*
X40501236Y-38315081D01*
X40629843Y-38555688D01*
X40802919Y-38766581D01*
X41013812Y-38939657D01*
X41224927Y-39052500D01*
X41013812Y-39165343D01*
X40802919Y-39338419D01*
X40629843Y-39549312D01*
X40501236Y-39789919D01*
X40422040Y-40050993D01*
X40395299Y-40322500D01*
X40422040Y-40594007D01*
X40501236Y-40855081D01*
X40629843Y-41095688D01*
X40802919Y-41306581D01*
X41013812Y-41479657D01*
X41224927Y-41592500D01*
X41013812Y-41705343D01*
X40802919Y-41878419D01*
X40629843Y-42089312D01*
X40501236Y-42329919D01*
X40422040Y-42590993D01*
X40395299Y-42862500D01*
X40422040Y-43134007D01*
X40501236Y-43395081D01*
X40629843Y-43635688D01*
X40802919Y-43846581D01*
X41013812Y-44019657D01*
X41224927Y-44132500D01*
X41013812Y-44245343D01*
X40802919Y-44418419D01*
X40629843Y-44629312D01*
X40501236Y-44869919D01*
X40422040Y-45130993D01*
X40395299Y-45402500D01*
X40422040Y-45674007D01*
X40501236Y-45935081D01*
X40629843Y-46175688D01*
X40802919Y-46386581D01*
X41013812Y-46559657D01*
X41224927Y-46672500D01*
X41013812Y-46785343D01*
X40802919Y-46958419D01*
X40629843Y-47169312D01*
X40501236Y-47409919D01*
X40422040Y-47670993D01*
X40395299Y-47942500D01*
X40422040Y-48214007D01*
X40501236Y-48475081D01*
X40629843Y-48715688D01*
X40802919Y-48926581D01*
X41013812Y-49099657D01*
X41224927Y-49212500D01*
X41013812Y-49325343D01*
X40802919Y-49498419D01*
X40629843Y-49709312D01*
X40501236Y-49949919D01*
X40422040Y-50210993D01*
X40395299Y-50482500D01*
X40422040Y-50754007D01*
X40501236Y-51015081D01*
X40629843Y-51255688D01*
X40802919Y-51466581D01*
X41013812Y-51639657D01*
X41224927Y-51752500D01*
X41013812Y-51865343D01*
X40802919Y-52038419D01*
X40629843Y-52249312D01*
X40501236Y-52489919D01*
X40422040Y-52750993D01*
X40395299Y-53022500D01*
X40422040Y-53294007D01*
X40501236Y-53555081D01*
X40629843Y-53795688D01*
X40802919Y-54006581D01*
X41013812Y-54179657D01*
X41224927Y-54292500D01*
X41013812Y-54405343D01*
X40802919Y-54578419D01*
X40629843Y-54789312D01*
X40501236Y-55029919D01*
X40422040Y-55290993D01*
X40395299Y-55562500D01*
X40422040Y-55834007D01*
X40501236Y-56095081D01*
X40629843Y-56335688D01*
X40802919Y-56546581D01*
X41013812Y-56719657D01*
X41254419Y-56848264D01*
X41515493Y-56927460D01*
X41718963Y-56947500D01*
X42355037Y-56947500D01*
X42558507Y-56927460D01*
X42819581Y-56848264D01*
X43060188Y-56719657D01*
X43271081Y-56546581D01*
X43444157Y-56335688D01*
X43572764Y-56095081D01*
X43651960Y-55834007D01*
X43678701Y-55562500D01*
X43651960Y-55290993D01*
X43572764Y-55029919D01*
X43444157Y-54789312D01*
X43271081Y-54578419D01*
X43060188Y-54405343D01*
X42849073Y-54292500D01*
X43060188Y-54179657D01*
X43271081Y-54006581D01*
X43444157Y-53795688D01*
X43572764Y-53555081D01*
X43651960Y-53294007D01*
X43678701Y-53022500D01*
X43651960Y-52750993D01*
X43572764Y-52489919D01*
X43444157Y-52249312D01*
X43271081Y-52038419D01*
X43060188Y-51865343D01*
X42849073Y-51752500D01*
X43060188Y-51639657D01*
X43271081Y-51466581D01*
X43444157Y-51255688D01*
X43524824Y-51104770D01*
X48858500Y-56438447D01*
X48858501Y-58582252D01*
X48678741Y-58702363D01*
X48478863Y-58902241D01*
X48321820Y-59137273D01*
X48213647Y-59398426D01*
X48158500Y-59675665D01*
X48158500Y-59958335D01*
X48213647Y-60235574D01*
X48321820Y-60496727D01*
X48478863Y-60731759D01*
X48678741Y-60931637D01*
X48913773Y-61088680D01*
X49174926Y-61196853D01*
X49452165Y-61252000D01*
X49734835Y-61252000D01*
X50012074Y-61196853D01*
X50273227Y-61088680D01*
X50508259Y-60931637D01*
X50708137Y-60731759D01*
X50865180Y-60496727D01*
X50973353Y-60235574D01*
X51028500Y-59958335D01*
X51028500Y-59675665D01*
X50973353Y-59398426D01*
X50865180Y-59137273D01*
X50708137Y-58902241D01*
X50508259Y-58702363D01*
X50328500Y-58582252D01*
X50328500Y-56170094D01*
X50332055Y-56133999D01*
X50328500Y-56097904D01*
X50328500Y-56097895D01*
X50317865Y-55989915D01*
X50275837Y-55851367D01*
X50207587Y-55723680D01*
X50151484Y-55655319D01*
X50138753Y-55639806D01*
X50138750Y-55639803D01*
X50115737Y-55611762D01*
X50087698Y-55588751D01*
X44122010Y-49623064D01*
X44122010Y-46788604D01*
X44125565Y-46752509D01*
X44122010Y-46716414D01*
X44122010Y-46716405D01*
X44111375Y-46608425D01*
X44069347Y-46469877D01*
X44001097Y-46342190D01*
X43984524Y-46321997D01*
X43932263Y-46258316D01*
X43932260Y-46258313D01*
X43909247Y-46230272D01*
X43881207Y-46207260D01*
X43581204Y-45907257D01*
X43651960Y-45674007D01*
X43666046Y-45530992D01*
X48858500Y-50723447D01*
X48858500Y-50962252D01*
X48678741Y-51082363D01*
X48478863Y-51282241D01*
X48321820Y-51517273D01*
X48213647Y-51778426D01*
X48158500Y-52055665D01*
X48158500Y-52338335D01*
X48213647Y-52615574D01*
X48321820Y-52876727D01*
X48478863Y-53111759D01*
X48678741Y-53311637D01*
X48913773Y-53468680D01*
X49174926Y-53576853D01*
X49452165Y-53632000D01*
X49734835Y-53632000D01*
X50012074Y-53576853D01*
X50273227Y-53468680D01*
X50508259Y-53311637D01*
X50708137Y-53111759D01*
X50865180Y-52876727D01*
X50973353Y-52615574D01*
X51028500Y-52338335D01*
X51028500Y-52055665D01*
X50973353Y-51778426D01*
X50865180Y-51517273D01*
X50708137Y-51282241D01*
X50508259Y-51082363D01*
X50328500Y-50962252D01*
X50328500Y-50455105D01*
X50332056Y-50419000D01*
X50317865Y-50274915D01*
X50315619Y-50267512D01*
X50275837Y-50136367D01*
X50207587Y-50008680D01*
X50159884Y-49950554D01*
X50138753Y-49924806D01*
X50138750Y-49924803D01*
X50115737Y-49896762D01*
X50087698Y-49873751D01*
X43581204Y-43367258D01*
X43651960Y-43134007D01*
X43678701Y-42862500D01*
X43651960Y-42590993D01*
X43572764Y-42329919D01*
X43444157Y-42089312D01*
X43271081Y-41878419D01*
X43060188Y-41705343D01*
X42849073Y-41592500D01*
X43060188Y-41479657D01*
X43271081Y-41306581D01*
X43444157Y-41095688D01*
X43572764Y-40855081D01*
X43651960Y-40594007D01*
X43678701Y-40322500D01*
X43651960Y-40050993D01*
X43572764Y-39789919D01*
X43444157Y-39549312D01*
X43271081Y-39338419D01*
X43060188Y-39165343D01*
X42849073Y-39052500D01*
X43060188Y-38939657D01*
X43271081Y-38766581D01*
X43444157Y-38555688D01*
X43572764Y-38315081D01*
X43651960Y-38054007D01*
X43678701Y-37782500D01*
X43651960Y-37510993D01*
X43633660Y-37450665D01*
X47523500Y-37450665D01*
X47523500Y-37733335D01*
X47578647Y-38010574D01*
X47686820Y-38271727D01*
X47843863Y-38506759D01*
X48043741Y-38706637D01*
X48223500Y-38826748D01*
X48223501Y-42707252D01*
X48043741Y-42827363D01*
X47843863Y-43027241D01*
X47686820Y-43262273D01*
X47578647Y-43523426D01*
X47523500Y-43800665D01*
X47523500Y-44083335D01*
X47578647Y-44360574D01*
X47686820Y-44621727D01*
X47843863Y-44856759D01*
X48043741Y-45056637D01*
X48278773Y-45213680D01*
X48539926Y-45321853D01*
X48817165Y-45377000D01*
X49099835Y-45377000D01*
X49377074Y-45321853D01*
X49638227Y-45213680D01*
X49873259Y-45056637D01*
X50073137Y-44856759D01*
X50230180Y-44621727D01*
X50338353Y-44360574D01*
X50393500Y-44083335D01*
X50393500Y-43800665D01*
X50338353Y-43523426D01*
X50230180Y-43262273D01*
X50073137Y-43027241D01*
X49873259Y-42827363D01*
X49693500Y-42707252D01*
X49693500Y-38826748D01*
X49873259Y-38706637D01*
X50073137Y-38506759D01*
X50230180Y-38271727D01*
X50338353Y-38010574D01*
X50393500Y-37733335D01*
X50393500Y-37450665D01*
X50338353Y-37173426D01*
X50230180Y-36912273D01*
X50073137Y-36677241D01*
X49873259Y-36477363D01*
X49638227Y-36320320D01*
X49377074Y-36212147D01*
X49099835Y-36157000D01*
X48817165Y-36157000D01*
X48539926Y-36212147D01*
X48278773Y-36320320D01*
X48043741Y-36477363D01*
X47843863Y-36677241D01*
X47686820Y-36912273D01*
X47578647Y-37173426D01*
X47523500Y-37450665D01*
X43633660Y-37450665D01*
X43572764Y-37249919D01*
X43444157Y-37009312D01*
X43271081Y-36798419D01*
X43060188Y-36625343D01*
X42849073Y-36512500D01*
X43060188Y-36399657D01*
X43271081Y-36226581D01*
X43444157Y-36015688D01*
X43572764Y-35775081D01*
X43651960Y-35514007D01*
X43678701Y-35242500D01*
X43651960Y-34970993D01*
X43572764Y-34709919D01*
X43444157Y-34469312D01*
X43271081Y-34258419D01*
X43060188Y-34085343D01*
X42849073Y-33972500D01*
X43060188Y-33859657D01*
X43271081Y-33686581D01*
X43444157Y-33475688D01*
X43572764Y-33235081D01*
X43651960Y-32974007D01*
X43678701Y-32702500D01*
X43651960Y-32430993D01*
X43572764Y-32169919D01*
X43444157Y-31929312D01*
X43271081Y-31718419D01*
X43060188Y-31545343D01*
X42849073Y-31432500D01*
X43060188Y-31319657D01*
X43271081Y-31146581D01*
X43444157Y-30935688D01*
X43572764Y-30695081D01*
X43642356Y-30465665D01*
X47523500Y-30465665D01*
X47523500Y-30748335D01*
X47578647Y-31025574D01*
X47686820Y-31286727D01*
X47843863Y-31521759D01*
X48043741Y-31721637D01*
X48278773Y-31878680D01*
X48539926Y-31986853D01*
X48817165Y-32042000D01*
X49099835Y-32042000D01*
X49377074Y-31986853D01*
X49638227Y-31878680D01*
X49873259Y-31721637D01*
X50073137Y-31521759D01*
X50230180Y-31286727D01*
X50338353Y-31025574D01*
X50393500Y-30748335D01*
X50393500Y-30465665D01*
X50338353Y-30188426D01*
X50230180Y-29927273D01*
X50073137Y-29692241D01*
X49873259Y-29492363D01*
X49693500Y-29372252D01*
X49693500Y-19624446D01*
X52999481Y-16318466D01*
X53074506Y-16380037D01*
X53184820Y-16439002D01*
X53304518Y-16475312D01*
X53312961Y-16476143D01*
X53114363Y-16674741D01*
X52957320Y-16909773D01*
X52849147Y-17170926D01*
X52794000Y-17448165D01*
X52794000Y-17730835D01*
X52849147Y-18008074D01*
X52957320Y-18269227D01*
X53114363Y-18504259D01*
X53314241Y-18704137D01*
X53546759Y-18859500D01*
X53314241Y-19014863D01*
X53114363Y-19214741D01*
X52957320Y-19449773D01*
X52849147Y-19710926D01*
X52794000Y-19988165D01*
X52794000Y-20270835D01*
X52836178Y-20482876D01*
X52584807Y-20734247D01*
X52556761Y-20757264D01*
X52464912Y-20869182D01*
X52396662Y-20996869D01*
X52380202Y-21051130D01*
X52354634Y-21135416D01*
X52340443Y-21279501D01*
X52343999Y-21315606D01*
X52344000Y-55646384D01*
X52340443Y-55682499D01*
X52354634Y-55826584D01*
X52392514Y-55951454D01*
X52396663Y-55965132D01*
X52464913Y-56092819D01*
X52556762Y-56204737D01*
X52584807Y-56227753D01*
X54735981Y-58378928D01*
X55820678Y-59463625D01*
X55778500Y-59675665D01*
X55778500Y-59958335D01*
X55833647Y-60235574D01*
X55941820Y-60496727D01*
X56098863Y-60731759D01*
X56298741Y-60931637D01*
X56533773Y-61088680D01*
X56794926Y-61196853D01*
X57072165Y-61252000D01*
X57354835Y-61252000D01*
X57632074Y-61196853D01*
X57893227Y-61088680D01*
X58128259Y-60931637D01*
X58328137Y-60731759D01*
X58448248Y-60552000D01*
X62125428Y-60552000D01*
X62125428Y-60617000D01*
X62137688Y-60741482D01*
X62173998Y-60861180D01*
X62232963Y-60971494D01*
X62312315Y-61068185D01*
X62409006Y-61147537D01*
X62519320Y-61206502D01*
X62639018Y-61242812D01*
X62763500Y-61255072D01*
X64363500Y-61255072D01*
X64487982Y-61242812D01*
X64607680Y-61206502D01*
X64717994Y-61147537D01*
X64814685Y-61068185D01*
X64894037Y-60971494D01*
X64953002Y-60861180D01*
X64989312Y-60741482D01*
X65001572Y-60617000D01*
X65001572Y-59017000D01*
X64989312Y-58892518D01*
X64953002Y-58772820D01*
X64894037Y-58662506D01*
X64814685Y-58565815D01*
X64801742Y-58555193D01*
X64921071Y-58303004D01*
X64989800Y-58028816D01*
X65003717Y-57746488D01*
X64962287Y-57466870D01*
X64867103Y-57200708D01*
X64800171Y-57075486D01*
X64556202Y-57003903D01*
X63743105Y-57817000D01*
X63757248Y-57831143D01*
X63577643Y-58010748D01*
X63563500Y-57996605D01*
X63549358Y-58010748D01*
X63369753Y-57831143D01*
X63383895Y-57817000D01*
X62570798Y-57003903D01*
X62326829Y-57075486D01*
X62205929Y-57330996D01*
X62137200Y-57605184D01*
X62123283Y-57887512D01*
X62164713Y-58167130D01*
X62259897Y-58433292D01*
X62325116Y-58555309D01*
X62312315Y-58565815D01*
X62232963Y-58662506D01*
X62173998Y-58772820D01*
X62137688Y-58892518D01*
X62125428Y-59017000D01*
X62125428Y-59082000D01*
X58448248Y-59082000D01*
X58328137Y-58902241D01*
X58128259Y-58702363D01*
X57893227Y-58545320D01*
X57632074Y-58437147D01*
X57354835Y-58382000D01*
X57072165Y-58382000D01*
X56860125Y-58424178D01*
X55731998Y-57296051D01*
X55260245Y-56824298D01*
X62750403Y-56824298D01*
X63563500Y-57637395D01*
X64376597Y-56824298D01*
X64305014Y-56580329D01*
X64049504Y-56459429D01*
X63775316Y-56390700D01*
X63492988Y-56376783D01*
X63213370Y-56418213D01*
X62947208Y-56513397D01*
X62821986Y-56580329D01*
X62750403Y-56824298D01*
X55260245Y-56824298D01*
X53813999Y-55378053D01*
X53813999Y-49204298D01*
X62750403Y-49204298D01*
X63563500Y-50017395D01*
X64376597Y-49204298D01*
X64305014Y-48960329D01*
X64049504Y-48839429D01*
X63775316Y-48770700D01*
X63492988Y-48756783D01*
X63213370Y-48798213D01*
X62947208Y-48893397D01*
X62821986Y-48960329D01*
X62750403Y-49204298D01*
X53813999Y-49204298D01*
X53813999Y-44291039D01*
X55186596Y-44291039D01*
X55227254Y-44425087D01*
X55347463Y-44679420D01*
X55514981Y-44905414D01*
X55723369Y-45094385D01*
X55964619Y-45239070D01*
X56229460Y-45333909D01*
X56451500Y-45212624D01*
X56451500Y-44069000D01*
X56705500Y-44069000D01*
X56705500Y-45212624D01*
X56927540Y-45333909D01*
X57192381Y-45239070D01*
X57433631Y-45094385D01*
X57642019Y-44905414D01*
X57809537Y-44679420D01*
X57929746Y-44425087D01*
X57970404Y-44291039D01*
X60266596Y-44291039D01*
X60307254Y-44425087D01*
X60427463Y-44679420D01*
X60594981Y-44905414D01*
X60803369Y-45094385D01*
X61044619Y-45239070D01*
X61309460Y-45333909D01*
X61531500Y-45212624D01*
X61531500Y-44069000D01*
X61785500Y-44069000D01*
X61785500Y-45212624D01*
X62007540Y-45333909D01*
X62272381Y-45239070D01*
X62513631Y-45094385D01*
X62722019Y-44905414D01*
X62889537Y-44679420D01*
X63009746Y-44425087D01*
X63050404Y-44291039D01*
X62928415Y-44069000D01*
X61785500Y-44069000D01*
X61531500Y-44069000D01*
X60388585Y-44069000D01*
X60266596Y-44291039D01*
X57970404Y-44291039D01*
X57848415Y-44069000D01*
X56705500Y-44069000D01*
X56451500Y-44069000D01*
X55308585Y-44069000D01*
X55186596Y-44291039D01*
X53813999Y-44291039D01*
X53813999Y-43592961D01*
X55186596Y-43592961D01*
X55308585Y-43815000D01*
X56451500Y-43815000D01*
X56451500Y-42671376D01*
X56705500Y-42671376D01*
X56705500Y-43815000D01*
X57848415Y-43815000D01*
X57970404Y-43592961D01*
X60266596Y-43592961D01*
X60388585Y-43815000D01*
X61531500Y-43815000D01*
X61531500Y-42671376D01*
X61785500Y-42671376D01*
X61785500Y-43815000D01*
X62928415Y-43815000D01*
X63050404Y-43592961D01*
X63009746Y-43458913D01*
X62889537Y-43204580D01*
X62722019Y-42978586D01*
X62513631Y-42789615D01*
X62272381Y-42644930D01*
X62007540Y-42550091D01*
X61785500Y-42671376D01*
X61531500Y-42671376D01*
X61309460Y-42550091D01*
X61044619Y-42644930D01*
X60803369Y-42789615D01*
X60594981Y-42978586D01*
X60427463Y-43204580D01*
X60307254Y-43458913D01*
X60266596Y-43592961D01*
X57970404Y-43592961D01*
X57929746Y-43458913D01*
X57809537Y-43204580D01*
X57642019Y-42978586D01*
X57433631Y-42789615D01*
X57192381Y-42644930D01*
X56927540Y-42550091D01*
X56705500Y-42671376D01*
X56451500Y-42671376D01*
X56229460Y-42550091D01*
X55964619Y-42644930D01*
X55723369Y-42789615D01*
X55514981Y-42978586D01*
X55347463Y-43204580D01*
X55227254Y-43458913D01*
X55186596Y-43592961D01*
X53813999Y-43592961D01*
X53813999Y-24037789D01*
X53879960Y-24061409D01*
X54102000Y-23940124D01*
X54102000Y-22796500D01*
X54356000Y-22796500D01*
X54356000Y-23940124D01*
X54578040Y-24061409D01*
X54842881Y-23966570D01*
X55084131Y-23821885D01*
X55292519Y-23632914D01*
X55460037Y-23406920D01*
X55580246Y-23152587D01*
X55620904Y-23018539D01*
X55498915Y-22796500D01*
X54356000Y-22796500D01*
X54102000Y-22796500D01*
X54082000Y-22796500D01*
X54082000Y-22542500D01*
X54102000Y-22542500D01*
X54102000Y-22522500D01*
X54356000Y-22522500D01*
X54356000Y-22542500D01*
X55498915Y-22542500D01*
X55620904Y-22320461D01*
X55580246Y-22186413D01*
X55460037Y-21932080D01*
X55292519Y-21706086D01*
X55084131Y-21517115D01*
X54898135Y-21405567D01*
X54908727Y-21401180D01*
X55143759Y-21244137D01*
X55343637Y-21044259D01*
X55500680Y-20809227D01*
X55608853Y-20548074D01*
X55664000Y-20270835D01*
X55664000Y-20063947D01*
X55843500Y-20243447D01*
X55843501Y-29372252D01*
X55663741Y-29492363D01*
X55463863Y-29692241D01*
X55306820Y-29927273D01*
X55198647Y-30188426D01*
X55143500Y-30465665D01*
X55143500Y-30748335D01*
X55198647Y-31025574D01*
X55306820Y-31286727D01*
X55463863Y-31521759D01*
X55663741Y-31721637D01*
X55843501Y-31841748D01*
X55843500Y-36357252D01*
X55663741Y-36477363D01*
X55463863Y-36677241D01*
X55306820Y-36912273D01*
X55198647Y-37173426D01*
X55143500Y-37450665D01*
X55143500Y-37733335D01*
X55198647Y-38010574D01*
X55306820Y-38271727D01*
X55463863Y-38506759D01*
X55663741Y-38706637D01*
X55898773Y-38863680D01*
X56159926Y-38971853D01*
X56437165Y-39027000D01*
X56719835Y-39027000D01*
X56997074Y-38971853D01*
X57258227Y-38863680D01*
X57493259Y-38706637D01*
X57693137Y-38506759D01*
X57850180Y-38271727D01*
X57958353Y-38010574D01*
X58013500Y-37733335D01*
X58013500Y-37450665D01*
X57958353Y-37173426D01*
X57850180Y-36912273D01*
X57693137Y-36677241D01*
X57493259Y-36477363D01*
X57313500Y-36357252D01*
X57313500Y-31841748D01*
X57493259Y-31721637D01*
X57693137Y-31521759D01*
X57850180Y-31286727D01*
X57958353Y-31025574D01*
X58013500Y-30748335D01*
X58013500Y-30465665D01*
X57958353Y-30188426D01*
X57850180Y-29927273D01*
X57693137Y-29692241D01*
X57493259Y-29492363D01*
X57313500Y-29372252D01*
X57313500Y-19975105D01*
X57317056Y-19939000D01*
X57302865Y-19794915D01*
X57297284Y-19776518D01*
X57260837Y-19656367D01*
X57192587Y-19528680D01*
X57181700Y-19515414D01*
X57123753Y-19444806D01*
X57123750Y-19444803D01*
X57100737Y-19416762D01*
X57072697Y-19393750D01*
X55621822Y-17942876D01*
X55664000Y-17730835D01*
X55664000Y-17448165D01*
X55608853Y-17170926D01*
X55500680Y-16909773D01*
X55343637Y-16674741D01*
X55145039Y-16476143D01*
X55153482Y-16475312D01*
X55273180Y-16439002D01*
X55383494Y-16380037D01*
X55480185Y-16300685D01*
X55559537Y-16203994D01*
X55618502Y-16093680D01*
X55654812Y-15973982D01*
X55667072Y-15849500D01*
X55667072Y-14249500D01*
X55654812Y-14125018D01*
X55618502Y-14005320D01*
X55559537Y-13895006D01*
X55480185Y-13798315D01*
X55383494Y-13718963D01*
X55273180Y-13659998D01*
X55153482Y-13623688D01*
X55029000Y-13611428D01*
X53429000Y-13611428D01*
X53304518Y-13623688D01*
X53184820Y-13659998D01*
X53074506Y-13718963D01*
X52977815Y-13798315D01*
X52898463Y-13895006D01*
X52839498Y-14005320D01*
X52803188Y-14125018D01*
X52790928Y-14249500D01*
X52790928Y-14458189D01*
X52706762Y-14527262D01*
X52683747Y-14555306D01*
X48464308Y-18774746D01*
X48436262Y-18797763D01*
X48344413Y-18909681D01*
X48276163Y-19037368D01*
X48272749Y-19048623D01*
X48234135Y-19175915D01*
X48219944Y-19320000D01*
X48223500Y-19356105D01*
X48223501Y-29372252D01*
X48043741Y-29492363D01*
X47843863Y-29692241D01*
X47686820Y-29927273D01*
X47578647Y-30188426D01*
X47523500Y-30465665D01*
X43642356Y-30465665D01*
X43651960Y-30434007D01*
X43678701Y-30162500D01*
X43651960Y-29890993D01*
X43572764Y-29629919D01*
X43444157Y-29389312D01*
X43271081Y-29178419D01*
X43060188Y-29005343D01*
X42849073Y-28892500D01*
X43060188Y-28779657D01*
X43271081Y-28606581D01*
X43444157Y-28395688D01*
X43572764Y-28155081D01*
X43651960Y-27894007D01*
X43678701Y-27622500D01*
X43651960Y-27350993D01*
X43572764Y-27089919D01*
X43444157Y-26849312D01*
X43271081Y-26638419D01*
X43060188Y-26465343D01*
X42849073Y-26352500D01*
X43060188Y-26239657D01*
X43271081Y-26066581D01*
X43444157Y-25855688D01*
X43572764Y-25615081D01*
X43651960Y-25354007D01*
X43678701Y-25082500D01*
X43651960Y-24810993D01*
X43572764Y-24549919D01*
X43444157Y-24309312D01*
X43271081Y-24098419D01*
X43060188Y-23925343D01*
X42849073Y-23812500D01*
X43060188Y-23699657D01*
X43271081Y-23526581D01*
X43444157Y-23315688D01*
X43572764Y-23075081D01*
X43651960Y-22814007D01*
X43678701Y-22542500D01*
X43651960Y-22270993D01*
X43572764Y-22009919D01*
X43444157Y-21769312D01*
X43271081Y-21558419D01*
X43060188Y-21385343D01*
X42849073Y-21272500D01*
X43060188Y-21159657D01*
X43271081Y-20986581D01*
X43444157Y-20775688D01*
X43572764Y-20535081D01*
X43651960Y-20274007D01*
X43678701Y-20002500D01*
X43651960Y-19730993D01*
X43572764Y-19469919D01*
X43444157Y-19229312D01*
X43271081Y-19018419D01*
X43060188Y-18845343D01*
X42819581Y-18716736D01*
X42558507Y-18637540D01*
X42355037Y-18617500D01*
X41718963Y-18617500D01*
X41515493Y-18637540D01*
X41254419Y-18716736D01*
X41013812Y-18845343D01*
X40802919Y-19018419D01*
X40629843Y-19229312D01*
X40501236Y-19469919D01*
X40422040Y-19730993D01*
X40395299Y-20002500D01*
X25898701Y-20002500D01*
X25871960Y-19730993D01*
X25792764Y-19469919D01*
X25664157Y-19229312D01*
X25491081Y-19018419D01*
X25280188Y-18845343D01*
X25039581Y-18716736D01*
X24778507Y-18637540D01*
X24575037Y-18617500D01*
X23938963Y-18617500D01*
X23735493Y-18637540D01*
X23474419Y-18716736D01*
X23233812Y-18845343D01*
X23022919Y-19018419D01*
X22849843Y-19229312D01*
X22721236Y-19469919D01*
X22642040Y-19730993D01*
X22615299Y-20002500D01*
X14848663Y-20002500D01*
X14825671Y-19959486D01*
X14581702Y-19887903D01*
X13768605Y-20701000D01*
X13409395Y-20701000D01*
X13395253Y-20686858D01*
X13574858Y-20507253D01*
X13589000Y-20521395D01*
X14402097Y-19708298D01*
X14330514Y-19464329D01*
X14075004Y-19343429D01*
X13800816Y-19274700D01*
X13518488Y-19260783D01*
X13238870Y-19302213D01*
X12972708Y-19397397D01*
X12850691Y-19462616D01*
X12840185Y-19449815D01*
X12743494Y-19370463D01*
X12633180Y-19311498D01*
X12513482Y-19275188D01*
X12389000Y-19262928D01*
X12324000Y-19262928D01*
X12324000Y-14355605D01*
X12327556Y-14319500D01*
X12313365Y-14175415D01*
X12271337Y-14036866D01*
X12203087Y-13909180D01*
X12134253Y-13825306D01*
X12111238Y-13797262D01*
X12083193Y-13774246D01*
X5057072Y-6748126D01*
X5057072Y-6297069D01*
X5064998Y-6286500D01*
X6804000Y-6286500D01*
X6804000Y-7276500D01*
X6860000Y-7591082D01*
X6976296Y-7888694D01*
X7148419Y-8157899D01*
X7369754Y-8388352D01*
X7631795Y-8571196D01*
X7924472Y-8699405D01*
X8050135Y-8729718D01*
X8302000Y-8610240D01*
X8302000Y-6286500D01*
X8556000Y-6286500D01*
X8556000Y-8610240D01*
X8807865Y-8729718D01*
X8933528Y-8699405D01*
X9226205Y-8571196D01*
X9488246Y-8388352D01*
X9709581Y-8157899D01*
X9881704Y-7888694D01*
X9998000Y-7591082D01*
X10054000Y-7276500D01*
X10054000Y-6286500D01*
X8556000Y-6286500D01*
X8302000Y-6286500D01*
X6804000Y-6286500D01*
X5064998Y-6286500D01*
X5997998Y-5042500D01*
X6804000Y-5042500D01*
X6804000Y-6032500D01*
X8302000Y-6032500D01*
X8302000Y-3708760D01*
X8556000Y-3708760D01*
X8556000Y-6032500D01*
X10054000Y-6032500D01*
X10054000Y-5042500D01*
X9998000Y-4727918D01*
X9881704Y-4430306D01*
X9709581Y-4161101D01*
X9488246Y-3930648D01*
X9226205Y-3747804D01*
X8933528Y-3619595D01*
X8807865Y-3589282D01*
X8556000Y-3708760D01*
X8302000Y-3708760D01*
X8050135Y-3589282D01*
X7924472Y-3619595D01*
X7631795Y-3747804D01*
X7369754Y-3930648D01*
X7148419Y-4161101D01*
X6976296Y-4430306D01*
X6860000Y-4727918D01*
X6804000Y-5042500D01*
X5997998Y-5042500D01*
X7931500Y-2464500D01*
X48224554Y-2464500D01*
X60456178Y-14696125D01*
X60414000Y-14908165D01*
X60414000Y-15190835D01*
X60469147Y-15468074D01*
X60577320Y-15729227D01*
X60734363Y-15964259D01*
X60934241Y-16164137D01*
X61166759Y-16319500D01*
X60934241Y-16474863D01*
X60734363Y-16674741D01*
X60577320Y-16909773D01*
X60469147Y-17170926D01*
X60414000Y-17448165D01*
X60414000Y-17730835D01*
X60469147Y-18008074D01*
X60577320Y-18269227D01*
X60734363Y-18504259D01*
X60934241Y-18704137D01*
X61166759Y-18859500D01*
X60934241Y-19014863D01*
X60734363Y-19214741D01*
X60577320Y-19449773D01*
X60469147Y-19710926D01*
X60414000Y-19988165D01*
X60414000Y-20270835D01*
X60456178Y-20482876D01*
X60204807Y-20734247D01*
X60176761Y-20757264D01*
X60084912Y-20869182D01*
X60016662Y-20996869D01*
X60000202Y-21051130D01*
X59974634Y-21135416D01*
X59960443Y-21279501D01*
X59963999Y-21315606D01*
X59964000Y-29611384D01*
X59960443Y-29647499D01*
X59974634Y-29791584D01*
X59997950Y-29868444D01*
X60016663Y-29930132D01*
X60084913Y-30057819D01*
X60176762Y-30169737D01*
X60204807Y-30192753D01*
X60265678Y-30253624D01*
X60223500Y-30465665D01*
X60223500Y-30748335D01*
X60278647Y-31025574D01*
X60386820Y-31286727D01*
X60543863Y-31521759D01*
X60743741Y-31721637D01*
X60923500Y-31841748D01*
X60923501Y-36357252D01*
X60743741Y-36477363D01*
X60543863Y-36677241D01*
X60386820Y-36912273D01*
X60278647Y-37173426D01*
X60223500Y-37450665D01*
X60223500Y-37733335D01*
X60278647Y-38010574D01*
X60386820Y-38271727D01*
X60543863Y-38506759D01*
X60743741Y-38706637D01*
X60978773Y-38863680D01*
X61239926Y-38971853D01*
X61517165Y-39027000D01*
X61799835Y-39027000D01*
X62077074Y-38971853D01*
X62338227Y-38863680D01*
X62573259Y-38706637D01*
X62773137Y-38506759D01*
X62930180Y-38271727D01*
X63038353Y-38010574D01*
X63093500Y-37733335D01*
X63093500Y-37450665D01*
X63038353Y-37173426D01*
X62930180Y-36912273D01*
X62773137Y-36677241D01*
X62573259Y-36477363D01*
X62393500Y-36357252D01*
X62393500Y-31841748D01*
X62573259Y-31721637D01*
X62773137Y-31521759D01*
X62930180Y-31286727D01*
X63038353Y-31025574D01*
X63093500Y-30748335D01*
X63093500Y-30465665D01*
X63038353Y-30188426D01*
X62930180Y-29927273D01*
X62773137Y-29692241D01*
X62573259Y-29492363D01*
X62338227Y-29335320D01*
X62077074Y-29227147D01*
X61799835Y-29172000D01*
X61517165Y-29172000D01*
X61433999Y-29188543D01*
X61433999Y-24050064D01*
X61707665Y-24104500D01*
X61990335Y-24104500D01*
X62202376Y-24062322D01*
X66194000Y-28053947D01*
X66194001Y-48527052D01*
X64939079Y-49781974D01*
X64867103Y-49580708D01*
X64800171Y-49455486D01*
X64556202Y-49383903D01*
X63743105Y-50197000D01*
X63757248Y-50211143D01*
X63577643Y-50390748D01*
X63563500Y-50376605D01*
X63549358Y-50390748D01*
X63369753Y-50211143D01*
X63383895Y-50197000D01*
X62570798Y-49383903D01*
X62326829Y-49455486D01*
X62205929Y-49710996D01*
X62137200Y-49985184D01*
X62123283Y-50267512D01*
X62164713Y-50547130D01*
X62259897Y-50813292D01*
X62325116Y-50935309D01*
X62312315Y-50945815D01*
X62232963Y-51042506D01*
X62173998Y-51152820D01*
X62137688Y-51272518D01*
X62125428Y-51397000D01*
X62125428Y-51462000D01*
X58448248Y-51462000D01*
X58328137Y-51282241D01*
X58128259Y-51082363D01*
X57893227Y-50925320D01*
X57632074Y-50817147D01*
X57354835Y-50762000D01*
X57072165Y-50762000D01*
X56794926Y-50817147D01*
X56533773Y-50925320D01*
X56298741Y-51082363D01*
X56098863Y-51282241D01*
X55941820Y-51517273D01*
X55833647Y-51778426D01*
X55778500Y-52055665D01*
X55778500Y-52338335D01*
X55833647Y-52615574D01*
X55941820Y-52876727D01*
X56098863Y-53111759D01*
X56298741Y-53311637D01*
X56533773Y-53468680D01*
X56794926Y-53576853D01*
X57072165Y-53632000D01*
X57354835Y-53632000D01*
X57632074Y-53576853D01*
X57893227Y-53468680D01*
X58128259Y-53311637D01*
X58328137Y-53111759D01*
X58448248Y-52932000D01*
X62125428Y-52932000D01*
X62125428Y-52997000D01*
X62137688Y-53121482D01*
X62173998Y-53241180D01*
X62232963Y-53351494D01*
X62312315Y-53448185D01*
X62409006Y-53527537D01*
X62519320Y-53586502D01*
X62639018Y-53622812D01*
X62763500Y-53635072D01*
X64363500Y-53635072D01*
X64487982Y-53622812D01*
X64607680Y-53586502D01*
X64717994Y-53527537D01*
X64814685Y-53448185D01*
X64894037Y-53351494D01*
X64953002Y-53241180D01*
X64989312Y-53121482D01*
X65001572Y-52997000D01*
X65001572Y-51798374D01*
X67423193Y-49376754D01*
X67451238Y-49353738D01*
X67543087Y-49241820D01*
X67567185Y-49196736D01*
X67611337Y-49114134D01*
X67653365Y-48975585D01*
X67667556Y-48831500D01*
X67664000Y-48795395D01*
X67664000Y-37450665D01*
X67843500Y-37450665D01*
X67843500Y-37733335D01*
X67898647Y-38010574D01*
X68006820Y-38271727D01*
X68163863Y-38506759D01*
X68363741Y-38706637D01*
X68543500Y-38826748D01*
X68543501Y-42707252D01*
X68363741Y-42827363D01*
X68163863Y-43027241D01*
X68006820Y-43262273D01*
X67898647Y-43523426D01*
X67843500Y-43800665D01*
X67843500Y-44083335D01*
X67898647Y-44360574D01*
X68006820Y-44621727D01*
X68163863Y-44856759D01*
X68363741Y-45056637D01*
X68598773Y-45213680D01*
X68859926Y-45321853D01*
X69137165Y-45377000D01*
X69419835Y-45377000D01*
X69697074Y-45321853D01*
X69958227Y-45213680D01*
X70193259Y-45056637D01*
X70393137Y-44856759D01*
X70550180Y-44621727D01*
X70658353Y-44360574D01*
X70713500Y-44083335D01*
X70713500Y-43800665D01*
X70658353Y-43523426D01*
X70550180Y-43262273D01*
X70393137Y-43027241D01*
X70193259Y-42827363D01*
X70013500Y-42707252D01*
X70013500Y-38826748D01*
X70193259Y-38706637D01*
X70393137Y-38506759D01*
X70550180Y-38271727D01*
X70658353Y-38010574D01*
X70713500Y-37733335D01*
X70713500Y-37450665D01*
X70658353Y-37173426D01*
X70550180Y-36912273D01*
X70393137Y-36677241D01*
X70193259Y-36477363D01*
X69958227Y-36320320D01*
X69697074Y-36212147D01*
X69419835Y-36157000D01*
X69137165Y-36157000D01*
X68859926Y-36212147D01*
X68598773Y-36320320D01*
X68363741Y-36477363D01*
X68163863Y-36677241D01*
X68006820Y-36912273D01*
X67898647Y-37173426D01*
X67843500Y-37450665D01*
X67664000Y-37450665D01*
X67664000Y-27785605D01*
X67667556Y-27749500D01*
X67653365Y-27605415D01*
X67611337Y-27466867D01*
X67543087Y-27339180D01*
X67493896Y-27279241D01*
X67474253Y-27255306D01*
X67474250Y-27255303D01*
X67451237Y-27227262D01*
X67423197Y-27204251D01*
X63241822Y-23022876D01*
X63284000Y-22810835D01*
X63284000Y-22528165D01*
X63228853Y-22250926D01*
X63120680Y-21989773D01*
X62963637Y-21754741D01*
X62763759Y-21554863D01*
X62531241Y-21399500D01*
X62763759Y-21244137D01*
X62963637Y-21044259D01*
X63120680Y-20809227D01*
X63228853Y-20548074D01*
X63284000Y-20270835D01*
X63284000Y-20063946D01*
X68543500Y-25323447D01*
X68543501Y-29372252D01*
X68363741Y-29492363D01*
X68163863Y-29692241D01*
X68006820Y-29927273D01*
X67898647Y-30188426D01*
X67843500Y-30465665D01*
X67843500Y-30748335D01*
X67898647Y-31025574D01*
X68006820Y-31286727D01*
X68163863Y-31521759D01*
X68363741Y-31721637D01*
X68598773Y-31878680D01*
X68859926Y-31986853D01*
X69137165Y-32042000D01*
X69419835Y-32042000D01*
X69697074Y-31986853D01*
X69958227Y-31878680D01*
X70193259Y-31721637D01*
X70393137Y-31521759D01*
X70550180Y-31286727D01*
X70658353Y-31025574D01*
X70713500Y-30748335D01*
X70713500Y-30465665D01*
X70658353Y-30188426D01*
X70550180Y-29927273D01*
X70393137Y-29692241D01*
X70193259Y-29492363D01*
X70013500Y-29372252D01*
X70013500Y-25055105D01*
X70017056Y-25019000D01*
X70002865Y-24874915D01*
X69960837Y-24736366D01*
X69892587Y-24608680D01*
X69823753Y-24524806D01*
X69823750Y-24524803D01*
X69800737Y-24496762D01*
X69772698Y-24473751D01*
X63241822Y-17942876D01*
X63284000Y-17730835D01*
X63284000Y-17448165D01*
X63228853Y-17170926D01*
X63120680Y-16909773D01*
X62963637Y-16674741D01*
X62763759Y-16474863D01*
X62531241Y-16319500D01*
X62763759Y-16164137D01*
X62963637Y-15964259D01*
X63120680Y-15729227D01*
X63228853Y-15468074D01*
X63284000Y-15190835D01*
X63284000Y-14908165D01*
X63228853Y-14630926D01*
X63120680Y-14369773D01*
X62963637Y-14134741D01*
X62763759Y-13934863D01*
X62528727Y-13777820D01*
X62267574Y-13669647D01*
X61990335Y-13614500D01*
X61707665Y-13614500D01*
X61495625Y-13656678D01*
X50303446Y-2464500D01*
X58735315Y-2464500D01*
X72144000Y-15873185D01*
X72144001Y-50331238D01*
X72138509Y-50387000D01*
X72160423Y-50609498D01*
X72225324Y-50823446D01*
X72225325Y-50823447D01*
X72330717Y-51020623D01*
X72472552Y-51193449D01*
X72515860Y-51228991D01*
X77612509Y-56325641D01*
X77648051Y-56368949D01*
X77820877Y-56510784D01*
X78018053Y-56616176D01*
X78232001Y-56681077D01*
X78398748Y-56697500D01*
X78398757Y-56697500D01*
X78454499Y-56702990D01*
X78510241Y-56697500D01*
X79287612Y-56697500D01*
X79452109Y-56832500D01*
X79279037Y-56974537D01*
X79080655Y-57216265D01*
X78933245Y-57492051D01*
X78842470Y-57791296D01*
X78811819Y-58102500D01*
X78842470Y-58413704D01*
X78933245Y-58712949D01*
X79080655Y-58988735D01*
X79279037Y-59230463D01*
X79520765Y-59428845D01*
X79796551Y-59576255D01*
X80095796Y-59667030D01*
X80329014Y-59690000D01*
X80579986Y-59690000D01*
X80813204Y-59667030D01*
X81112449Y-59576255D01*
X81388235Y-59428845D01*
X81621388Y-59237500D01*
X89479249Y-59237500D01*
X89535000Y-59242991D01*
X89590751Y-59237500D01*
X89590752Y-59237500D01*
X89757499Y-59221077D01*
X89971447Y-59156176D01*
X90168623Y-59050784D01*
X90341449Y-58908949D01*
X90376996Y-58865635D01*
X90808033Y-58434598D01*
X90838026Y-58505809D01*
X91004194Y-58751326D01*
X91215067Y-58959708D01*
X91462542Y-59122947D01*
X91737108Y-59234769D01*
X92028214Y-59290877D01*
X92265500Y-59135376D01*
X92265500Y-57912000D01*
X92245500Y-57912000D01*
X92245500Y-57658000D01*
X92265500Y-57658000D01*
X92265500Y-57638000D01*
X92519500Y-57638000D01*
X92519500Y-57658000D01*
X92539500Y-57658000D01*
X92539500Y-57912000D01*
X92519500Y-57912000D01*
X92519500Y-59135376D01*
X92756786Y-59290877D01*
X93047892Y-59234769D01*
X93102511Y-59212525D01*
X93102510Y-61623543D01*
X92682375Y-62043678D01*
X92470335Y-62001500D01*
X92187665Y-62001500D01*
X91910426Y-62056647D01*
X91649273Y-62164820D01*
X91414241Y-62321863D01*
X91214363Y-62521741D01*
X91057320Y-62756773D01*
X90949147Y-63017926D01*
X90894000Y-63295165D01*
X90894000Y-63577835D01*
X90949147Y-63855074D01*
X91057320Y-64116227D01*
X91214363Y-64351259D01*
X91414241Y-64551137D01*
X91649273Y-64708180D01*
X91910426Y-64816353D01*
X92187665Y-64871500D01*
X92470335Y-64871500D01*
X92747574Y-64816353D01*
X93008727Y-64708180D01*
X93243759Y-64551137D01*
X93443637Y-64351259D01*
X93600680Y-64116227D01*
X93708853Y-63855074D01*
X93764000Y-63577835D01*
X93764000Y-63295165D01*
X93721822Y-63083125D01*
X94331707Y-62473240D01*
X94359747Y-62450228D01*
X94382760Y-62422187D01*
X94382763Y-62422184D01*
X94451596Y-62338311D01*
X94451597Y-62338310D01*
X94519847Y-62210623D01*
X94561875Y-62072075D01*
X94572510Y-61964095D01*
X94572510Y-61964086D01*
X94576065Y-61927991D01*
X94572510Y-61891896D01*
X94572510Y-56726115D01*
X94576066Y-56690010D01*
X94561875Y-56545925D01*
X94519847Y-56407376D01*
X94451597Y-56279690D01*
X94382763Y-56195816D01*
X94359748Y-56167772D01*
X94331703Y-56144756D01*
X94013275Y-55826328D01*
X94014666Y-55823725D01*
X94100724Y-55540032D01*
X94107158Y-55474703D01*
X95000650Y-54581212D01*
X95043959Y-54545669D01*
X95185794Y-54372843D01*
X95291186Y-54175667D01*
X95356087Y-53961719D01*
X95372510Y-53794972D01*
X95372510Y-53794963D01*
X95378000Y-53739221D01*
X95372510Y-53683479D01*
X95372510Y-48763762D01*
X95378001Y-48708010D01*
X95356087Y-48485511D01*
X95291186Y-48271563D01*
X95185794Y-48074387D01*
X95079499Y-47944866D01*
X95079497Y-47944864D01*
X95043959Y-47901561D01*
X95000656Y-47866023D01*
X93864000Y-46729368D01*
X93864000Y-46648316D01*
X93805011Y-46351757D01*
X93689299Y-46072405D01*
X93521312Y-45820995D01*
X93307505Y-45607188D01*
X93056095Y-45439201D01*
X92776743Y-45323489D01*
X92480184Y-45264500D01*
X92177816Y-45264500D01*
X91881257Y-45323489D01*
X91601905Y-45439201D01*
X91350495Y-45607188D01*
X91136688Y-45820995D01*
X90968701Y-46072405D01*
X90852989Y-46351757D01*
X90794000Y-46648316D01*
X90794000Y-46950684D01*
X90852989Y-47247243D01*
X90968701Y-47526595D01*
X91136688Y-47778005D01*
X91350495Y-47991812D01*
X91601905Y-48159799D01*
X91881257Y-48275511D01*
X92177816Y-48334500D01*
X92258868Y-48334500D01*
X93102510Y-49178143D01*
X93102510Y-51196928D01*
X91547499Y-51196928D01*
X91374245Y-51213992D01*
X91207649Y-51264528D01*
X91054113Y-51346595D01*
X90919538Y-51457038D01*
X90809095Y-51591613D01*
X90727028Y-51745149D01*
X90676492Y-51911745D01*
X90659428Y-52084999D01*
X90659428Y-53325001D01*
X90676492Y-53498255D01*
X90727028Y-53664851D01*
X90809095Y-53818387D01*
X90919538Y-53952962D01*
X91054113Y-54063405D01*
X91163614Y-54121934D01*
X91098155Y-54175655D01*
X90910083Y-54404821D01*
X90770334Y-54666275D01*
X90684276Y-54949968D01*
X90655218Y-55245000D01*
X90667067Y-55365302D01*
X89064869Y-56967500D01*
X81621388Y-56967500D01*
X81456891Y-56832500D01*
X81621388Y-56697500D01*
X82398749Y-56697500D01*
X82454500Y-56702991D01*
X82510251Y-56697500D01*
X82510252Y-56697500D01*
X82676999Y-56681077D01*
X82890947Y-56616176D01*
X83088123Y-56510784D01*
X83260949Y-56368949D01*
X83296496Y-56325636D01*
X84202140Y-55419992D01*
X84245449Y-55384449D01*
X84387284Y-55211623D01*
X84492676Y-55014447D01*
X84557577Y-54800499D01*
X84574000Y-54633752D01*
X84574000Y-54633743D01*
X84579490Y-54578001D01*
X84574000Y-54522259D01*
X84574000Y-49809631D01*
X93092146Y-41291487D01*
X93135449Y-41255949D01*
X93171928Y-41211500D01*
X93277284Y-41083123D01*
X93382676Y-40885947D01*
X93445984Y-40677252D01*
X93473180Y-40669002D01*
X93583494Y-40610037D01*
X93680185Y-40530685D01*
X93759537Y-40433994D01*
X93818502Y-40323680D01*
X93854812Y-40203982D01*
X93867072Y-40079500D01*
X93867072Y-38279500D01*
X93854812Y-38155018D01*
X93818502Y-38035320D01*
X93759537Y-37925006D01*
X93680185Y-37828315D01*
X93583494Y-37748963D01*
X93473180Y-37689998D01*
X93353482Y-37653688D01*
X93229000Y-37641428D01*
X91429000Y-37641428D01*
X91304518Y-37653688D01*
X91184820Y-37689998D01*
X91074506Y-37748963D01*
X90977815Y-37828315D01*
X90898463Y-37925006D01*
X90839498Y-38035320D01*
X90803188Y-38155018D01*
X90790928Y-38279500D01*
X90790928Y-40079500D01*
X90803188Y-40203982D01*
X90839498Y-40323680D01*
X90843047Y-40330320D01*
X82675865Y-48497504D01*
X82632551Y-48533051D01*
X82490716Y-48705877D01*
X82423570Y-48831500D01*
X82385324Y-48903054D01*
X82320423Y-49117002D01*
X82298509Y-49339500D01*
X82304000Y-49395252D01*
X82304001Y-54107867D01*
X81984369Y-54427500D01*
X81904083Y-54427500D01*
X81905685Y-54426185D01*
X81985037Y-54329494D01*
X82044002Y-54219180D01*
X82080312Y-54099482D01*
X82092572Y-53975000D01*
X82092572Y-52070000D01*
X82080312Y-51945518D01*
X82044002Y-51825820D01*
X81985037Y-51715506D01*
X81905685Y-51618815D01*
X81808994Y-51539463D01*
X81698680Y-51480498D01*
X81578982Y-51444188D01*
X81454500Y-51431928D01*
X79454500Y-51431928D01*
X79330018Y-51444188D01*
X79210320Y-51480498D01*
X79100006Y-51539463D01*
X79003315Y-51618815D01*
X78923963Y-51715506D01*
X78864998Y-51825820D01*
X78828688Y-51945518D01*
X78816428Y-52070000D01*
X78816428Y-53975000D01*
X78828688Y-54099482D01*
X78864998Y-54219180D01*
X78923963Y-54329494D01*
X79003315Y-54426185D01*
X79004917Y-54427500D01*
X78924632Y-54427500D01*
X74414000Y-49916869D01*
X74414000Y-33822202D01*
X91515903Y-33822202D01*
X91587486Y-34066171D01*
X91842996Y-34187071D01*
X92117184Y-34255800D01*
X92399512Y-34269717D01*
X92679130Y-34228287D01*
X92945292Y-34133103D01*
X93070514Y-34066171D01*
X93142097Y-33822202D01*
X92329000Y-33009105D01*
X91515903Y-33822202D01*
X74414000Y-33822202D01*
X74414000Y-32900012D01*
X90888783Y-32900012D01*
X90930213Y-33179630D01*
X91025397Y-33445792D01*
X91092329Y-33571014D01*
X91336298Y-33642597D01*
X92149395Y-32829500D01*
X92508605Y-32829500D01*
X93321702Y-33642597D01*
X93565671Y-33571014D01*
X93686571Y-33315504D01*
X93755300Y-33041316D01*
X93769217Y-32758988D01*
X93727787Y-32479370D01*
X93632603Y-32213208D01*
X93565671Y-32087986D01*
X93321702Y-32016403D01*
X92508605Y-32829500D01*
X92149395Y-32829500D01*
X91336298Y-32016403D01*
X91092329Y-32087986D01*
X90971429Y-32343496D01*
X90902700Y-32617684D01*
X90888783Y-32900012D01*
X74414000Y-32900012D01*
X74414000Y-31836798D01*
X91515903Y-31836798D01*
X92329000Y-32649895D01*
X93142097Y-31836798D01*
X93070514Y-31592829D01*
X92815004Y-31471929D01*
X92540816Y-31403200D01*
X92258488Y-31389283D01*
X91978870Y-31430713D01*
X91712708Y-31525897D01*
X91587486Y-31592829D01*
X91515903Y-31836798D01*
X74414000Y-31836798D01*
X74414000Y-17789632D01*
X75802509Y-19178141D01*
X75838051Y-19221449D01*
X76010876Y-19363283D01*
X76010877Y-19363284D01*
X76208053Y-19468676D01*
X76422001Y-19533577D01*
X76644500Y-19555491D01*
X76700252Y-19550000D01*
X79351112Y-19550000D01*
X79515609Y-19685000D01*
X79342537Y-19827037D01*
X79144155Y-20068765D01*
X78996745Y-20344551D01*
X78905970Y-20643796D01*
X78875319Y-20955000D01*
X78905970Y-21266204D01*
X78996745Y-21565449D01*
X79144155Y-21841235D01*
X79342537Y-22082963D01*
X79584265Y-22281345D01*
X79860051Y-22428755D01*
X80159296Y-22519530D01*
X80392514Y-22542500D01*
X80643486Y-22542500D01*
X80876704Y-22519530D01*
X81175949Y-22428755D01*
X81451735Y-22281345D01*
X81684888Y-22090000D01*
X88590249Y-22090000D01*
X88646000Y-22095491D01*
X88701751Y-22090000D01*
X88701752Y-22090000D01*
X88868499Y-22073577D01*
X89082447Y-22008676D01*
X89279623Y-21903284D01*
X89452449Y-21761449D01*
X89487996Y-21718135D01*
X90808033Y-20398099D01*
X90838026Y-20469309D01*
X91004194Y-20714826D01*
X91215067Y-20923208D01*
X91462542Y-21086447D01*
X91737108Y-21198269D01*
X92028214Y-21254377D01*
X92265500Y-21098876D01*
X92265500Y-19875500D01*
X92245500Y-19875500D01*
X92245500Y-19621500D01*
X92265500Y-19621500D01*
X92265500Y-19601500D01*
X92519500Y-19601500D01*
X92519500Y-19621500D01*
X92539500Y-19621500D01*
X92539500Y-19875500D01*
X92519500Y-19875500D01*
X92519500Y-21098876D01*
X92756786Y-21254377D01*
X93047892Y-21198269D01*
X93102511Y-21176025D01*
X93102510Y-23396543D01*
X92682375Y-23816678D01*
X92470335Y-23774500D01*
X92187665Y-23774500D01*
X91910426Y-23829647D01*
X91649273Y-23937820D01*
X91414241Y-24094863D01*
X91214363Y-24294741D01*
X91057320Y-24529773D01*
X90949147Y-24790926D01*
X90894000Y-25068165D01*
X90894000Y-25350835D01*
X90949147Y-25628074D01*
X91057320Y-25889227D01*
X91214363Y-26124259D01*
X91414241Y-26324137D01*
X91649273Y-26481180D01*
X91910426Y-26589353D01*
X92187665Y-26644500D01*
X92470335Y-26644500D01*
X92747574Y-26589353D01*
X93008727Y-26481180D01*
X93243759Y-26324137D01*
X93443637Y-26124259D01*
X93600680Y-25889227D01*
X93708853Y-25628074D01*
X93764000Y-25350835D01*
X93764000Y-25068165D01*
X93721822Y-24856125D01*
X94331707Y-24246240D01*
X94359747Y-24223228D01*
X94382760Y-24195187D01*
X94382763Y-24195184D01*
X94451596Y-24111311D01*
X94451597Y-24111310D01*
X94519847Y-23983623D01*
X94561875Y-23845075D01*
X94572510Y-23737095D01*
X94572510Y-23737086D01*
X94576065Y-23700991D01*
X94572510Y-23664896D01*
X94572510Y-18689615D01*
X94576066Y-18653510D01*
X94561875Y-18509425D01*
X94519847Y-18370876D01*
X94451597Y-18243190D01*
X94382763Y-18159316D01*
X94359748Y-18131272D01*
X94331703Y-18108256D01*
X94013275Y-17789828D01*
X94014666Y-17787225D01*
X94100724Y-17503532D01*
X94107158Y-17438203D01*
X95000650Y-16544712D01*
X95043959Y-16509169D01*
X95185794Y-16336343D01*
X95291186Y-16139167D01*
X95356087Y-15925219D01*
X95372510Y-15758472D01*
X95372510Y-15758463D01*
X95378000Y-15702721D01*
X95372510Y-15646979D01*
X95372510Y-11552751D01*
X95378000Y-11497009D01*
X95372510Y-11441267D01*
X95372510Y-11441258D01*
X95356087Y-11274511D01*
X95291186Y-11060563D01*
X95185794Y-10863387D01*
X95043959Y-10690561D01*
X95000651Y-10655019D01*
X93800500Y-9454869D01*
X93800500Y-9373816D01*
X93741511Y-9077257D01*
X93625799Y-8797905D01*
X93457812Y-8546495D01*
X93244005Y-8332688D01*
X92992595Y-8164701D01*
X92713243Y-8048989D01*
X92416684Y-7990000D01*
X92114316Y-7990000D01*
X91817757Y-8048989D01*
X91538405Y-8164701D01*
X91286995Y-8332688D01*
X91073188Y-8546495D01*
X90905201Y-8797905D01*
X90789489Y-9077257D01*
X90730500Y-9373816D01*
X90730500Y-9676184D01*
X90789489Y-9972743D01*
X90905201Y-10252095D01*
X91073188Y-10503505D01*
X91286995Y-10717312D01*
X91538405Y-10885299D01*
X91817757Y-11001011D01*
X92114316Y-11060000D01*
X92195369Y-11060000D01*
X93102510Y-11967142D01*
X93102510Y-13160428D01*
X91547499Y-13160428D01*
X91374245Y-13177492D01*
X91207649Y-13228028D01*
X91054113Y-13310095D01*
X90919538Y-13420538D01*
X90809095Y-13555113D01*
X90727028Y-13708649D01*
X90676492Y-13875245D01*
X90659428Y-14048499D01*
X90659428Y-15288501D01*
X90676492Y-15461755D01*
X90727028Y-15628351D01*
X90809095Y-15781887D01*
X90919538Y-15916462D01*
X91054113Y-16026905D01*
X91163614Y-16085434D01*
X91098155Y-16139155D01*
X90910083Y-16368321D01*
X90770334Y-16629775D01*
X90684276Y-16913468D01*
X90655218Y-17208500D01*
X90667067Y-17328802D01*
X88175869Y-19820000D01*
X81684888Y-19820000D01*
X81520391Y-19685000D01*
X81693463Y-19542963D01*
X81783718Y-19432987D01*
X81914125Y-19363284D01*
X82086951Y-19221449D01*
X82122498Y-19178136D01*
X83031141Y-18269493D01*
X83074450Y-18233950D01*
X83216285Y-18061124D01*
X83321677Y-17863948D01*
X83386578Y-17650000D01*
X83403001Y-17483253D01*
X83403001Y-17483244D01*
X83408491Y-17427502D01*
X83403001Y-17371760D01*
X83403001Y-12372630D01*
X92332561Y-3443072D01*
X93165500Y-3443072D01*
X93289982Y-3430812D01*
X93409680Y-3394502D01*
X93519994Y-3335537D01*
X93616685Y-3256185D01*
X93696037Y-3159494D01*
X93755002Y-3049180D01*
X93791312Y-2929482D01*
X93803572Y-2805000D01*
X93803572Y-1005000D01*
X93791312Y-880518D01*
X93755002Y-760820D01*
X93696037Y-650506D01*
X93616685Y-553815D01*
X93519994Y-474463D01*
X93409680Y-415498D01*
X93289982Y-379188D01*
X93165500Y-366928D01*
X91365500Y-366928D01*
X91241018Y-379188D01*
X91121320Y-415498D01*
X91011006Y-474463D01*
X90914315Y-553815D01*
X90834963Y-650506D01*
X90775998Y-760820D01*
X90739688Y-880518D01*
X90727428Y-1005000D01*
X90727428Y-1837939D01*
X81504861Y-11060508D01*
X81461553Y-11096050D01*
X81319718Y-11268876D01*
X81316706Y-11274512D01*
X81214325Y-11466053D01*
X81149424Y-11680001D01*
X81127510Y-11902499D01*
X81133002Y-11958260D01*
X81133002Y-14284428D01*
X79518000Y-14284428D01*
X79393518Y-14296688D01*
X79273820Y-14332998D01*
X79163506Y-14391963D01*
X79066815Y-14471315D01*
X78987463Y-14568006D01*
X78928498Y-14678320D01*
X78892188Y-14798018D01*
X78879928Y-14922500D01*
X78879928Y-16827500D01*
X78892188Y-16951982D01*
X78928498Y-17071680D01*
X78987463Y-17181994D01*
X79066815Y-17278685D01*
X79068417Y-17280000D01*
X77114632Y-17280000D01*
X74647382Y-14812751D01*
X74643959Y-14777992D01*
X74564763Y-14516918D01*
X74436156Y-14276311D01*
X74306451Y-14118266D01*
X60336454Y-148269D01*
X60293081Y-95419D01*
X60082188Y77657D01*
X59841581Y206264D01*
X59580507Y285460D01*
X59377037Y305500D01*
X59377029Y305500D01*
X59309000Y312200D01*
X59240971Y305500D01*
X7344894Y305500D01*
X7314743Y310138D01*
X7208736Y305500D01*
X7170963Y305500D01*
X7140772Y302526D01*
X7042183Y298213D01*
X7005295Y289183D01*
X6967493Y285460D01*
X6873042Y256809D01*
X6777187Y233344D01*
X6742767Y217290D01*
X6706419Y206264D01*
X6619377Y159739D01*
X6529937Y118023D01*
X6499310Y95562D01*
X6465812Y77657D01*
X6389519Y15045D01*
X6309936Y-43319D01*
X6284279Y-71324D01*
X6254919Y-95419D01*
X6192308Y-171710D01*
X6171822Y-194071D01*
X6149166Y-224279D01*
X6081843Y-306312D01*
X6067461Y-333219D01*
X3661304Y-3541428D01*
X2439000Y-3541428D01*
X2314518Y-3553688D01*
X2194820Y-3589998D01*
X2084506Y-3648963D01*
X1987815Y-3728315D01*
X1908463Y-3825006D01*
X1849498Y-3935320D01*
X1813188Y-4055018D01*
X1800928Y-4179500D01*
X1800928Y-8139500D01*
X1813188Y-8263982D01*
X1849498Y-8383680D01*
X1908463Y-8493994D01*
X1987815Y-8590685D01*
X2084506Y-8670037D01*
X2194820Y-8729002D01*
X2314518Y-8765312D01*
X2439000Y-8777572D01*
X4419000Y-8777572D01*
X4543482Y-8765312D01*
X4663180Y-8729002D01*
X4773494Y-8670037D01*
X4843027Y-8612973D01*
X10854001Y-14623948D01*
X10854000Y-19262928D01*
X10789000Y-19262928D01*
X10664518Y-19275188D01*
X10544820Y-19311498D01*
X10434506Y-19370463D01*
X10337815Y-19449815D01*
X10258463Y-19546506D01*
X10199498Y-19656820D01*
X10163188Y-19776518D01*
X10150928Y-19901000D01*
X10150928Y-21501000D01*
X10163188Y-21625482D01*
X10199498Y-21745180D01*
X10258463Y-21855494D01*
X10337815Y-21952185D01*
X10434506Y-22031537D01*
X10544820Y-22090502D01*
X10664518Y-22126812D01*
X10789000Y-22139072D01*
X10854000Y-22139072D01*
X10854001Y-24174552D01*
X8227376Y-26801178D01*
X8015335Y-26759000D01*
X7732665Y-26759000D01*
X7455426Y-26814147D01*
X7194273Y-26922320D01*
X6959241Y-27079363D01*
X6759363Y-27279241D01*
X6604000Y-27511759D01*
X6448637Y-27279241D01*
X6248759Y-27079363D01*
X6069000Y-26959252D01*
X6069000Y-23528946D01*
X7277625Y-22320322D01*
X7317088Y-22336668D01*
X7632967Y-22399500D01*
X7955033Y-22399500D01*
X8270912Y-22336668D01*
X8568463Y-22213418D01*
X8836252Y-22034487D01*
X9063987Y-21806752D01*
X9242918Y-21538963D01*
X9366168Y-21241412D01*
X9429000Y-20925533D01*
X9429000Y-20603467D01*
X9366168Y-20287588D01*
X9242918Y-19990037D01*
X9063987Y-19722248D01*
X8836252Y-19494513D01*
X8568463Y-19315582D01*
X8270912Y-19192332D01*
X7955033Y-19129500D01*
X7632967Y-19129500D01*
X7317088Y-19192332D01*
X7019537Y-19315582D01*
X6751748Y-19494513D01*
X6524013Y-19722248D01*
X6345082Y-19990037D01*
X6221832Y-20287588D01*
X6159000Y-20603467D01*
X6159000Y-20925533D01*
X6221832Y-21241412D01*
X6238178Y-21280875D01*
X4839808Y-22679246D01*
X4811763Y-22702262D01*
X4719914Y-22814180D01*
X4651664Y-22941867D01*
X4609635Y-23080415D01*
X4595444Y-23224500D01*
X4599001Y-23260615D01*
X4599000Y-26959252D01*
X4419241Y-27079363D01*
X4219363Y-27279241D01*
X4062320Y-27514273D01*
X3954147Y-27775426D01*
X3899000Y-28052665D01*
X3899000Y-28335335D01*
X3954147Y-28612574D01*
X4062320Y-28873727D01*
X4219363Y-29108759D01*
X4419241Y-29308637D01*
X4654273Y-29465680D01*
X4915426Y-29573853D01*
X5192665Y-29629000D01*
X5475335Y-29629000D01*
X5687375Y-29586822D01*
X5988999Y-29888446D01*
X5989000Y-34375928D01*
X4935375Y-34375928D01*
X3529000Y-32969554D01*
X3529000Y-22229764D01*
X3568463Y-22213418D01*
X3836252Y-22034487D01*
X4063987Y-21806752D01*
X4242918Y-21538963D01*
X4366168Y-21241412D01*
X4429000Y-20925533D01*
X4429000Y-20603467D01*
X4366168Y-20287588D01*
X4242918Y-19990037D01*
X4063987Y-19722248D01*
X3836252Y-19494513D01*
X3568463Y-19315582D01*
X3270912Y-19192332D01*
X2955033Y-19129500D01*
X2632967Y-19129500D01*
X2317088Y-19192332D01*
X2019537Y-19315582D01*
X1751748Y-19494513D01*
X1524013Y-19722248D01*
X1345082Y-19990037D01*
X1221832Y-20287588D01*
X1159000Y-20603467D01*
X304000Y-20603467D01*
X304000Y775500D01*
X99264000Y775500D01*
X99264001Y-75324500D01*
%TA.AperFunction,Conductor*%
D29*
G36*
X99264001Y-75324500D02*
G01*
X304000Y-75324500D01*
X304000Y-72049202D01*
X91515903Y-72049202D01*
X91587486Y-72293171D01*
X91842996Y-72414071D01*
X92117184Y-72482800D01*
X92399512Y-72496717D01*
X92679130Y-72455287D01*
X92945292Y-72360103D01*
X93070514Y-72293171D01*
X93142097Y-72049202D01*
X92329000Y-71236105D01*
X91515903Y-72049202D01*
X304000Y-72049202D01*
X304000Y-71127012D01*
X90888783Y-71127012D01*
X90930213Y-71406630D01*
X91025397Y-71672792D01*
X91092329Y-71798014D01*
X91336298Y-71869597D01*
X92149395Y-71056500D01*
X92508605Y-71056500D01*
X93321702Y-71869597D01*
X93565671Y-71798014D01*
X93686571Y-71542504D01*
X93755300Y-71268316D01*
X93769217Y-70985988D01*
X93727787Y-70706370D01*
X93632603Y-70440208D01*
X93565671Y-70314986D01*
X93321702Y-70243403D01*
X92508605Y-71056500D01*
X92149395Y-71056500D01*
X91336298Y-70243403D01*
X91092329Y-70314986D01*
X90971429Y-70570496D01*
X90902700Y-70844684D01*
X90888783Y-71127012D01*
X304000Y-71127012D01*
X304000Y-70063798D01*
X91515903Y-70063798D01*
X92329000Y-70876895D01*
X93142097Y-70063798D01*
X93070514Y-69819829D01*
X92815004Y-69698929D01*
X92540816Y-69630200D01*
X92258488Y-69616283D01*
X91978870Y-69657713D01*
X91712708Y-69752897D01*
X91587486Y-69819829D01*
X91515903Y-70063798D01*
X304000Y-70063798D01*
X304000Y-41703240D01*
X4160464Y-41703240D01*
X4209106Y-41863607D01*
X4339264Y-42134914D01*
X4519851Y-42375616D01*
X4743927Y-42576462D01*
X5002880Y-42729734D01*
X5286759Y-42829541D01*
X5524500Y-42709492D01*
X5524500Y-41465500D01*
X5778500Y-41465500D01*
X5778500Y-42709492D01*
X6016241Y-42829541D01*
X6300120Y-42729734D01*
X6559073Y-42576462D01*
X6783149Y-42375616D01*
X6963736Y-42134914D01*
X7093894Y-41863607D01*
X7142536Y-41703240D01*
X7021878Y-41465500D01*
X5778500Y-41465500D01*
X5524500Y-41465500D01*
X4281122Y-41465500D01*
X4160464Y-41703240D01*
X304000Y-41703240D01*
X304000Y-40973760D01*
X4160464Y-40973760D01*
X4281122Y-41211500D01*
X5524500Y-41211500D01*
X5524500Y-39967508D01*
X5778500Y-39967508D01*
X5778500Y-41211500D01*
X7021878Y-41211500D01*
X7142536Y-40973760D01*
X7093894Y-40813393D01*
X6963736Y-40542086D01*
X6783149Y-40301384D01*
X6559073Y-40100538D01*
X6300120Y-39947266D01*
X6016241Y-39847459D01*
X5778500Y-39967508D01*
X5524500Y-39967508D01*
X5286759Y-39847459D01*
X5002880Y-39947266D01*
X4743927Y-40100538D01*
X4519851Y-40301384D01*
X4339264Y-40542086D01*
X4209106Y-40813393D01*
X4160464Y-40973760D01*
X304000Y-40973760D01*
X304000Y-20603467D01*
X1159000Y-20603467D01*
X1159000Y-20925533D01*
X1221832Y-21241412D01*
X1345082Y-21538963D01*
X1524013Y-21806752D01*
X1751748Y-22034487D01*
X2019537Y-22213418D01*
X2059000Y-22229764D01*
X2059001Y-33237885D01*
X2055444Y-33274000D01*
X2069635Y-33418085D01*
X2110940Y-33554247D01*
X2111664Y-33556633D01*
X2179914Y-33684320D01*
X2271763Y-33796238D01*
X2299808Y-33819254D01*
X3895928Y-35415375D01*
X3895928Y-36614000D01*
X3908188Y-36738482D01*
X3944498Y-36858180D01*
X4003463Y-36968494D01*
X4082815Y-37065185D01*
X4179506Y-37144537D01*
X4289820Y-37203502D01*
X4409518Y-37239812D01*
X4534000Y-37252072D01*
X6134000Y-37252072D01*
X6258482Y-37239812D01*
X6378180Y-37203502D01*
X6471938Y-37153386D01*
X11151244Y-41832693D01*
X11174260Y-41860738D01*
X11202304Y-41883753D01*
X11286178Y-41952587D01*
X11413864Y-42020837D01*
X11552413Y-42062865D01*
X11696498Y-42077056D01*
X11732603Y-42073500D01*
X11733428Y-42073500D01*
X11733428Y-42238500D01*
X11745688Y-42362982D01*
X11781998Y-42482680D01*
X11840963Y-42592994D01*
X11920315Y-42689685D01*
X12017006Y-42769037D01*
X12127320Y-42828002D01*
X12247018Y-42864312D01*
X12371500Y-42876572D01*
X14171500Y-42876572D01*
X14295982Y-42864312D01*
X14415680Y-42828002D01*
X14525994Y-42769037D01*
X14622685Y-42689685D01*
X14702037Y-42592994D01*
X14761002Y-42482680D01*
X14797312Y-42362982D01*
X14809572Y-42238500D01*
X14809572Y-40438500D01*
X14797312Y-40314018D01*
X14761002Y-40194320D01*
X14702037Y-40084006D01*
X14622685Y-39987315D01*
X14525994Y-39907963D01*
X14415680Y-39848998D01*
X14295982Y-39812688D01*
X14171500Y-39800428D01*
X14007518Y-39800428D01*
X18152625Y-35655322D01*
X18192088Y-35671668D01*
X18507967Y-35734500D01*
X18830033Y-35734500D01*
X19145912Y-35671668D01*
X19443463Y-35548418D01*
X19711252Y-35369487D01*
X19938987Y-35141752D01*
X20117918Y-34873963D01*
X20241168Y-34576412D01*
X20304000Y-34260533D01*
X20304000Y-33938467D01*
X20241168Y-33622588D01*
X20117918Y-33325037D01*
X19938987Y-33057248D01*
X19711252Y-32829513D01*
X19443463Y-32650582D01*
X19145912Y-32527332D01*
X18830033Y-32464500D01*
X18507967Y-32464500D01*
X18192088Y-32527332D01*
X17894537Y-32650582D01*
X17626748Y-32829513D01*
X17399013Y-33057248D01*
X17220082Y-33325037D01*
X17096832Y-33622588D01*
X17034000Y-33938467D01*
X17034000Y-34260533D01*
X17096832Y-34576412D01*
X17113178Y-34615875D01*
X12777308Y-38951746D01*
X12749263Y-38974762D01*
X12657414Y-39086680D01*
X12615368Y-39165343D01*
X12589164Y-39214367D01*
X12547135Y-39352915D01*
X12532944Y-39497000D01*
X12536501Y-39533115D01*
X12536501Y-39800428D01*
X12371500Y-39800428D01*
X12247018Y-39812688D01*
X12127320Y-39848998D01*
X12017006Y-39907963D01*
X11920315Y-39987315D01*
X11840963Y-40084006D01*
X11781998Y-40194320D01*
X11745688Y-40314018D01*
X11742619Y-40345175D01*
X8503803Y-37106359D01*
X8553727Y-37085680D01*
X8788759Y-36928637D01*
X8988637Y-36728759D01*
X9144000Y-36496241D01*
X9299363Y-36728759D01*
X9499241Y-36928637D01*
X9734273Y-37085680D01*
X9995426Y-37193853D01*
X10272665Y-37249000D01*
X10555335Y-37249000D01*
X10832574Y-37193853D01*
X11093727Y-37085680D01*
X11328759Y-36928637D01*
X11528637Y-36728759D01*
X11684000Y-36496241D01*
X11839363Y-36728759D01*
X12039241Y-36928637D01*
X12274273Y-37085680D01*
X12535426Y-37193853D01*
X12812665Y-37249000D01*
X13095335Y-37249000D01*
X13372574Y-37193853D01*
X13633727Y-37085680D01*
X13868759Y-36928637D01*
X14068637Y-36728759D01*
X14225680Y-36493727D01*
X14333853Y-36232574D01*
X14389000Y-35955335D01*
X14389000Y-35672665D01*
X14333853Y-35395426D01*
X14225680Y-35134273D01*
X14068637Y-34899241D01*
X13948671Y-34779275D01*
X18152625Y-30575322D01*
X18192088Y-30591668D01*
X18507967Y-30654500D01*
X18830033Y-30654500D01*
X19145912Y-30591668D01*
X19443463Y-30468418D01*
X19711252Y-30289487D01*
X19938987Y-30061752D01*
X20117918Y-29793963D01*
X20134264Y-29754500D01*
X22683445Y-29754500D01*
X22642040Y-29890993D01*
X22615299Y-30162500D01*
X22642040Y-30434007D01*
X22721236Y-30695081D01*
X22849843Y-30935688D01*
X23022919Y-31146581D01*
X23233812Y-31319657D01*
X23444927Y-31432500D01*
X23233812Y-31545343D01*
X23022919Y-31718419D01*
X22849843Y-31929312D01*
X22721236Y-32169919D01*
X22642040Y-32430993D01*
X22615299Y-32702500D01*
X22642040Y-32974007D01*
X22721236Y-33235081D01*
X22849843Y-33475688D01*
X23022919Y-33686581D01*
X23233812Y-33859657D01*
X23444927Y-33972500D01*
X23233812Y-34085343D01*
X23022919Y-34258419D01*
X22849843Y-34469312D01*
X22721236Y-34709919D01*
X22642040Y-34970993D01*
X22615299Y-35242500D01*
X22642040Y-35514007D01*
X22721236Y-35775081D01*
X22849843Y-36015688D01*
X23022919Y-36226581D01*
X23233812Y-36399657D01*
X23444927Y-36512500D01*
X23233812Y-36625343D01*
X23022919Y-36798419D01*
X22849843Y-37009312D01*
X22721236Y-37249919D01*
X22642040Y-37510993D01*
X22615299Y-37782500D01*
X22642040Y-38054007D01*
X22721236Y-38315081D01*
X22849843Y-38555688D01*
X23022919Y-38766581D01*
X23233812Y-38939657D01*
X23444927Y-39052500D01*
X23233812Y-39165343D01*
X23022919Y-39338419D01*
X22849843Y-39549312D01*
X22721236Y-39789919D01*
X22642040Y-40050993D01*
X22615299Y-40322500D01*
X22642040Y-40594007D01*
X22721236Y-40855081D01*
X22849843Y-41095688D01*
X23022919Y-41306581D01*
X23233812Y-41479657D01*
X23444927Y-41592500D01*
X23233812Y-41705343D01*
X23022919Y-41878419D01*
X22849843Y-42089312D01*
X22721236Y-42329919D01*
X22642040Y-42590993D01*
X22615299Y-42862500D01*
X22642040Y-43134007D01*
X22721236Y-43395081D01*
X22849843Y-43635688D01*
X23022919Y-43846581D01*
X23233812Y-44019657D01*
X23444927Y-44132500D01*
X23233812Y-44245343D01*
X23022919Y-44418419D01*
X22849843Y-44629312D01*
X22721236Y-44869919D01*
X22642040Y-45130993D01*
X22615299Y-45402500D01*
X22642040Y-45674007D01*
X22721236Y-45935081D01*
X22849843Y-46175688D01*
X23022919Y-46386581D01*
X23233812Y-46559657D01*
X23444927Y-46672500D01*
X23233812Y-46785343D01*
X23022919Y-46958419D01*
X22849843Y-47169312D01*
X22721236Y-47409919D01*
X22642040Y-47670993D01*
X22615299Y-47942500D01*
X22642040Y-48214007D01*
X22721236Y-48475081D01*
X22849843Y-48715688D01*
X23022919Y-48926581D01*
X23233812Y-49099657D01*
X23444927Y-49212500D01*
X23233812Y-49325343D01*
X23022919Y-49498419D01*
X22849843Y-49709312D01*
X22721236Y-49949919D01*
X22642040Y-50210993D01*
X22615299Y-50482500D01*
X22642040Y-50754007D01*
X22721236Y-51015081D01*
X22849843Y-51255688D01*
X23022919Y-51466581D01*
X23233812Y-51639657D01*
X23444927Y-51752500D01*
X23233812Y-51865343D01*
X23022919Y-52038419D01*
X22849843Y-52249312D01*
X22721236Y-52489919D01*
X22642040Y-52750993D01*
X22615299Y-53022500D01*
X22642040Y-53294007D01*
X22721236Y-53555081D01*
X22849843Y-53795688D01*
X23022919Y-54006581D01*
X23233812Y-54179657D01*
X23444927Y-54292500D01*
X23233812Y-54405343D01*
X23022919Y-54578419D01*
X22849843Y-54789312D01*
X22721236Y-55029919D01*
X22642040Y-55290993D01*
X22615299Y-55562500D01*
X22642040Y-55834007D01*
X22721236Y-56095081D01*
X22849843Y-56335688D01*
X23022919Y-56546581D01*
X23233812Y-56719657D01*
X23474419Y-56848264D01*
X23735493Y-56927460D01*
X23938963Y-56947500D01*
X24575037Y-56947500D01*
X24778507Y-56927460D01*
X25039581Y-56848264D01*
X25280188Y-56719657D01*
X25491081Y-56546581D01*
X25664157Y-56335688D01*
X25792764Y-56095081D01*
X25871960Y-55834007D01*
X25898701Y-55562500D01*
X25871960Y-55290993D01*
X25792764Y-55029919D01*
X25664157Y-54789312D01*
X25491081Y-54578419D01*
X25280188Y-54405343D01*
X25069073Y-54292500D01*
X25280188Y-54179657D01*
X25491081Y-54006581D01*
X25664157Y-53795688D01*
X25792764Y-53555081D01*
X25871960Y-53294007D01*
X25898701Y-53022500D01*
X25871960Y-52750993D01*
X25792764Y-52489919D01*
X25664157Y-52249312D01*
X25491081Y-52038419D01*
X25280188Y-51865343D01*
X25069073Y-51752500D01*
X25280188Y-51639657D01*
X25491081Y-51466581D01*
X25664157Y-51255688D01*
X25792764Y-51015081D01*
X25871960Y-50754007D01*
X25898701Y-50482500D01*
X25871960Y-50210993D01*
X25792764Y-49949919D01*
X25664157Y-49709312D01*
X25491081Y-49498419D01*
X25280188Y-49325343D01*
X25069073Y-49212500D01*
X25280188Y-49099657D01*
X25491081Y-48926581D01*
X25664157Y-48715688D01*
X25792764Y-48475081D01*
X25871960Y-48214007D01*
X25898701Y-47942500D01*
X25871960Y-47670993D01*
X25792764Y-47409919D01*
X25664157Y-47169312D01*
X25491081Y-46958419D01*
X25280188Y-46785343D01*
X25069073Y-46672500D01*
X25280188Y-46559657D01*
X25491081Y-46386581D01*
X25664157Y-46175688D01*
X25792764Y-45935081D01*
X25871960Y-45674007D01*
X25898701Y-45402500D01*
X25871960Y-45130993D01*
X25792764Y-44869919D01*
X25664157Y-44629312D01*
X25491081Y-44418419D01*
X25280188Y-44245343D01*
X25069073Y-44132500D01*
X25280188Y-44019657D01*
X25491081Y-43846581D01*
X25664157Y-43635688D01*
X25792764Y-43395081D01*
X25871960Y-43134007D01*
X25898701Y-42862500D01*
X25871960Y-42590993D01*
X25792764Y-42329919D01*
X25664157Y-42089312D01*
X25491081Y-41878419D01*
X25280188Y-41705343D01*
X25069073Y-41592500D01*
X25280188Y-41479657D01*
X25491081Y-41306581D01*
X25664157Y-41095688D01*
X25792764Y-40855081D01*
X25871960Y-40594007D01*
X25898701Y-40322500D01*
X25871960Y-40050993D01*
X25792764Y-39789919D01*
X25664157Y-39549312D01*
X25491081Y-39338419D01*
X25280188Y-39165343D01*
X25069073Y-39052500D01*
X25280188Y-38939657D01*
X25491081Y-38766581D01*
X25664157Y-38555688D01*
X25792764Y-38315081D01*
X25871960Y-38054007D01*
X25898701Y-37782500D01*
X25871960Y-37510993D01*
X25792764Y-37249919D01*
X25664157Y-37009312D01*
X25491081Y-36798419D01*
X25280188Y-36625343D01*
X25069073Y-36512500D01*
X25280188Y-36399657D01*
X25491081Y-36226581D01*
X25664157Y-36015688D01*
X25792764Y-35775081D01*
X25871960Y-35514007D01*
X25898701Y-35242500D01*
X25871960Y-34970993D01*
X25792764Y-34709919D01*
X25664157Y-34469312D01*
X25491081Y-34258419D01*
X25280188Y-34085343D01*
X25069073Y-33972500D01*
X25280188Y-33859657D01*
X25491081Y-33686581D01*
X25664157Y-33475688D01*
X25792764Y-33235081D01*
X25871960Y-32974007D01*
X25898701Y-32702500D01*
X25871960Y-32430993D01*
X25792764Y-32169919D01*
X25664157Y-31929312D01*
X25491081Y-31718419D01*
X25280188Y-31545343D01*
X25069073Y-31432500D01*
X25280188Y-31319657D01*
X25491081Y-31146581D01*
X25664157Y-30935688D01*
X25792764Y-30695081D01*
X25871960Y-30434007D01*
X25898701Y-30162500D01*
X25871960Y-29890993D01*
X25792764Y-29629919D01*
X25664157Y-29389312D01*
X25491081Y-29178419D01*
X25280188Y-29005343D01*
X25069073Y-28892500D01*
X25280188Y-28779657D01*
X25491081Y-28606581D01*
X25664157Y-28395688D01*
X25792764Y-28155081D01*
X25871960Y-27894007D01*
X25898701Y-27622500D01*
X25871960Y-27350993D01*
X25792764Y-27089919D01*
X25664157Y-26849312D01*
X25491081Y-26638419D01*
X25280188Y-26465343D01*
X25071972Y-26354049D01*
X25128724Y-26332468D01*
X25360634Y-26187158D01*
X25559740Y-25999397D01*
X25718390Y-25776400D01*
X25830487Y-25526736D01*
X25849318Y-25423685D01*
X25726656Y-25209500D01*
X24384000Y-25209500D01*
X24384000Y-25229500D01*
X24130000Y-25229500D01*
X24130000Y-25209500D01*
X22787344Y-25209500D01*
X22664682Y-25423685D01*
X22683513Y-25526736D01*
X22795610Y-25776400D01*
X22954260Y-25999397D01*
X23153366Y-26187158D01*
X23385276Y-26332468D01*
X23442028Y-26354049D01*
X23233812Y-26465343D01*
X23022919Y-26638419D01*
X22849843Y-26849312D01*
X22721236Y-27089919D01*
X22642040Y-27350993D01*
X22615299Y-27622500D01*
X22642040Y-27894007D01*
X22712796Y-28127258D01*
X22555554Y-28284500D01*
X20134264Y-28284500D01*
X20117918Y-28245037D01*
X19938987Y-27977248D01*
X19711252Y-27749513D01*
X19443463Y-27570582D01*
X19404000Y-27554236D01*
X19404000Y-26647572D01*
X19469000Y-26647572D01*
X19593482Y-26635312D01*
X19713180Y-26599002D01*
X19823494Y-26540037D01*
X19920185Y-26460685D01*
X19999537Y-26363994D01*
X20058502Y-26253680D01*
X20094812Y-26133982D01*
X20107072Y-26009500D01*
X20107072Y-24409500D01*
X20094812Y-24285018D01*
X20058502Y-24165320D01*
X19999537Y-24055006D01*
X19920185Y-23958315D01*
X19907242Y-23947693D01*
X20026571Y-23695504D01*
X20095300Y-23421316D01*
X20109217Y-23138988D01*
X20067787Y-22859370D01*
X19972603Y-22593208D01*
X19905671Y-22467986D01*
X19661702Y-22396403D01*
X18848605Y-23209500D01*
X18862748Y-23223643D01*
X18683143Y-23403248D01*
X18669000Y-23389105D01*
X18654858Y-23403248D01*
X18475253Y-23223643D01*
X18489395Y-23209500D01*
X17676298Y-22396403D01*
X17432329Y-22467986D01*
X17311429Y-22723496D01*
X17242700Y-22997684D01*
X17228783Y-23280012D01*
X17270213Y-23559630D01*
X17365397Y-23825792D01*
X17430616Y-23947809D01*
X17417815Y-23958315D01*
X17338463Y-24055006D01*
X17279498Y-24165320D01*
X17243188Y-24285018D01*
X17230928Y-24409500D01*
X17230928Y-26009500D01*
X17243188Y-26133982D01*
X17279498Y-26253680D01*
X17338463Y-26363994D01*
X17417815Y-26460685D01*
X17514506Y-26540037D01*
X17624820Y-26599002D01*
X17744518Y-26635312D01*
X17869000Y-26647572D01*
X17934001Y-26647572D01*
X17934000Y-27554236D01*
X17894537Y-27570582D01*
X17626748Y-27749513D01*
X17399013Y-27977248D01*
X17220082Y-28245037D01*
X17096832Y-28542588D01*
X17034000Y-28858467D01*
X17034000Y-29180533D01*
X17096832Y-29496412D01*
X17113178Y-29535875D01*
X12459808Y-34189246D01*
X12431762Y-34212263D01*
X12339913Y-34324181D01*
X12271663Y-34451868D01*
X12244225Y-34542320D01*
X12236586Y-34567502D01*
X12039241Y-34699363D01*
X11839363Y-34899241D01*
X11684000Y-35131759D01*
X11528637Y-34899241D01*
X11328759Y-34699363D01*
X11093727Y-34542320D01*
X10832574Y-34434147D01*
X10555335Y-34379000D01*
X10272665Y-34379000D01*
X9995426Y-34434147D01*
X9734273Y-34542320D01*
X9499241Y-34699363D01*
X9299363Y-34899241D01*
X9144000Y-35131759D01*
X8988637Y-34899241D01*
X8788759Y-34699363D01*
X8553727Y-34542320D01*
X8292574Y-34434147D01*
X8015335Y-34379000D01*
X7732665Y-34379000D01*
X7458999Y-34433436D01*
X7458999Y-29620093D01*
X7462554Y-29583998D01*
X7461677Y-29575096D01*
X7732665Y-29629000D01*
X8015335Y-29629000D01*
X8292574Y-29573853D01*
X8553727Y-29465680D01*
X8788759Y-29308637D01*
X8988637Y-29108759D01*
X9145680Y-28873727D01*
X9150067Y-28863135D01*
X9261615Y-29049131D01*
X9450586Y-29257519D01*
X9676580Y-29425037D01*
X9930913Y-29545246D01*
X10064961Y-29585904D01*
X10287000Y-29463915D01*
X10287000Y-28321000D01*
X10267000Y-28321000D01*
X10267000Y-28067000D01*
X10287000Y-28067000D01*
X10287000Y-26924085D01*
X10541000Y-26924085D01*
X10541000Y-28067000D01*
X10561000Y-28067000D01*
X10561000Y-28321000D01*
X10541000Y-28321000D01*
X10541000Y-29463915D01*
X10763039Y-29585904D01*
X10897087Y-29545246D01*
X11151420Y-29425037D01*
X11377414Y-29257519D01*
X11566385Y-29049131D01*
X11677933Y-28863135D01*
X11682320Y-28873727D01*
X11839363Y-29108759D01*
X12039241Y-29308637D01*
X12274273Y-29465680D01*
X12535426Y-29573853D01*
X12812665Y-29629000D01*
X13095335Y-29629000D01*
X13372574Y-29573853D01*
X13633727Y-29465680D01*
X13868759Y-29308637D01*
X14068637Y-29108759D01*
X14225680Y-28873727D01*
X14333853Y-28612574D01*
X14389000Y-28335335D01*
X14389000Y-28052665D01*
X14333853Y-27775426D01*
X14225680Y-27514273D01*
X14068637Y-27279241D01*
X13868759Y-27079363D01*
X13633727Y-26922320D01*
X13372574Y-26814147D01*
X13095335Y-26759000D01*
X12812665Y-26759000D01*
X12535426Y-26814147D01*
X12274273Y-26922320D01*
X12039241Y-27079363D01*
X11839363Y-27279241D01*
X11682320Y-27514273D01*
X11677933Y-27524865D01*
X11566385Y-27338869D01*
X11377414Y-27130481D01*
X11151420Y-26962963D01*
X10897087Y-26842754D01*
X10763039Y-26802096D01*
X10541000Y-26924085D01*
X10287000Y-26924085D01*
X10220111Y-26887336D01*
X12083193Y-25024254D01*
X12111238Y-25001238D01*
X12203087Y-24889320D01*
X12271337Y-24761633D01*
X12313365Y-24623085D01*
X12324000Y-24515105D01*
X12324000Y-24515096D01*
X12327555Y-24479001D01*
X12324000Y-24442906D01*
X12324000Y-22216798D01*
X17855903Y-22216798D01*
X18669000Y-23029895D01*
X19482097Y-22216798D01*
X19410514Y-21972829D01*
X19155004Y-21851929D01*
X18880816Y-21783200D01*
X18598488Y-21769283D01*
X18318870Y-21810713D01*
X18052708Y-21905897D01*
X17927486Y-21972829D01*
X17855903Y-22216798D01*
X12324000Y-22216798D01*
X12324000Y-22139072D01*
X12389000Y-22139072D01*
X12513482Y-22126812D01*
X12633180Y-22090502D01*
X12743494Y-22031537D01*
X12840185Y-21952185D01*
X12850807Y-21939242D01*
X13102996Y-22058571D01*
X13377184Y-22127300D01*
X13659512Y-22141217D01*
X13939130Y-22099787D01*
X14205292Y-22004603D01*
X14330514Y-21937671D01*
X14402097Y-21693702D01*
X13589000Y-20880605D01*
X13574858Y-20894748D01*
X13395253Y-20715143D01*
X13409395Y-20701000D01*
X13768605Y-20701000D01*
X14581702Y-21514097D01*
X14825671Y-21442514D01*
X14946571Y-21187004D01*
X15015300Y-20912816D01*
X15029217Y-20630488D01*
X14987787Y-20350870D01*
X14892603Y-20084708D01*
X14848663Y-20002500D01*
X22615299Y-20002500D01*
X22642040Y-20274007D01*
X22721236Y-20535081D01*
X22849843Y-20775688D01*
X23022919Y-20986581D01*
X23233812Y-21159657D01*
X23444927Y-21272500D01*
X23233812Y-21385343D01*
X23022919Y-21558419D01*
X22849843Y-21769312D01*
X22721236Y-22009919D01*
X22642040Y-22270993D01*
X22615299Y-22542500D01*
X22642040Y-22814007D01*
X22721236Y-23075081D01*
X22849843Y-23315688D01*
X23022919Y-23526581D01*
X23233812Y-23699657D01*
X23442028Y-23810951D01*
X23385276Y-23832532D01*
X23153366Y-23977842D01*
X22954260Y-24165603D01*
X22795610Y-24388600D01*
X22683513Y-24638264D01*
X22664682Y-24741315D01*
X22787344Y-24955500D01*
X24130000Y-24955500D01*
X24130000Y-24935500D01*
X24384000Y-24935500D01*
X24384000Y-24955500D01*
X25726656Y-24955500D01*
X25849318Y-24741315D01*
X25830487Y-24638264D01*
X25718390Y-24388600D01*
X25559740Y-24165603D01*
X25360634Y-23977842D01*
X25128724Y-23832532D01*
X25071972Y-23810951D01*
X25280188Y-23699657D01*
X25491081Y-23526581D01*
X25664157Y-23315688D01*
X25792764Y-23075081D01*
X25871960Y-22814007D01*
X25898701Y-22542500D01*
X25871960Y-22270993D01*
X25792764Y-22009919D01*
X25664157Y-21769312D01*
X25491081Y-21558419D01*
X25280188Y-21385343D01*
X25069073Y-21272500D01*
X25280188Y-21159657D01*
X25491081Y-20986581D01*
X25664157Y-20775688D01*
X25792764Y-20535081D01*
X25871960Y-20274007D01*
X25898701Y-20002500D01*
X40395299Y-20002500D01*
X40422040Y-20274007D01*
X40501236Y-20535081D01*
X40629843Y-20775688D01*
X40802919Y-20986581D01*
X41013812Y-21159657D01*
X41224927Y-21272500D01*
X41013812Y-21385343D01*
X40802919Y-21558419D01*
X40629843Y-21769312D01*
X40501236Y-22009919D01*
X40422040Y-22270993D01*
X40395299Y-22542500D01*
X40422040Y-22814007D01*
X40501236Y-23075081D01*
X40629843Y-23315688D01*
X40802919Y-23526581D01*
X41013812Y-23699657D01*
X41224927Y-23812500D01*
X41013812Y-23925343D01*
X40802919Y-24098419D01*
X40629843Y-24309312D01*
X40501236Y-24549919D01*
X40422040Y-24810993D01*
X40395299Y-25082500D01*
X40422040Y-25354007D01*
X40501236Y-25615081D01*
X40629843Y-25855688D01*
X40802919Y-26066581D01*
X41013812Y-26239657D01*
X41224927Y-26352500D01*
X41013812Y-26465343D01*
X40802919Y-26638419D01*
X40629843Y-26849312D01*
X40501236Y-27089919D01*
X40422040Y-27350993D01*
X40395299Y-27622500D01*
X40422040Y-27894007D01*
X40501236Y-28155081D01*
X40629843Y-28395688D01*
X40802919Y-28606581D01*
X41013812Y-28779657D01*
X41224927Y-28892500D01*
X41013812Y-29005343D01*
X40802919Y-29178419D01*
X40629843Y-29389312D01*
X40501236Y-29629919D01*
X40422040Y-29890993D01*
X40395299Y-30162500D01*
X40422040Y-30434007D01*
X40501236Y-30695081D01*
X40629843Y-30935688D01*
X40802919Y-31146581D01*
X41013812Y-31319657D01*
X41224927Y-31432500D01*
X41013812Y-31545343D01*
X40802919Y-31718419D01*
X40629843Y-31929312D01*
X40501236Y-32169919D01*
X40422040Y-32430993D01*
X40395299Y-32702500D01*
X40422040Y-32974007D01*
X40501236Y-33235081D01*
X40629843Y-33475688D01*
X40802919Y-33686581D01*
X41013812Y-33859657D01*
X41224927Y-33972500D01*
X41013812Y-34085343D01*
X40802919Y-34258419D01*
X40629843Y-34469312D01*
X40501236Y-34709919D01*
X40422040Y-34970993D01*
X40395299Y-35242500D01*
X40422040Y-35514007D01*
X40501236Y-35775081D01*
X40629843Y-36015688D01*
X40802919Y-36226581D01*
X41013812Y-36399657D01*
X41224927Y-36512500D01*
X41013812Y-36625343D01*
X40802919Y-36798419D01*
X40629843Y-37009312D01*
X40501236Y-37249919D01*
X40422040Y-37510993D01*
X40395299Y-37782500D01*
X40422040Y-38054007D01*
X40501236Y-38315081D01*
X40629843Y-38555688D01*
X40802919Y-38766581D01*
X41013812Y-38939657D01*
X41224927Y-39052500D01*
X41013812Y-39165343D01*
X40802919Y-39338419D01*
X40629843Y-39549312D01*
X40501236Y-39789919D01*
X40422040Y-40050993D01*
X40395299Y-40322500D01*
X40422040Y-40594007D01*
X40501236Y-40855081D01*
X40629843Y-41095688D01*
X40802919Y-41306581D01*
X41013812Y-41479657D01*
X41224927Y-41592500D01*
X41013812Y-41705343D01*
X40802919Y-41878419D01*
X40629843Y-42089312D01*
X40501236Y-42329919D01*
X40422040Y-42590993D01*
X40395299Y-42862500D01*
X40422040Y-43134007D01*
X40501236Y-43395081D01*
X40629843Y-43635688D01*
X40802919Y-43846581D01*
X41013812Y-44019657D01*
X41224927Y-44132500D01*
X41013812Y-44245343D01*
X40802919Y-44418419D01*
X40629843Y-44629312D01*
X40501236Y-44869919D01*
X40422040Y-45130993D01*
X40395299Y-45402500D01*
X40422040Y-45674007D01*
X40501236Y-45935081D01*
X40629843Y-46175688D01*
X40802919Y-46386581D01*
X41013812Y-46559657D01*
X41224927Y-46672500D01*
X41013812Y-46785343D01*
X40802919Y-46958419D01*
X40629843Y-47169312D01*
X40501236Y-47409919D01*
X40422040Y-47670993D01*
X40395299Y-47942500D01*
X40422040Y-48214007D01*
X40501236Y-48475081D01*
X40629843Y-48715688D01*
X40802919Y-48926581D01*
X41013812Y-49099657D01*
X41224927Y-49212500D01*
X41013812Y-49325343D01*
X40802919Y-49498419D01*
X40629843Y-49709312D01*
X40501236Y-49949919D01*
X40422040Y-50210993D01*
X40395299Y-50482500D01*
X40422040Y-50754007D01*
X40501236Y-51015081D01*
X40629843Y-51255688D01*
X40802919Y-51466581D01*
X41013812Y-51639657D01*
X41224927Y-51752500D01*
X41013812Y-51865343D01*
X40802919Y-52038419D01*
X40629843Y-52249312D01*
X40501236Y-52489919D01*
X40422040Y-52750993D01*
X40395299Y-53022500D01*
X40422040Y-53294007D01*
X40501236Y-53555081D01*
X40629843Y-53795688D01*
X40802919Y-54006581D01*
X41013812Y-54179657D01*
X41224927Y-54292500D01*
X41013812Y-54405343D01*
X40802919Y-54578419D01*
X40629843Y-54789312D01*
X40501236Y-55029919D01*
X40422040Y-55290993D01*
X40395299Y-55562500D01*
X40422040Y-55834007D01*
X40501236Y-56095081D01*
X40629843Y-56335688D01*
X40802919Y-56546581D01*
X41013812Y-56719657D01*
X41254419Y-56848264D01*
X41515493Y-56927460D01*
X41718963Y-56947500D01*
X42355037Y-56947500D01*
X42558507Y-56927460D01*
X42819581Y-56848264D01*
X43060188Y-56719657D01*
X43271081Y-56546581D01*
X43444157Y-56335688D01*
X43572764Y-56095081D01*
X43651960Y-55834007D01*
X43678701Y-55562500D01*
X43651960Y-55290993D01*
X43572764Y-55029919D01*
X43444157Y-54789312D01*
X43271081Y-54578419D01*
X43060188Y-54405343D01*
X42849073Y-54292500D01*
X43060188Y-54179657D01*
X43271081Y-54006581D01*
X43444157Y-53795688D01*
X43572764Y-53555081D01*
X43651960Y-53294007D01*
X43678701Y-53022500D01*
X43651960Y-52750993D01*
X43572764Y-52489919D01*
X43444157Y-52249312D01*
X43271081Y-52038419D01*
X43060188Y-51865343D01*
X42849073Y-51752500D01*
X43060188Y-51639657D01*
X43271081Y-51466581D01*
X43444157Y-51255688D01*
X43524824Y-51104770D01*
X48858500Y-56438447D01*
X48858501Y-58582252D01*
X48678741Y-58702363D01*
X48478863Y-58902241D01*
X48321820Y-59137273D01*
X48213647Y-59398426D01*
X48158500Y-59675665D01*
X48158500Y-59958335D01*
X48213647Y-60235574D01*
X48321820Y-60496727D01*
X48478863Y-60731759D01*
X48678741Y-60931637D01*
X48913773Y-61088680D01*
X49174926Y-61196853D01*
X49452165Y-61252000D01*
X49734835Y-61252000D01*
X50012074Y-61196853D01*
X50273227Y-61088680D01*
X50508259Y-60931637D01*
X50708137Y-60731759D01*
X50865180Y-60496727D01*
X50973353Y-60235574D01*
X51028500Y-59958335D01*
X51028500Y-59675665D01*
X50973353Y-59398426D01*
X50865180Y-59137273D01*
X50708137Y-58902241D01*
X50508259Y-58702363D01*
X50328500Y-58582252D01*
X50328500Y-56170094D01*
X50332055Y-56133999D01*
X50328500Y-56097904D01*
X50328500Y-56097895D01*
X50317865Y-55989915D01*
X50275837Y-55851367D01*
X50207587Y-55723680D01*
X50151484Y-55655319D01*
X50138753Y-55639806D01*
X50138750Y-55639803D01*
X50115737Y-55611762D01*
X50087698Y-55588751D01*
X44122010Y-49623064D01*
X44122010Y-46788604D01*
X44125565Y-46752509D01*
X44122010Y-46716414D01*
X44122010Y-46716405D01*
X44111375Y-46608425D01*
X44069347Y-46469877D01*
X44001097Y-46342190D01*
X43984524Y-46321997D01*
X43932263Y-46258316D01*
X43932260Y-46258313D01*
X43909247Y-46230272D01*
X43881207Y-46207260D01*
X43581204Y-45907257D01*
X43651960Y-45674007D01*
X43666046Y-45530992D01*
X48858500Y-50723447D01*
X48858500Y-50962252D01*
X48678741Y-51082363D01*
X48478863Y-51282241D01*
X48321820Y-51517273D01*
X48213647Y-51778426D01*
X48158500Y-52055665D01*
X48158500Y-52338335D01*
X48213647Y-52615574D01*
X48321820Y-52876727D01*
X48478863Y-53111759D01*
X48678741Y-53311637D01*
X48913773Y-53468680D01*
X49174926Y-53576853D01*
X49452165Y-53632000D01*
X49734835Y-53632000D01*
X50012074Y-53576853D01*
X50273227Y-53468680D01*
X50508259Y-53311637D01*
X50708137Y-53111759D01*
X50865180Y-52876727D01*
X50973353Y-52615574D01*
X51028500Y-52338335D01*
X51028500Y-52055665D01*
X50973353Y-51778426D01*
X50865180Y-51517273D01*
X50708137Y-51282241D01*
X50508259Y-51082363D01*
X50328500Y-50962252D01*
X50328500Y-50455105D01*
X50332056Y-50419000D01*
X50317865Y-50274915D01*
X50315619Y-50267512D01*
X50275837Y-50136367D01*
X50207587Y-50008680D01*
X50159884Y-49950554D01*
X50138753Y-49924806D01*
X50138750Y-49924803D01*
X50115737Y-49896762D01*
X50087698Y-49873751D01*
X43581204Y-43367258D01*
X43651960Y-43134007D01*
X43678701Y-42862500D01*
X43651960Y-42590993D01*
X43572764Y-42329919D01*
X43444157Y-42089312D01*
X43271081Y-41878419D01*
X43060188Y-41705343D01*
X42849073Y-41592500D01*
X43060188Y-41479657D01*
X43271081Y-41306581D01*
X43444157Y-41095688D01*
X43572764Y-40855081D01*
X43651960Y-40594007D01*
X43678701Y-40322500D01*
X43651960Y-40050993D01*
X43572764Y-39789919D01*
X43444157Y-39549312D01*
X43271081Y-39338419D01*
X43060188Y-39165343D01*
X42849073Y-39052500D01*
X43060188Y-38939657D01*
X43271081Y-38766581D01*
X43444157Y-38555688D01*
X43572764Y-38315081D01*
X43651960Y-38054007D01*
X43678701Y-37782500D01*
X43651960Y-37510993D01*
X43633660Y-37450665D01*
X47523500Y-37450665D01*
X47523500Y-37733335D01*
X47578647Y-38010574D01*
X47686820Y-38271727D01*
X47843863Y-38506759D01*
X48043741Y-38706637D01*
X48223500Y-38826748D01*
X48223501Y-42707252D01*
X48043741Y-42827363D01*
X47843863Y-43027241D01*
X47686820Y-43262273D01*
X47578647Y-43523426D01*
X47523500Y-43800665D01*
X47523500Y-44083335D01*
X47578647Y-44360574D01*
X47686820Y-44621727D01*
X47843863Y-44856759D01*
X48043741Y-45056637D01*
X48278773Y-45213680D01*
X48539926Y-45321853D01*
X48817165Y-45377000D01*
X49099835Y-45377000D01*
X49377074Y-45321853D01*
X49638227Y-45213680D01*
X49873259Y-45056637D01*
X50073137Y-44856759D01*
X50230180Y-44621727D01*
X50338353Y-44360574D01*
X50393500Y-44083335D01*
X50393500Y-43800665D01*
X50338353Y-43523426D01*
X50230180Y-43262273D01*
X50073137Y-43027241D01*
X49873259Y-42827363D01*
X49693500Y-42707252D01*
X49693500Y-38826748D01*
X49873259Y-38706637D01*
X50073137Y-38506759D01*
X50230180Y-38271727D01*
X50338353Y-38010574D01*
X50393500Y-37733335D01*
X50393500Y-37450665D01*
X50338353Y-37173426D01*
X50230180Y-36912273D01*
X50073137Y-36677241D01*
X49873259Y-36477363D01*
X49638227Y-36320320D01*
X49377074Y-36212147D01*
X49099835Y-36157000D01*
X48817165Y-36157000D01*
X48539926Y-36212147D01*
X48278773Y-36320320D01*
X48043741Y-36477363D01*
X47843863Y-36677241D01*
X47686820Y-36912273D01*
X47578647Y-37173426D01*
X47523500Y-37450665D01*
X43633660Y-37450665D01*
X43572764Y-37249919D01*
X43444157Y-37009312D01*
X43271081Y-36798419D01*
X43060188Y-36625343D01*
X42849073Y-36512500D01*
X43060188Y-36399657D01*
X43271081Y-36226581D01*
X43444157Y-36015688D01*
X43572764Y-35775081D01*
X43651960Y-35514007D01*
X43678701Y-35242500D01*
X43651960Y-34970993D01*
X43572764Y-34709919D01*
X43444157Y-34469312D01*
X43271081Y-34258419D01*
X43060188Y-34085343D01*
X42849073Y-33972500D01*
X43060188Y-33859657D01*
X43271081Y-33686581D01*
X43444157Y-33475688D01*
X43572764Y-33235081D01*
X43651960Y-32974007D01*
X43678701Y-32702500D01*
X43651960Y-32430993D01*
X43572764Y-32169919D01*
X43444157Y-31929312D01*
X43271081Y-31718419D01*
X43060188Y-31545343D01*
X42849073Y-31432500D01*
X43060188Y-31319657D01*
X43271081Y-31146581D01*
X43444157Y-30935688D01*
X43572764Y-30695081D01*
X43642356Y-30465665D01*
X47523500Y-30465665D01*
X47523500Y-30748335D01*
X47578647Y-31025574D01*
X47686820Y-31286727D01*
X47843863Y-31521759D01*
X48043741Y-31721637D01*
X48278773Y-31878680D01*
X48539926Y-31986853D01*
X48817165Y-32042000D01*
X49099835Y-32042000D01*
X49377074Y-31986853D01*
X49638227Y-31878680D01*
X49873259Y-31721637D01*
X50073137Y-31521759D01*
X50230180Y-31286727D01*
X50338353Y-31025574D01*
X50393500Y-30748335D01*
X50393500Y-30465665D01*
X50338353Y-30188426D01*
X50230180Y-29927273D01*
X50073137Y-29692241D01*
X49873259Y-29492363D01*
X49693500Y-29372252D01*
X49693500Y-19624446D01*
X52999481Y-16318466D01*
X53074506Y-16380037D01*
X53184820Y-16439002D01*
X53304518Y-16475312D01*
X53312961Y-16476143D01*
X53114363Y-16674741D01*
X52957320Y-16909773D01*
X52849147Y-17170926D01*
X52794000Y-17448165D01*
X52794000Y-17730835D01*
X52849147Y-18008074D01*
X52957320Y-18269227D01*
X53114363Y-18504259D01*
X53314241Y-18704137D01*
X53546759Y-18859500D01*
X53314241Y-19014863D01*
X53114363Y-19214741D01*
X52957320Y-19449773D01*
X52849147Y-19710926D01*
X52794000Y-19988165D01*
X52794000Y-20270835D01*
X52836178Y-20482876D01*
X52584807Y-20734247D01*
X52556761Y-20757264D01*
X52464912Y-20869182D01*
X52396662Y-20996869D01*
X52380202Y-21051130D01*
X52354634Y-21135416D01*
X52340443Y-21279501D01*
X52343999Y-21315606D01*
X52344000Y-55646384D01*
X52340443Y-55682499D01*
X52354634Y-55826584D01*
X52392514Y-55951454D01*
X52396663Y-55965132D01*
X52464913Y-56092819D01*
X52556762Y-56204737D01*
X52584807Y-56227753D01*
X54735981Y-58378928D01*
X55820678Y-59463625D01*
X55778500Y-59675665D01*
X55778500Y-59958335D01*
X55833647Y-60235574D01*
X55941820Y-60496727D01*
X56098863Y-60731759D01*
X56298741Y-60931637D01*
X56533773Y-61088680D01*
X56794926Y-61196853D01*
X57072165Y-61252000D01*
X57354835Y-61252000D01*
X57632074Y-61196853D01*
X57893227Y-61088680D01*
X58128259Y-60931637D01*
X58328137Y-60731759D01*
X58448248Y-60552000D01*
X62125428Y-60552000D01*
X62125428Y-60617000D01*
X62137688Y-60741482D01*
X62173998Y-60861180D01*
X62232963Y-60971494D01*
X62312315Y-61068185D01*
X62409006Y-61147537D01*
X62519320Y-61206502D01*
X62639018Y-61242812D01*
X62763500Y-61255072D01*
X64363500Y-61255072D01*
X64487982Y-61242812D01*
X64607680Y-61206502D01*
X64717994Y-61147537D01*
X64814685Y-61068185D01*
X64894037Y-60971494D01*
X64953002Y-60861180D01*
X64989312Y-60741482D01*
X65001572Y-60617000D01*
X65001572Y-59017000D01*
X64989312Y-58892518D01*
X64953002Y-58772820D01*
X64894037Y-58662506D01*
X64814685Y-58565815D01*
X64801742Y-58555193D01*
X64921071Y-58303004D01*
X64989800Y-58028816D01*
X65003717Y-57746488D01*
X64962287Y-57466870D01*
X64867103Y-57200708D01*
X64800171Y-57075486D01*
X64556202Y-57003903D01*
X63743105Y-57817000D01*
X63757248Y-57831143D01*
X63577643Y-58010748D01*
X63563500Y-57996605D01*
X63549358Y-58010748D01*
X63369753Y-57831143D01*
X63383895Y-57817000D01*
X62570798Y-57003903D01*
X62326829Y-57075486D01*
X62205929Y-57330996D01*
X62137200Y-57605184D01*
X62123283Y-57887512D01*
X62164713Y-58167130D01*
X62259897Y-58433292D01*
X62325116Y-58555309D01*
X62312315Y-58565815D01*
X62232963Y-58662506D01*
X62173998Y-58772820D01*
X62137688Y-58892518D01*
X62125428Y-59017000D01*
X62125428Y-59082000D01*
X58448248Y-59082000D01*
X58328137Y-58902241D01*
X58128259Y-58702363D01*
X57893227Y-58545320D01*
X57632074Y-58437147D01*
X57354835Y-58382000D01*
X57072165Y-58382000D01*
X56860125Y-58424178D01*
X55731998Y-57296051D01*
X55260245Y-56824298D01*
X62750403Y-56824298D01*
X63563500Y-57637395D01*
X64376597Y-56824298D01*
X64305014Y-56580329D01*
X64049504Y-56459429D01*
X63775316Y-56390700D01*
X63492988Y-56376783D01*
X63213370Y-56418213D01*
X62947208Y-56513397D01*
X62821986Y-56580329D01*
X62750403Y-56824298D01*
X55260245Y-56824298D01*
X53813999Y-55378053D01*
X53813999Y-49204298D01*
X62750403Y-49204298D01*
X63563500Y-50017395D01*
X64376597Y-49204298D01*
X64305014Y-48960329D01*
X64049504Y-48839429D01*
X63775316Y-48770700D01*
X63492988Y-48756783D01*
X63213370Y-48798213D01*
X62947208Y-48893397D01*
X62821986Y-48960329D01*
X62750403Y-49204298D01*
X53813999Y-49204298D01*
X53813999Y-44291039D01*
X55186596Y-44291039D01*
X55227254Y-44425087D01*
X55347463Y-44679420D01*
X55514981Y-44905414D01*
X55723369Y-45094385D01*
X55964619Y-45239070D01*
X56229460Y-45333909D01*
X56451500Y-45212624D01*
X56451500Y-44069000D01*
X56705500Y-44069000D01*
X56705500Y-45212624D01*
X56927540Y-45333909D01*
X57192381Y-45239070D01*
X57433631Y-45094385D01*
X57642019Y-44905414D01*
X57809537Y-44679420D01*
X57929746Y-44425087D01*
X57970404Y-44291039D01*
X60266596Y-44291039D01*
X60307254Y-44425087D01*
X60427463Y-44679420D01*
X60594981Y-44905414D01*
X60803369Y-45094385D01*
X61044619Y-45239070D01*
X61309460Y-45333909D01*
X61531500Y-45212624D01*
X61531500Y-44069000D01*
X61785500Y-44069000D01*
X61785500Y-45212624D01*
X62007540Y-45333909D01*
X62272381Y-45239070D01*
X62513631Y-45094385D01*
X62722019Y-44905414D01*
X62889537Y-44679420D01*
X63009746Y-44425087D01*
X63050404Y-44291039D01*
X62928415Y-44069000D01*
X61785500Y-44069000D01*
X61531500Y-44069000D01*
X60388585Y-44069000D01*
X60266596Y-44291039D01*
X57970404Y-44291039D01*
X57848415Y-44069000D01*
X56705500Y-44069000D01*
X56451500Y-44069000D01*
X55308585Y-44069000D01*
X55186596Y-44291039D01*
X53813999Y-44291039D01*
X53813999Y-43592961D01*
X55186596Y-43592961D01*
X55308585Y-43815000D01*
X56451500Y-43815000D01*
X56451500Y-42671376D01*
X56705500Y-42671376D01*
X56705500Y-43815000D01*
X57848415Y-43815000D01*
X57970404Y-43592961D01*
X60266596Y-43592961D01*
X60388585Y-43815000D01*
X61531500Y-43815000D01*
X61531500Y-42671376D01*
X61785500Y-42671376D01*
X61785500Y-43815000D01*
X62928415Y-43815000D01*
X63050404Y-43592961D01*
X63009746Y-43458913D01*
X62889537Y-43204580D01*
X62722019Y-42978586D01*
X62513631Y-42789615D01*
X62272381Y-42644930D01*
X62007540Y-42550091D01*
X61785500Y-42671376D01*
X61531500Y-42671376D01*
X61309460Y-42550091D01*
X61044619Y-42644930D01*
X60803369Y-42789615D01*
X60594981Y-42978586D01*
X60427463Y-43204580D01*
X60307254Y-43458913D01*
X60266596Y-43592961D01*
X57970404Y-43592961D01*
X57929746Y-43458913D01*
X57809537Y-43204580D01*
X57642019Y-42978586D01*
X57433631Y-42789615D01*
X57192381Y-42644930D01*
X56927540Y-42550091D01*
X56705500Y-42671376D01*
X56451500Y-42671376D01*
X56229460Y-42550091D01*
X55964619Y-42644930D01*
X55723369Y-42789615D01*
X55514981Y-42978586D01*
X55347463Y-43204580D01*
X55227254Y-43458913D01*
X55186596Y-43592961D01*
X53813999Y-43592961D01*
X53813999Y-24037789D01*
X53879960Y-24061409D01*
X54102000Y-23940124D01*
X54102000Y-22796500D01*
X54356000Y-22796500D01*
X54356000Y-23940124D01*
X54578040Y-24061409D01*
X54842881Y-23966570D01*
X55084131Y-23821885D01*
X55292519Y-23632914D01*
X55460037Y-23406920D01*
X55580246Y-23152587D01*
X55620904Y-23018539D01*
X55498915Y-22796500D01*
X54356000Y-22796500D01*
X54102000Y-22796500D01*
X54082000Y-22796500D01*
X54082000Y-22542500D01*
X54102000Y-22542500D01*
X54102000Y-22522500D01*
X54356000Y-22522500D01*
X54356000Y-22542500D01*
X55498915Y-22542500D01*
X55620904Y-22320461D01*
X55580246Y-22186413D01*
X55460037Y-21932080D01*
X55292519Y-21706086D01*
X55084131Y-21517115D01*
X54898135Y-21405567D01*
X54908727Y-21401180D01*
X55143759Y-21244137D01*
X55343637Y-21044259D01*
X55500680Y-20809227D01*
X55608853Y-20548074D01*
X55664000Y-20270835D01*
X55664000Y-20063947D01*
X55843500Y-20243447D01*
X55843501Y-29372252D01*
X55663741Y-29492363D01*
X55463863Y-29692241D01*
X55306820Y-29927273D01*
X55198647Y-30188426D01*
X55143500Y-30465665D01*
X55143500Y-30748335D01*
X55198647Y-31025574D01*
X55306820Y-31286727D01*
X55463863Y-31521759D01*
X55663741Y-31721637D01*
X55843501Y-31841748D01*
X55843500Y-36357252D01*
X55663741Y-36477363D01*
X55463863Y-36677241D01*
X55306820Y-36912273D01*
X55198647Y-37173426D01*
X55143500Y-37450665D01*
X55143500Y-37733335D01*
X55198647Y-38010574D01*
X55306820Y-38271727D01*
X55463863Y-38506759D01*
X55663741Y-38706637D01*
X55898773Y-38863680D01*
X56159926Y-38971853D01*
X56437165Y-39027000D01*
X56719835Y-39027000D01*
X56997074Y-38971853D01*
X57258227Y-38863680D01*
X57493259Y-38706637D01*
X57693137Y-38506759D01*
X57850180Y-38271727D01*
X57958353Y-38010574D01*
X58013500Y-37733335D01*
X58013500Y-37450665D01*
X57958353Y-37173426D01*
X57850180Y-36912273D01*
X57693137Y-36677241D01*
X57493259Y-36477363D01*
X57313500Y-36357252D01*
X57313500Y-31841748D01*
X57493259Y-31721637D01*
X57693137Y-31521759D01*
X57850180Y-31286727D01*
X57958353Y-31025574D01*
X58013500Y-30748335D01*
X58013500Y-30465665D01*
X57958353Y-30188426D01*
X57850180Y-29927273D01*
X57693137Y-29692241D01*
X57493259Y-29492363D01*
X57313500Y-29372252D01*
X57313500Y-19975105D01*
X57317056Y-19939000D01*
X57302865Y-19794915D01*
X57297284Y-19776518D01*
X57260837Y-19656367D01*
X57192587Y-19528680D01*
X57181700Y-19515414D01*
X57123753Y-19444806D01*
X57123750Y-19444803D01*
X57100737Y-19416762D01*
X57072697Y-19393750D01*
X55621822Y-17942876D01*
X55664000Y-17730835D01*
X55664000Y-17448165D01*
X55608853Y-17170926D01*
X55500680Y-16909773D01*
X55343637Y-16674741D01*
X55145039Y-16476143D01*
X55153482Y-16475312D01*
X55273180Y-16439002D01*
X55383494Y-16380037D01*
X55480185Y-16300685D01*
X55559537Y-16203994D01*
X55618502Y-16093680D01*
X55654812Y-15973982D01*
X55667072Y-15849500D01*
X55667072Y-14249500D01*
X55654812Y-14125018D01*
X55618502Y-14005320D01*
X55559537Y-13895006D01*
X55480185Y-13798315D01*
X55383494Y-13718963D01*
X55273180Y-13659998D01*
X55153482Y-13623688D01*
X55029000Y-13611428D01*
X53429000Y-13611428D01*
X53304518Y-13623688D01*
X53184820Y-13659998D01*
X53074506Y-13718963D01*
X52977815Y-13798315D01*
X52898463Y-13895006D01*
X52839498Y-14005320D01*
X52803188Y-14125018D01*
X52790928Y-14249500D01*
X52790928Y-14458189D01*
X52706762Y-14527262D01*
X52683747Y-14555306D01*
X48464308Y-18774746D01*
X48436262Y-18797763D01*
X48344413Y-18909681D01*
X48276163Y-19037368D01*
X48272749Y-19048623D01*
X48234135Y-19175915D01*
X48219944Y-19320000D01*
X48223500Y-19356105D01*
X48223501Y-29372252D01*
X48043741Y-29492363D01*
X47843863Y-29692241D01*
X47686820Y-29927273D01*
X47578647Y-30188426D01*
X47523500Y-30465665D01*
X43642356Y-30465665D01*
X43651960Y-30434007D01*
X43678701Y-30162500D01*
X43651960Y-29890993D01*
X43572764Y-29629919D01*
X43444157Y-29389312D01*
X43271081Y-29178419D01*
X43060188Y-29005343D01*
X42849073Y-28892500D01*
X43060188Y-28779657D01*
X43271081Y-28606581D01*
X43444157Y-28395688D01*
X43572764Y-28155081D01*
X43651960Y-27894007D01*
X43678701Y-27622500D01*
X43651960Y-27350993D01*
X43572764Y-27089919D01*
X43444157Y-26849312D01*
X43271081Y-26638419D01*
X43060188Y-26465343D01*
X42849073Y-26352500D01*
X43060188Y-26239657D01*
X43271081Y-26066581D01*
X43444157Y-25855688D01*
X43572764Y-25615081D01*
X43651960Y-25354007D01*
X43678701Y-25082500D01*
X43651960Y-24810993D01*
X43572764Y-24549919D01*
X43444157Y-24309312D01*
X43271081Y-24098419D01*
X43060188Y-23925343D01*
X42849073Y-23812500D01*
X43060188Y-23699657D01*
X43271081Y-23526581D01*
X43444157Y-23315688D01*
X43572764Y-23075081D01*
X43651960Y-22814007D01*
X43678701Y-22542500D01*
X43651960Y-22270993D01*
X43572764Y-22009919D01*
X43444157Y-21769312D01*
X43271081Y-21558419D01*
X43060188Y-21385343D01*
X42849073Y-21272500D01*
X43060188Y-21159657D01*
X43271081Y-20986581D01*
X43444157Y-20775688D01*
X43572764Y-20535081D01*
X43651960Y-20274007D01*
X43678701Y-20002500D01*
X43651960Y-19730993D01*
X43572764Y-19469919D01*
X43444157Y-19229312D01*
X43271081Y-19018419D01*
X43060188Y-18845343D01*
X42819581Y-18716736D01*
X42558507Y-18637540D01*
X42355037Y-18617500D01*
X41718963Y-18617500D01*
X41515493Y-18637540D01*
X41254419Y-18716736D01*
X41013812Y-18845343D01*
X40802919Y-19018419D01*
X40629843Y-19229312D01*
X40501236Y-19469919D01*
X40422040Y-19730993D01*
X40395299Y-20002500D01*
X25898701Y-20002500D01*
X25871960Y-19730993D01*
X25792764Y-19469919D01*
X25664157Y-19229312D01*
X25491081Y-19018419D01*
X25280188Y-18845343D01*
X25039581Y-18716736D01*
X24778507Y-18637540D01*
X24575037Y-18617500D01*
X23938963Y-18617500D01*
X23735493Y-18637540D01*
X23474419Y-18716736D01*
X23233812Y-18845343D01*
X23022919Y-19018419D01*
X22849843Y-19229312D01*
X22721236Y-19469919D01*
X22642040Y-19730993D01*
X22615299Y-20002500D01*
X14848663Y-20002500D01*
X14825671Y-19959486D01*
X14581702Y-19887903D01*
X13768605Y-20701000D01*
X13409395Y-20701000D01*
X13395253Y-20686858D01*
X13574858Y-20507253D01*
X13589000Y-20521395D01*
X14402097Y-19708298D01*
X14330514Y-19464329D01*
X14075004Y-19343429D01*
X13800816Y-19274700D01*
X13518488Y-19260783D01*
X13238870Y-19302213D01*
X12972708Y-19397397D01*
X12850691Y-19462616D01*
X12840185Y-19449815D01*
X12743494Y-19370463D01*
X12633180Y-19311498D01*
X12513482Y-19275188D01*
X12389000Y-19262928D01*
X12324000Y-19262928D01*
X12324000Y-14355605D01*
X12327556Y-14319500D01*
X12313365Y-14175415D01*
X12271337Y-14036866D01*
X12203087Y-13909180D01*
X12134253Y-13825306D01*
X12111238Y-13797262D01*
X12083193Y-13774246D01*
X5057072Y-6748126D01*
X5057072Y-6297069D01*
X5064998Y-6286500D01*
X6804000Y-6286500D01*
X6804000Y-7276500D01*
X6860000Y-7591082D01*
X6976296Y-7888694D01*
X7148419Y-8157899D01*
X7369754Y-8388352D01*
X7631795Y-8571196D01*
X7924472Y-8699405D01*
X8050135Y-8729718D01*
X8302000Y-8610240D01*
X8302000Y-6286500D01*
X8556000Y-6286500D01*
X8556000Y-8610240D01*
X8807865Y-8729718D01*
X8933528Y-8699405D01*
X9226205Y-8571196D01*
X9488246Y-8388352D01*
X9709581Y-8157899D01*
X9881704Y-7888694D01*
X9998000Y-7591082D01*
X10054000Y-7276500D01*
X10054000Y-6286500D01*
X8556000Y-6286500D01*
X8302000Y-6286500D01*
X6804000Y-6286500D01*
X5064998Y-6286500D01*
X5997998Y-5042500D01*
X6804000Y-5042500D01*
X6804000Y-6032500D01*
X8302000Y-6032500D01*
X8302000Y-3708760D01*
X8556000Y-3708760D01*
X8556000Y-6032500D01*
X10054000Y-6032500D01*
X10054000Y-5042500D01*
X9998000Y-4727918D01*
X9881704Y-4430306D01*
X9709581Y-4161101D01*
X9488246Y-3930648D01*
X9226205Y-3747804D01*
X8933528Y-3619595D01*
X8807865Y-3589282D01*
X8556000Y-3708760D01*
X8302000Y-3708760D01*
X8050135Y-3589282D01*
X7924472Y-3619595D01*
X7631795Y-3747804D01*
X7369754Y-3930648D01*
X7148419Y-4161101D01*
X6976296Y-4430306D01*
X6860000Y-4727918D01*
X6804000Y-5042500D01*
X5997998Y-5042500D01*
X7931500Y-2464500D01*
X48224554Y-2464500D01*
X60456178Y-14696125D01*
X60414000Y-14908165D01*
X60414000Y-15190835D01*
X60469147Y-15468074D01*
X60577320Y-15729227D01*
X60734363Y-15964259D01*
X60934241Y-16164137D01*
X61166759Y-16319500D01*
X60934241Y-16474863D01*
X60734363Y-16674741D01*
X60577320Y-16909773D01*
X60469147Y-17170926D01*
X60414000Y-17448165D01*
X60414000Y-17730835D01*
X60469147Y-18008074D01*
X60577320Y-18269227D01*
X60734363Y-18504259D01*
X60934241Y-18704137D01*
X61166759Y-18859500D01*
X60934241Y-19014863D01*
X60734363Y-19214741D01*
X60577320Y-19449773D01*
X60469147Y-19710926D01*
X60414000Y-19988165D01*
X60414000Y-20270835D01*
X60456178Y-20482876D01*
X60204807Y-20734247D01*
X60176761Y-20757264D01*
X60084912Y-20869182D01*
X60016662Y-20996869D01*
X60000202Y-21051130D01*
X59974634Y-21135416D01*
X59960443Y-21279501D01*
X59963999Y-21315606D01*
X59964000Y-29611384D01*
X59960443Y-29647499D01*
X59974634Y-29791584D01*
X59997950Y-29868444D01*
X60016663Y-29930132D01*
X60084913Y-30057819D01*
X60176762Y-30169737D01*
X60204807Y-30192753D01*
X60265678Y-30253624D01*
X60223500Y-30465665D01*
X60223500Y-30748335D01*
X60278647Y-31025574D01*
X60386820Y-31286727D01*
X60543863Y-31521759D01*
X60743741Y-31721637D01*
X60923500Y-31841748D01*
X60923501Y-36357252D01*
X60743741Y-36477363D01*
X60543863Y-36677241D01*
X60386820Y-36912273D01*
X60278647Y-37173426D01*
X60223500Y-37450665D01*
X60223500Y-37733335D01*
X60278647Y-38010574D01*
X60386820Y-38271727D01*
X60543863Y-38506759D01*
X60743741Y-38706637D01*
X60978773Y-38863680D01*
X61239926Y-38971853D01*
X61517165Y-39027000D01*
X61799835Y-39027000D01*
X62077074Y-38971853D01*
X62338227Y-38863680D01*
X62573259Y-38706637D01*
X62773137Y-38506759D01*
X62930180Y-38271727D01*
X63038353Y-38010574D01*
X63093500Y-37733335D01*
X63093500Y-37450665D01*
X63038353Y-37173426D01*
X62930180Y-36912273D01*
X62773137Y-36677241D01*
X62573259Y-36477363D01*
X62393500Y-36357252D01*
X62393500Y-31841748D01*
X62573259Y-31721637D01*
X62773137Y-31521759D01*
X62930180Y-31286727D01*
X63038353Y-31025574D01*
X63093500Y-30748335D01*
X63093500Y-30465665D01*
X63038353Y-30188426D01*
X62930180Y-29927273D01*
X62773137Y-29692241D01*
X62573259Y-29492363D01*
X62338227Y-29335320D01*
X62077074Y-29227147D01*
X61799835Y-29172000D01*
X61517165Y-29172000D01*
X61433999Y-29188543D01*
X61433999Y-24050064D01*
X61707665Y-24104500D01*
X61990335Y-24104500D01*
X62202376Y-24062322D01*
X66194000Y-28053947D01*
X66194001Y-48527052D01*
X64939079Y-49781974D01*
X64867103Y-49580708D01*
X64800171Y-49455486D01*
X64556202Y-49383903D01*
X63743105Y-50197000D01*
X63757248Y-50211143D01*
X63577643Y-50390748D01*
X63563500Y-50376605D01*
X63549358Y-50390748D01*
X63369753Y-50211143D01*
X63383895Y-50197000D01*
X62570798Y-49383903D01*
X62326829Y-49455486D01*
X62205929Y-49710996D01*
X62137200Y-49985184D01*
X62123283Y-50267512D01*
X62164713Y-50547130D01*
X62259897Y-50813292D01*
X62325116Y-50935309D01*
X62312315Y-50945815D01*
X62232963Y-51042506D01*
X62173998Y-51152820D01*
X62137688Y-51272518D01*
X62125428Y-51397000D01*
X62125428Y-51462000D01*
X58448248Y-51462000D01*
X58328137Y-51282241D01*
X58128259Y-51082363D01*
X57893227Y-50925320D01*
X57632074Y-50817147D01*
X57354835Y-50762000D01*
X57072165Y-50762000D01*
X56794926Y-50817147D01*
X56533773Y-50925320D01*
X56298741Y-51082363D01*
X56098863Y-51282241D01*
X55941820Y-51517273D01*
X55833647Y-51778426D01*
X55778500Y-52055665D01*
X55778500Y-52338335D01*
X55833647Y-52615574D01*
X55941820Y-52876727D01*
X56098863Y-53111759D01*
X56298741Y-53311637D01*
X56533773Y-53468680D01*
X56794926Y-53576853D01*
X57072165Y-53632000D01*
X57354835Y-53632000D01*
X57632074Y-53576853D01*
X57893227Y-53468680D01*
X58128259Y-53311637D01*
X58328137Y-53111759D01*
X58448248Y-52932000D01*
X62125428Y-52932000D01*
X62125428Y-52997000D01*
X62137688Y-53121482D01*
X62173998Y-53241180D01*
X62232963Y-53351494D01*
X62312315Y-53448185D01*
X62409006Y-53527537D01*
X62519320Y-53586502D01*
X62639018Y-53622812D01*
X62763500Y-53635072D01*
X64363500Y-53635072D01*
X64487982Y-53622812D01*
X64607680Y-53586502D01*
X64717994Y-53527537D01*
X64814685Y-53448185D01*
X64894037Y-53351494D01*
X64953002Y-53241180D01*
X64989312Y-53121482D01*
X65001572Y-52997000D01*
X65001572Y-51798374D01*
X67423193Y-49376754D01*
X67451238Y-49353738D01*
X67543087Y-49241820D01*
X67567185Y-49196736D01*
X67611337Y-49114134D01*
X67653365Y-48975585D01*
X67667556Y-48831500D01*
X67664000Y-48795395D01*
X67664000Y-37450665D01*
X67843500Y-37450665D01*
X67843500Y-37733335D01*
X67898647Y-38010574D01*
X68006820Y-38271727D01*
X68163863Y-38506759D01*
X68363741Y-38706637D01*
X68543500Y-38826748D01*
X68543501Y-42707252D01*
X68363741Y-42827363D01*
X68163863Y-43027241D01*
X68006820Y-43262273D01*
X67898647Y-43523426D01*
X67843500Y-43800665D01*
X67843500Y-44083335D01*
X67898647Y-44360574D01*
X68006820Y-44621727D01*
X68163863Y-44856759D01*
X68363741Y-45056637D01*
X68598773Y-45213680D01*
X68859926Y-45321853D01*
X69137165Y-45377000D01*
X69419835Y-45377000D01*
X69697074Y-45321853D01*
X69958227Y-45213680D01*
X70193259Y-45056637D01*
X70393137Y-44856759D01*
X70550180Y-44621727D01*
X70658353Y-44360574D01*
X70713500Y-44083335D01*
X70713500Y-43800665D01*
X70658353Y-43523426D01*
X70550180Y-43262273D01*
X70393137Y-43027241D01*
X70193259Y-42827363D01*
X70013500Y-42707252D01*
X70013500Y-38826748D01*
X70193259Y-38706637D01*
X70393137Y-38506759D01*
X70550180Y-38271727D01*
X70658353Y-38010574D01*
X70713500Y-37733335D01*
X70713500Y-37450665D01*
X70658353Y-37173426D01*
X70550180Y-36912273D01*
X70393137Y-36677241D01*
X70193259Y-36477363D01*
X69958227Y-36320320D01*
X69697074Y-36212147D01*
X69419835Y-36157000D01*
X69137165Y-36157000D01*
X68859926Y-36212147D01*
X68598773Y-36320320D01*
X68363741Y-36477363D01*
X68163863Y-36677241D01*
X68006820Y-36912273D01*
X67898647Y-37173426D01*
X67843500Y-37450665D01*
X67664000Y-37450665D01*
X67664000Y-27785605D01*
X67667556Y-27749500D01*
X67653365Y-27605415D01*
X67611337Y-27466867D01*
X67543087Y-27339180D01*
X67493896Y-27279241D01*
X67474253Y-27255306D01*
X67474250Y-27255303D01*
X67451237Y-27227262D01*
X67423197Y-27204251D01*
X63241822Y-23022876D01*
X63284000Y-22810835D01*
X63284000Y-22528165D01*
X63228853Y-22250926D01*
X63120680Y-21989773D01*
X62963637Y-21754741D01*
X62763759Y-21554863D01*
X62531241Y-21399500D01*
X62763759Y-21244137D01*
X62963637Y-21044259D01*
X63120680Y-20809227D01*
X63228853Y-20548074D01*
X63284000Y-20270835D01*
X63284000Y-20063946D01*
X68543500Y-25323447D01*
X68543501Y-29372252D01*
X68363741Y-29492363D01*
X68163863Y-29692241D01*
X68006820Y-29927273D01*
X67898647Y-30188426D01*
X67843500Y-30465665D01*
X67843500Y-30748335D01*
X67898647Y-31025574D01*
X68006820Y-31286727D01*
X68163863Y-31521759D01*
X68363741Y-31721637D01*
X68598773Y-31878680D01*
X68859926Y-31986853D01*
X69137165Y-32042000D01*
X69419835Y-32042000D01*
X69697074Y-31986853D01*
X69958227Y-31878680D01*
X70193259Y-31721637D01*
X70393137Y-31521759D01*
X70550180Y-31286727D01*
X70658353Y-31025574D01*
X70713500Y-30748335D01*
X70713500Y-30465665D01*
X70658353Y-30188426D01*
X70550180Y-29927273D01*
X70393137Y-29692241D01*
X70193259Y-29492363D01*
X70013500Y-29372252D01*
X70013500Y-25055105D01*
X70017056Y-25019000D01*
X70002865Y-24874915D01*
X69960837Y-24736366D01*
X69892587Y-24608680D01*
X69823753Y-24524806D01*
X69823750Y-24524803D01*
X69800737Y-24496762D01*
X69772698Y-24473751D01*
X63241822Y-17942876D01*
X63284000Y-17730835D01*
X63284000Y-17448165D01*
X63228853Y-17170926D01*
X63120680Y-16909773D01*
X62963637Y-16674741D01*
X62763759Y-16474863D01*
X62531241Y-16319500D01*
X62763759Y-16164137D01*
X62963637Y-15964259D01*
X63120680Y-15729227D01*
X63228853Y-15468074D01*
X63284000Y-15190835D01*
X63284000Y-14908165D01*
X63228853Y-14630926D01*
X63120680Y-14369773D01*
X62963637Y-14134741D01*
X62763759Y-13934863D01*
X62528727Y-13777820D01*
X62267574Y-13669647D01*
X61990335Y-13614500D01*
X61707665Y-13614500D01*
X61495625Y-13656678D01*
X50303446Y-2464500D01*
X58735315Y-2464500D01*
X72144000Y-15873185D01*
X72144001Y-50331238D01*
X72138509Y-50387000D01*
X72160423Y-50609498D01*
X72225324Y-50823446D01*
X72225325Y-50823447D01*
X72330717Y-51020623D01*
X72472552Y-51193449D01*
X72515860Y-51228991D01*
X77612509Y-56325641D01*
X77648051Y-56368949D01*
X77820877Y-56510784D01*
X78018053Y-56616176D01*
X78232001Y-56681077D01*
X78398748Y-56697500D01*
X78398757Y-56697500D01*
X78454499Y-56702990D01*
X78510241Y-56697500D01*
X79287612Y-56697500D01*
X79452109Y-56832500D01*
X79279037Y-56974537D01*
X79080655Y-57216265D01*
X78933245Y-57492051D01*
X78842470Y-57791296D01*
X78811819Y-58102500D01*
X78842470Y-58413704D01*
X78933245Y-58712949D01*
X79080655Y-58988735D01*
X79279037Y-59230463D01*
X79520765Y-59428845D01*
X79796551Y-59576255D01*
X80095796Y-59667030D01*
X80329014Y-59690000D01*
X80579986Y-59690000D01*
X80813204Y-59667030D01*
X81112449Y-59576255D01*
X81388235Y-59428845D01*
X81621388Y-59237500D01*
X89479249Y-59237500D01*
X89535000Y-59242991D01*
X89590751Y-59237500D01*
X89590752Y-59237500D01*
X89757499Y-59221077D01*
X89971447Y-59156176D01*
X90168623Y-59050784D01*
X90341449Y-58908949D01*
X90376996Y-58865635D01*
X90808033Y-58434598D01*
X90838026Y-58505809D01*
X91004194Y-58751326D01*
X91215067Y-58959708D01*
X91462542Y-59122947D01*
X91737108Y-59234769D01*
X92028214Y-59290877D01*
X92265500Y-59135376D01*
X92265500Y-57912000D01*
X92245500Y-57912000D01*
X92245500Y-57658000D01*
X92265500Y-57658000D01*
X92265500Y-57638000D01*
X92519500Y-57638000D01*
X92519500Y-57658000D01*
X92539500Y-57658000D01*
X92539500Y-57912000D01*
X92519500Y-57912000D01*
X92519500Y-59135376D01*
X92756786Y-59290877D01*
X93047892Y-59234769D01*
X93102511Y-59212525D01*
X93102510Y-61623543D01*
X92682375Y-62043678D01*
X92470335Y-62001500D01*
X92187665Y-62001500D01*
X91910426Y-62056647D01*
X91649273Y-62164820D01*
X91414241Y-62321863D01*
X91214363Y-62521741D01*
X91057320Y-62756773D01*
X90949147Y-63017926D01*
X90894000Y-63295165D01*
X90894000Y-63577835D01*
X90949147Y-63855074D01*
X91057320Y-64116227D01*
X91214363Y-64351259D01*
X91414241Y-64551137D01*
X91649273Y-64708180D01*
X91910426Y-64816353D01*
X92187665Y-64871500D01*
X92470335Y-64871500D01*
X92747574Y-64816353D01*
X93008727Y-64708180D01*
X93243759Y-64551137D01*
X93443637Y-64351259D01*
X93600680Y-64116227D01*
X93708853Y-63855074D01*
X93764000Y-63577835D01*
X93764000Y-63295165D01*
X93721822Y-63083125D01*
X94331707Y-62473240D01*
X94359747Y-62450228D01*
X94382760Y-62422187D01*
X94382763Y-62422184D01*
X94451596Y-62338311D01*
X94451597Y-62338310D01*
X94519847Y-62210623D01*
X94561875Y-62072075D01*
X94572510Y-61964095D01*
X94572510Y-61964086D01*
X94576065Y-61927991D01*
X94572510Y-61891896D01*
X94572510Y-56726115D01*
X94576066Y-56690010D01*
X94561875Y-56545925D01*
X94519847Y-56407376D01*
X94451597Y-56279690D01*
X94382763Y-56195816D01*
X94359748Y-56167772D01*
X94331703Y-56144756D01*
X94013275Y-55826328D01*
X94014666Y-55823725D01*
X94100724Y-55540032D01*
X94107158Y-55474703D01*
X95000650Y-54581212D01*
X95043959Y-54545669D01*
X95185794Y-54372843D01*
X95291186Y-54175667D01*
X95356087Y-53961719D01*
X95372510Y-53794972D01*
X95372510Y-53794963D01*
X95378000Y-53739221D01*
X95372510Y-53683479D01*
X95372510Y-48763762D01*
X95378001Y-48708010D01*
X95356087Y-48485511D01*
X95291186Y-48271563D01*
X95185794Y-48074387D01*
X95079499Y-47944866D01*
X95079497Y-47944864D01*
X95043959Y-47901561D01*
X95000656Y-47866023D01*
X93864000Y-46729368D01*
X93864000Y-46648316D01*
X93805011Y-46351757D01*
X93689299Y-46072405D01*
X93521312Y-45820995D01*
X93307505Y-45607188D01*
X93056095Y-45439201D01*
X92776743Y-45323489D01*
X92480184Y-45264500D01*
X92177816Y-45264500D01*
X91881257Y-45323489D01*
X91601905Y-45439201D01*
X91350495Y-45607188D01*
X91136688Y-45820995D01*
X90968701Y-46072405D01*
X90852989Y-46351757D01*
X90794000Y-46648316D01*
X90794000Y-46950684D01*
X90852989Y-47247243D01*
X90968701Y-47526595D01*
X91136688Y-47778005D01*
X91350495Y-47991812D01*
X91601905Y-48159799D01*
X91881257Y-48275511D01*
X92177816Y-48334500D01*
X92258868Y-48334500D01*
X93102510Y-49178143D01*
X93102510Y-51196928D01*
X91547499Y-51196928D01*
X91374245Y-51213992D01*
X91207649Y-51264528D01*
X91054113Y-51346595D01*
X90919538Y-51457038D01*
X90809095Y-51591613D01*
X90727028Y-51745149D01*
X90676492Y-51911745D01*
X90659428Y-52084999D01*
X90659428Y-53325001D01*
X90676492Y-53498255D01*
X90727028Y-53664851D01*
X90809095Y-53818387D01*
X90919538Y-53952962D01*
X91054113Y-54063405D01*
X91163614Y-54121934D01*
X91098155Y-54175655D01*
X90910083Y-54404821D01*
X90770334Y-54666275D01*
X90684276Y-54949968D01*
X90655218Y-55245000D01*
X90667067Y-55365302D01*
X89064869Y-56967500D01*
X81621388Y-56967500D01*
X81456891Y-56832500D01*
X81621388Y-56697500D01*
X82398749Y-56697500D01*
X82454500Y-56702991D01*
X82510251Y-56697500D01*
X82510252Y-56697500D01*
X82676999Y-56681077D01*
X82890947Y-56616176D01*
X83088123Y-56510784D01*
X83260949Y-56368949D01*
X83296496Y-56325636D01*
X84202140Y-55419992D01*
X84245449Y-55384449D01*
X84387284Y-55211623D01*
X84492676Y-55014447D01*
X84557577Y-54800499D01*
X84574000Y-54633752D01*
X84574000Y-54633743D01*
X84579490Y-54578001D01*
X84574000Y-54522259D01*
X84574000Y-49809631D01*
X93092146Y-41291487D01*
X93135449Y-41255949D01*
X93171928Y-41211500D01*
X93277284Y-41083123D01*
X93382676Y-40885947D01*
X93445984Y-40677252D01*
X93473180Y-40669002D01*
X93583494Y-40610037D01*
X93680185Y-40530685D01*
X93759537Y-40433994D01*
X93818502Y-40323680D01*
X93854812Y-40203982D01*
X93867072Y-40079500D01*
X93867072Y-38279500D01*
X93854812Y-38155018D01*
X93818502Y-38035320D01*
X93759537Y-37925006D01*
X93680185Y-37828315D01*
X93583494Y-37748963D01*
X93473180Y-37689998D01*
X93353482Y-37653688D01*
X93229000Y-37641428D01*
X91429000Y-37641428D01*
X91304518Y-37653688D01*
X91184820Y-37689998D01*
X91074506Y-37748963D01*
X90977815Y-37828315D01*
X90898463Y-37925006D01*
X90839498Y-38035320D01*
X90803188Y-38155018D01*
X90790928Y-38279500D01*
X90790928Y-40079500D01*
X90803188Y-40203982D01*
X90839498Y-40323680D01*
X90843047Y-40330320D01*
X82675865Y-48497504D01*
X82632551Y-48533051D01*
X82490716Y-48705877D01*
X82423570Y-48831500D01*
X82385324Y-48903054D01*
X82320423Y-49117002D01*
X82298509Y-49339500D01*
X82304000Y-49395252D01*
X82304001Y-54107867D01*
X81984369Y-54427500D01*
X81904083Y-54427500D01*
X81905685Y-54426185D01*
X81985037Y-54329494D01*
X82044002Y-54219180D01*
X82080312Y-54099482D01*
X82092572Y-53975000D01*
X82092572Y-52070000D01*
X82080312Y-51945518D01*
X82044002Y-51825820D01*
X81985037Y-51715506D01*
X81905685Y-51618815D01*
X81808994Y-51539463D01*
X81698680Y-51480498D01*
X81578982Y-51444188D01*
X81454500Y-51431928D01*
X79454500Y-51431928D01*
X79330018Y-51444188D01*
X79210320Y-51480498D01*
X79100006Y-51539463D01*
X79003315Y-51618815D01*
X78923963Y-51715506D01*
X78864998Y-51825820D01*
X78828688Y-51945518D01*
X78816428Y-52070000D01*
X78816428Y-53975000D01*
X78828688Y-54099482D01*
X78864998Y-54219180D01*
X78923963Y-54329494D01*
X79003315Y-54426185D01*
X79004917Y-54427500D01*
X78924632Y-54427500D01*
X74414000Y-49916869D01*
X74414000Y-33822202D01*
X91515903Y-33822202D01*
X91587486Y-34066171D01*
X91842996Y-34187071D01*
X92117184Y-34255800D01*
X92399512Y-34269717D01*
X92679130Y-34228287D01*
X92945292Y-34133103D01*
X93070514Y-34066171D01*
X93142097Y-33822202D01*
X92329000Y-33009105D01*
X91515903Y-33822202D01*
X74414000Y-33822202D01*
X74414000Y-32900012D01*
X90888783Y-32900012D01*
X90930213Y-33179630D01*
X91025397Y-33445792D01*
X91092329Y-33571014D01*
X91336298Y-33642597D01*
X92149395Y-32829500D01*
X92508605Y-32829500D01*
X93321702Y-33642597D01*
X93565671Y-33571014D01*
X93686571Y-33315504D01*
X93755300Y-33041316D01*
X93769217Y-32758988D01*
X93727787Y-32479370D01*
X93632603Y-32213208D01*
X93565671Y-32087986D01*
X93321702Y-32016403D01*
X92508605Y-32829500D01*
X92149395Y-32829500D01*
X91336298Y-32016403D01*
X91092329Y-32087986D01*
X90971429Y-32343496D01*
X90902700Y-32617684D01*
X90888783Y-32900012D01*
X74414000Y-32900012D01*
X74414000Y-31836798D01*
X91515903Y-31836798D01*
X92329000Y-32649895D01*
X93142097Y-31836798D01*
X93070514Y-31592829D01*
X92815004Y-31471929D01*
X92540816Y-31403200D01*
X92258488Y-31389283D01*
X91978870Y-31430713D01*
X91712708Y-31525897D01*
X91587486Y-31592829D01*
X91515903Y-31836798D01*
X74414000Y-31836798D01*
X74414000Y-17789632D01*
X75802509Y-19178141D01*
X75838051Y-19221449D01*
X76010876Y-19363283D01*
X76010877Y-19363284D01*
X76208053Y-19468676D01*
X76422001Y-19533577D01*
X76644500Y-19555491D01*
X76700252Y-19550000D01*
X79351112Y-19550000D01*
X79515609Y-19685000D01*
X79342537Y-19827037D01*
X79144155Y-20068765D01*
X78996745Y-20344551D01*
X78905970Y-20643796D01*
X78875319Y-20955000D01*
X78905970Y-21266204D01*
X78996745Y-21565449D01*
X79144155Y-21841235D01*
X79342537Y-22082963D01*
X79584265Y-22281345D01*
X79860051Y-22428755D01*
X80159296Y-22519530D01*
X80392514Y-22542500D01*
X80643486Y-22542500D01*
X80876704Y-22519530D01*
X81175949Y-22428755D01*
X81451735Y-22281345D01*
X81684888Y-22090000D01*
X88590249Y-22090000D01*
X88646000Y-22095491D01*
X88701751Y-22090000D01*
X88701752Y-22090000D01*
X88868499Y-22073577D01*
X89082447Y-22008676D01*
X89279623Y-21903284D01*
X89452449Y-21761449D01*
X89487996Y-21718135D01*
X90808033Y-20398099D01*
X90838026Y-20469309D01*
X91004194Y-20714826D01*
X91215067Y-20923208D01*
X91462542Y-21086447D01*
X91737108Y-21198269D01*
X92028214Y-21254377D01*
X92265500Y-21098876D01*
X92265500Y-19875500D01*
X92245500Y-19875500D01*
X92245500Y-19621500D01*
X92265500Y-19621500D01*
X92265500Y-19601500D01*
X92519500Y-19601500D01*
X92519500Y-19621500D01*
X92539500Y-19621500D01*
X92539500Y-19875500D01*
X92519500Y-19875500D01*
X92519500Y-21098876D01*
X92756786Y-21254377D01*
X93047892Y-21198269D01*
X93102511Y-21176025D01*
X93102510Y-23396543D01*
X92682375Y-23816678D01*
X92470335Y-23774500D01*
X92187665Y-23774500D01*
X91910426Y-23829647D01*
X91649273Y-23937820D01*
X91414241Y-24094863D01*
X91214363Y-24294741D01*
X91057320Y-24529773D01*
X90949147Y-24790926D01*
X90894000Y-25068165D01*
X90894000Y-25350835D01*
X90949147Y-25628074D01*
X91057320Y-25889227D01*
X91214363Y-26124259D01*
X91414241Y-26324137D01*
X91649273Y-26481180D01*
X91910426Y-26589353D01*
X92187665Y-26644500D01*
X92470335Y-26644500D01*
X92747574Y-26589353D01*
X93008727Y-26481180D01*
X93243759Y-26324137D01*
X93443637Y-26124259D01*
X93600680Y-25889227D01*
X93708853Y-25628074D01*
X93764000Y-25350835D01*
X93764000Y-25068165D01*
X93721822Y-24856125D01*
X94331707Y-24246240D01*
X94359747Y-24223228D01*
X94382760Y-24195187D01*
X94382763Y-24195184D01*
X94451596Y-24111311D01*
X94451597Y-24111310D01*
X94519847Y-23983623D01*
X94561875Y-23845075D01*
X94572510Y-23737095D01*
X94572510Y-23737086D01*
X94576065Y-23700991D01*
X94572510Y-23664896D01*
X94572510Y-18689615D01*
X94576066Y-18653510D01*
X94561875Y-18509425D01*
X94519847Y-18370876D01*
X94451597Y-18243190D01*
X94382763Y-18159316D01*
X94359748Y-18131272D01*
X94331703Y-18108256D01*
X94013275Y-17789828D01*
X94014666Y-17787225D01*
X94100724Y-17503532D01*
X94107158Y-17438203D01*
X95000650Y-16544712D01*
X95043959Y-16509169D01*
X95185794Y-16336343D01*
X95291186Y-16139167D01*
X95356087Y-15925219D01*
X95372510Y-15758472D01*
X95372510Y-15758463D01*
X95378000Y-15702721D01*
X95372510Y-15646979D01*
X95372510Y-11552751D01*
X95378000Y-11497009D01*
X95372510Y-11441267D01*
X95372510Y-11441258D01*
X95356087Y-11274511D01*
X95291186Y-11060563D01*
X95185794Y-10863387D01*
X95043959Y-10690561D01*
X95000651Y-10655019D01*
X93800500Y-9454869D01*
X93800500Y-9373816D01*
X93741511Y-9077257D01*
X93625799Y-8797905D01*
X93457812Y-8546495D01*
X93244005Y-8332688D01*
X92992595Y-8164701D01*
X92713243Y-8048989D01*
X92416684Y-7990000D01*
X92114316Y-7990000D01*
X91817757Y-8048989D01*
X91538405Y-8164701D01*
X91286995Y-8332688D01*
X91073188Y-8546495D01*
X90905201Y-8797905D01*
X90789489Y-9077257D01*
X90730500Y-9373816D01*
X90730500Y-9676184D01*
X90789489Y-9972743D01*
X90905201Y-10252095D01*
X91073188Y-10503505D01*
X91286995Y-10717312D01*
X91538405Y-10885299D01*
X91817757Y-11001011D01*
X92114316Y-11060000D01*
X92195369Y-11060000D01*
X93102510Y-11967142D01*
X93102510Y-13160428D01*
X91547499Y-13160428D01*
X91374245Y-13177492D01*
X91207649Y-13228028D01*
X91054113Y-13310095D01*
X90919538Y-13420538D01*
X90809095Y-13555113D01*
X90727028Y-13708649D01*
X90676492Y-13875245D01*
X90659428Y-14048499D01*
X90659428Y-15288501D01*
X90676492Y-15461755D01*
X90727028Y-15628351D01*
X90809095Y-15781887D01*
X90919538Y-15916462D01*
X91054113Y-16026905D01*
X91163614Y-16085434D01*
X91098155Y-16139155D01*
X90910083Y-16368321D01*
X90770334Y-16629775D01*
X90684276Y-16913468D01*
X90655218Y-17208500D01*
X90667067Y-17328802D01*
X88175869Y-19820000D01*
X81684888Y-19820000D01*
X81520391Y-19685000D01*
X81693463Y-19542963D01*
X81783718Y-19432987D01*
X81914125Y-19363284D01*
X82086951Y-19221449D01*
X82122498Y-19178136D01*
X83031141Y-18269493D01*
X83074450Y-18233950D01*
X83216285Y-18061124D01*
X83321677Y-17863948D01*
X83386578Y-17650000D01*
X83403001Y-17483253D01*
X83403001Y-17483244D01*
X83408491Y-17427502D01*
X83403001Y-17371760D01*
X83403001Y-12372630D01*
X92332561Y-3443072D01*
X93165500Y-3443072D01*
X93289982Y-3430812D01*
X93409680Y-3394502D01*
X93519994Y-3335537D01*
X93616685Y-3256185D01*
X93696037Y-3159494D01*
X93755002Y-3049180D01*
X93791312Y-2929482D01*
X93803572Y-2805000D01*
X93803572Y-1005000D01*
X93791312Y-880518D01*
X93755002Y-760820D01*
X93696037Y-650506D01*
X93616685Y-553815D01*
X93519994Y-474463D01*
X93409680Y-415498D01*
X93289982Y-379188D01*
X93165500Y-366928D01*
X91365500Y-366928D01*
X91241018Y-379188D01*
X91121320Y-415498D01*
X91011006Y-474463D01*
X90914315Y-553815D01*
X90834963Y-650506D01*
X90775998Y-760820D01*
X90739688Y-880518D01*
X90727428Y-1005000D01*
X90727428Y-1837939D01*
X81504861Y-11060508D01*
X81461553Y-11096050D01*
X81319718Y-11268876D01*
X81316706Y-11274512D01*
X81214325Y-11466053D01*
X81149424Y-11680001D01*
X81127510Y-11902499D01*
X81133002Y-11958260D01*
X81133002Y-14284428D01*
X79518000Y-14284428D01*
X79393518Y-14296688D01*
X79273820Y-14332998D01*
X79163506Y-14391963D01*
X79066815Y-14471315D01*
X78987463Y-14568006D01*
X78928498Y-14678320D01*
X78892188Y-14798018D01*
X78879928Y-14922500D01*
X78879928Y-16827500D01*
X78892188Y-16951982D01*
X78928498Y-17071680D01*
X78987463Y-17181994D01*
X79066815Y-17278685D01*
X79068417Y-17280000D01*
X77114632Y-17280000D01*
X74647382Y-14812751D01*
X74643959Y-14777992D01*
X74564763Y-14516918D01*
X74436156Y-14276311D01*
X74306451Y-14118266D01*
X60336454Y-148269D01*
X60293081Y-95419D01*
X60082188Y77657D01*
X59841581Y206264D01*
X59580507Y285460D01*
X59377037Y305500D01*
X59377029Y305500D01*
X59309000Y312200D01*
X59240971Y305500D01*
X7344894Y305500D01*
X7314743Y310138D01*
X7208736Y305500D01*
X7170963Y305500D01*
X7140772Y302526D01*
X7042183Y298213D01*
X7005295Y289183D01*
X6967493Y285460D01*
X6873042Y256809D01*
X6777187Y233344D01*
X6742767Y217290D01*
X6706419Y206264D01*
X6619377Y159739D01*
X6529937Y118023D01*
X6499310Y95562D01*
X6465812Y77657D01*
X6389519Y15045D01*
X6309936Y-43319D01*
X6284279Y-71324D01*
X6254919Y-95419D01*
X6192308Y-171710D01*
X6171822Y-194071D01*
X6149166Y-224279D01*
X6081843Y-306312D01*
X6067461Y-333219D01*
X3661304Y-3541428D01*
X2439000Y-3541428D01*
X2314518Y-3553688D01*
X2194820Y-3589998D01*
X2084506Y-3648963D01*
X1987815Y-3728315D01*
X1908463Y-3825006D01*
X1849498Y-3935320D01*
X1813188Y-4055018D01*
X1800928Y-4179500D01*
X1800928Y-8139500D01*
X1813188Y-8263982D01*
X1849498Y-8383680D01*
X1908463Y-8493994D01*
X1987815Y-8590685D01*
X2084506Y-8670037D01*
X2194820Y-8729002D01*
X2314518Y-8765312D01*
X2439000Y-8777572D01*
X4419000Y-8777572D01*
X4543482Y-8765312D01*
X4663180Y-8729002D01*
X4773494Y-8670037D01*
X4843027Y-8612973D01*
X10854001Y-14623948D01*
X10854000Y-19262928D01*
X10789000Y-19262928D01*
X10664518Y-19275188D01*
X10544820Y-19311498D01*
X10434506Y-19370463D01*
X10337815Y-19449815D01*
X10258463Y-19546506D01*
X10199498Y-19656820D01*
X10163188Y-19776518D01*
X10150928Y-19901000D01*
X10150928Y-21501000D01*
X10163188Y-21625482D01*
X10199498Y-21745180D01*
X10258463Y-21855494D01*
X10337815Y-21952185D01*
X10434506Y-22031537D01*
X10544820Y-22090502D01*
X10664518Y-22126812D01*
X10789000Y-22139072D01*
X10854000Y-22139072D01*
X10854001Y-24174552D01*
X8227376Y-26801178D01*
X8015335Y-26759000D01*
X7732665Y-26759000D01*
X7455426Y-26814147D01*
X7194273Y-26922320D01*
X6959241Y-27079363D01*
X6759363Y-27279241D01*
X6604000Y-27511759D01*
X6448637Y-27279241D01*
X6248759Y-27079363D01*
X6069000Y-26959252D01*
X6069000Y-23528946D01*
X7277625Y-22320322D01*
X7317088Y-22336668D01*
X7632967Y-22399500D01*
X7955033Y-22399500D01*
X8270912Y-22336668D01*
X8568463Y-22213418D01*
X8836252Y-22034487D01*
X9063987Y-21806752D01*
X9242918Y-21538963D01*
X9366168Y-21241412D01*
X9429000Y-20925533D01*
X9429000Y-20603467D01*
X9366168Y-20287588D01*
X9242918Y-19990037D01*
X9063987Y-19722248D01*
X8836252Y-19494513D01*
X8568463Y-19315582D01*
X8270912Y-19192332D01*
X7955033Y-19129500D01*
X7632967Y-19129500D01*
X7317088Y-19192332D01*
X7019537Y-19315582D01*
X6751748Y-19494513D01*
X6524013Y-19722248D01*
X6345082Y-19990037D01*
X6221832Y-20287588D01*
X6159000Y-20603467D01*
X6159000Y-20925533D01*
X6221832Y-21241412D01*
X6238178Y-21280875D01*
X4839808Y-22679246D01*
X4811763Y-22702262D01*
X4719914Y-22814180D01*
X4651664Y-22941867D01*
X4609635Y-23080415D01*
X4595444Y-23224500D01*
X4599001Y-23260615D01*
X4599000Y-26959252D01*
X4419241Y-27079363D01*
X4219363Y-27279241D01*
X4062320Y-27514273D01*
X3954147Y-27775426D01*
X3899000Y-28052665D01*
X3899000Y-28335335D01*
X3954147Y-28612574D01*
X4062320Y-28873727D01*
X4219363Y-29108759D01*
X4419241Y-29308637D01*
X4654273Y-29465680D01*
X4915426Y-29573853D01*
X5192665Y-29629000D01*
X5475335Y-29629000D01*
X5687375Y-29586822D01*
X5988999Y-29888446D01*
X5989000Y-34375928D01*
X4935375Y-34375928D01*
X3529000Y-32969554D01*
X3529000Y-22229764D01*
X3568463Y-22213418D01*
X3836252Y-22034487D01*
X4063987Y-21806752D01*
X4242918Y-21538963D01*
X4366168Y-21241412D01*
X4429000Y-20925533D01*
X4429000Y-20603467D01*
X4366168Y-20287588D01*
X4242918Y-19990037D01*
X4063987Y-19722248D01*
X3836252Y-19494513D01*
X3568463Y-19315582D01*
X3270912Y-19192332D01*
X2955033Y-19129500D01*
X2632967Y-19129500D01*
X2317088Y-19192332D01*
X2019537Y-19315582D01*
X1751748Y-19494513D01*
X1524013Y-19722248D01*
X1345082Y-19990037D01*
X1221832Y-20287588D01*
X1159000Y-20603467D01*
X304000Y-20603467D01*
X304000Y775500D01*
X99264000Y775500D01*
X99264001Y-75324500D01*
G37*
%TD.AperFunction*%
%TD*%
M02*
